<?xml version="1.0" encoding="UTF-8"?>
<svg width="16px" height="16px" viewBox="0 0 16 16" version="1.1" xmlns="http://www.w3.org/2000/svg" xmlns:xlink="http://www.w3.org/1999/xlink">
    <title>Icons / 16px / Woocoomerce@3x</title>
    <g id="Symbols" stroke="none" stroke-width="1" fill="none" fill-rule="evenodd">
        <g id="Icons-/-16px-/-Woocoomerce" fill="#888888">
            <path d="M14.5,0 C15.3284271,-6.65926084e-16 16,0.671572875 16,1.5 L16,12.5388184 C16,13.3672455 15.3284271,14.0388184 14.5,14.0388184 L9.00036621,14.0388184 L9.00036621,16 L6.9777832,14.0388184 L1.5,14.0388184 C0.671572875,14.0388184 1.01453063e-16,13.3672455 0,12.5388184 L0,1.5 C1.20591542e-16,0.671572875 0.671572875,3.74224199e-16 1.5,0 L14.5,0 Z M6.94196067,4.00441016 C6.55448714,3.95142447 6.47009057,4.38755206 6.36346881,4.68589955 C6.25684705,4.98424705 6.10090676,5.86709936 6.04849444,6.11387117 C5.99608212,6.36064298 5.88193064,7.67325318 5.88193064,7.67325318 C5.78108698,7.54101407 5.47951141,5.88121156 5.44290923,5.65932968 C5.40630706,5.4374478 5.30828419,5.0444187 5.06282894,5.0444187 C4.81737368,5.0444187 4.6790179,5.33819488 4.60713295,5.54186076 C4.55920965,5.67763802 4.22291244,6.48537533 3.59824133,7.9650727 C3.51112145,7.41637651 3.43644726,6.94095892 3.37421878,6.53881994 L3.31613886,6.16110716 C3.19928759,5.3956529 3.14086196,4.97420099 3.14086196,4.89675141 C3.14086196,4.70908512 3.12079787,4.14016433 2.61764872,4.28644637 C2.11449956,4.43272842 2.35977283,5.18699521 2.35977283,5.33819488 C2.35977283,5.40934766 2.42856274,5.91015123 2.50540557,6.44329846 L2.56359861,6.84301539 C2.63103769,7.30194183 2.69301685,7.70958433 2.70884706,7.79977814 C2.74729186,8.01882027 3.01158279,9.2703906 3.05307588,9.40823995 C3.09456896,9.54608931 3.23747442,10 3.43627271,10 C3.63507099,10 3.823496,9.68473518 3.95857601,9.44578014 C4.09365602,9.20682509 4.22170678,8.80248892 4.35273757,8.48994265 C4.48376837,8.17739637 4.8719016,7.18853807 4.8719016,7.18853807 C4.8719016,7.18853807 5.22859654,8.41216105 5.32341188,8.64431107 C5.41822722,8.87646109 5.76056792,9.52563961 5.94501196,9.77560736 C6.129456,10.0255751 6.2682895,10.0193242 6.43985795,9.95967201 C6.61142639,9.90001982 6.65446637,9.55275581 6.65462561,9.44578014 L6.65462561,9.44578014 L6.65482577,9.36168133 C6.65581224,9.12045426 6.66224957,8.46189882 6.70894879,7.7612856 C6.76343121,6.94390351 6.94196067,6.0377098 7.00790829,5.63110528 C7.07385591,5.22450076 7.2340274,4.85787792 7.27911474,4.73043523 C7.32420207,4.60299254 7.3294342,4.05739584 6.94196067,4.00441016 Z M8.95984917,5.05070149 C7.62771117,5.00583876 7.31611518,7.12754485 7.31611518,7.18235104 C7.31611518,7.23715723 7.28848114,7.63883775 7.30558646,7.87574815 C7.32269179,8.11265855 7.39513523,8.62709853 7.63203821,8.95814535 C7.86894119,9.28919216 8.09994849,9.47242631 8.60891646,9.54082524 C9.11788444,9.60922417 9.52393772,9.28681511 9.81920897,8.85271792 C10.1144802,8.41862073 10.2183783,7.82040628 10.2829397,7.29637694 C10.3475011,6.7723476 10.2919872,5.09556423 8.95984917,5.05070149 Z M12.4598492,5.05070149 C11.1277112,5.00583876 10.8161152,7.12754485 10.8161152,7.18235104 C10.8161152,7.23715723 10.7884811,7.63883775 10.8055865,7.87574815 C10.8226918,8.11265855 10.8951352,8.62709853 11.1320382,8.95814535 C11.3689412,9.28919216 11.5999485,9.47242631 12.1089165,9.54082524 C12.6178844,9.60922417 13.0239377,9.28681511 13.319209,8.85271792 C13.6144802,8.41862073 13.7183783,7.82040628 13.7829397,7.29637694 C13.8475011,6.7723476 13.7919872,5.09556423 12.4598492,5.05070149 Z M8.98751542,5.95366263 C9.15121029,5.98361566 9.22530592,6.25919984 9.25111409,6.34188594 C9.27692226,6.42457204 9.3,6.75297216 9.3,6.95877857 C9.3,7.16458499 9.25111409,8.03378983 9.18848819,8.20533103 C9.1258623,8.37687224 8.96517205,8.65 8.72773245,8.65 C8.49029285,8.65 8.41945983,8.43265791 8.39875252,8.37506036 C8.3780452,8.3174628 8.32956685,8.10218565 8.30985562,7.94010872 C8.29671479,7.83205743 8.29671479,7.61093424 8.30985562,7.27673915 C8.33514569,7.03479805 8.36477799,6.8537994 8.39875252,6.7337432 C8.4497143,6.5536589 8.55356413,6.26008121 8.63990929,6.1724052 C8.72625446,6.08472918 8.82382056,5.9237096 8.98751542,5.95366263 Z M12.4875154,5.95366263 C12.6512103,5.98361566 12.7253059,6.25919984 12.7511141,6.34188594 C12.7769223,6.42457204 12.8,6.75297216 12.8,6.95877857 C12.8,7.16458499 12.7511141,8.03378983 12.6884882,8.20533103 C12.6258623,8.37687224 12.465172,8.65 12.2277325,8.65 C11.9902929,8.65 11.9194598,8.43265791 11.8987525,8.37506036 C11.8780452,8.3174628 11.8295668,8.10218565 11.8098556,7.94010872 C11.7967148,7.83205743 11.7967148,7.61093424 11.8098556,7.27673915 C11.8351457,7.03479805 11.864778,6.8537994 11.8987525,6.7337432 C11.9497143,6.5536589 12.0535641,6.26008121 12.1399093,6.1724052 C12.2262545,6.08472918 12.3238206,5.9237096 12.4875154,5.95366263 Z" id="Combined-Shape"></path>
        </g>
    </g>
</svg>