<?xml version="1.0" encoding="UTF-8"?>
<svg width="110px" height="120px" viewBox="0 0 110 120" version="1.1" xmlns="http://www.w3.org/2000/svg" xmlns:xlink="http://www.w3.org/1999/xlink">
    <title>95589B07-3212-49E9-A62B-D80D179A5536</title>
    <defs>
        <rect id="path-1" x="0" y="0" width="110" height="120"></rect>
        <polygon id="path-3" points="0.303476786 0.471978947 102.456 0.471978947 102.456 186.947142 0.303476786 186.947142"></polygon>
    </defs>
    <g id="Schema" stroke="none" stroke-width="1" fill="none" fill-rule="evenodd">
        <g id="Schema-/-Types-/-Article" transform="translate(-734.000000, -1767.000000)">
            <g id="Types" transform="translate(409.000000, 111.000000)">
                <g id="Add-New-Type" transform="translate(61.000000, 1504.000000)">
                    <g id="sc-graphic-posteditor-schema" transform="translate(264.000000, 152.000000)">
                        <mask id="mask-2" fill="white">
                            <use xlink:href="#path-1"></use>
                        </mask>
                        <g id="Mask"></g>
                        <g id="Graphic" mask="url(#mask-2)">
                            <g transform="translate(2.000000, 0.000000)">
                                <path d="M28.548,60.5204211 C28.548,60.5204211 24.1098947,79.5366316 25.4172632,87.3056842 C26.2496842,86.2616842 28.2707368,91.3635789 29.9349474,93.4509474 C31.5991579,95.5383158 34.0503158,97.3932632 34.0503158,97.3932632 C34.0503158,97.3932632 35.6854737,94.1734737 40.1494737,95.1391579 C44.6134737,96.1054737 67.6446316,94.6105263 69.0574737,93.9151579 C70.4709474,93.2191579 75.5905263,98.9008421 75.5905263,98.9008421 C75.5905263,98.9008421 75.3448421,96.8134737 76.7715789,96.2336842 C78.1976842,95.6538947 79.9812632,96.4661053 79.9812632,96.4661053 C79.9812632,96.4661053 81.5393684,91.4835789 81.7174737,89.5086316 C81.8955789,87.5336842 81.7174737,83.8402105 81.7174737,83.8402105 L28.548,60.5204211 Z" id="Fill-1" fill="#3F3E40"></path>
                                <path d="M70.35,67.8841263 L33.9078947,67.8841263 C33.7891579,65.2258105 33.8030526,62.0281263 34.0064211,58.1843368 C35.1426316,36.8129684 36.9704211,30.1510737 46.3272632,23.7557053 C55.6841053,17.3603368 61.0784211,13.1502316 61.0784211,13.1502316 C64.2893684,14.0028632 68.6864211,22.1571789 67.3032632,27.9127579 C63.7462105,41.5030737 64.8331579,52.2683368 67.2041053,58.7704421 C68.0321053,61.0428632 69.1923158,64.4325474 70.35,67.8841263" id="Fill-3" fill="#1F191A"></path>
                                <path d="M37.4422105,102.508358 C37.4422105,111.453411 28.4024211,127.715305 25.9689474,132.908147 C23.5348421,138.100989 19.1308421,148.486674 23.0712632,182.376568 C22.4921053,190.166463 22.8394737,193.992568 22.8394737,193.992568 C22.8394737,193.992568 20.0586316,200.141621 19.3632632,215.993621 C18.6672632,231.845621 23.5348421,263.139095 23.5348421,263.139095 C23.5348421,263.139095 21.9123158,263.686042 21.6805263,265.872568 C21.4487368,268.059095 21.2175789,270.108568 21.2175789,270.108568 C21.2175789,270.108568 17.9718947,276.531095 17.3927368,278.171305 C16.8129474,279.810884 23.3030526,282.954253 24.462,282.954253 C25.6209474,282.954253 27.0116842,285.003726 29.5613684,284.730884 C32.1110526,284.456779 33.5017895,281.040568 33.7335789,279.947305 C33.9653684,278.854042 33.9653684,276.1212 34.5451579,273.934674 C35.1243158,271.748147 34.8925263,270.244989 33.9653684,268.059095 C33.0382105,265.872568 32.4590526,265.325621 32.2272632,264.505832 C31.9954737,263.686042 32.8064211,262.045832 32.4590526,260.406253 C32.1110526,258.766042 31.7636842,260.542674 31.3001053,256.306674 C30.8365263,252.070042 33.618,231.435726 36.8630526,222.006253 C40.1081053,212.577411 43.1213684,203.968358 39.8763158,189.619516 C40.2236842,187.706463 39.9918947,185.246463 39.9918947,185.246463 C39.9918947,185.246463 49.6114737,167.617832 51.8131579,147.256989 C54.0154737,126.895516 53.4356842,102.508358 53.4356842,102.508358 L37.4422105,102.508358 Z" id="Fill-5" fill="#1F191A"></path>
                                <g id="Group-11" stroke-width="1" fill="none" transform="translate(17.052632, 102.036632)">
                                    <mask id="mask-4" fill="white">
                                        <use xlink:href="#path-3"></use>
                                    </mask>
                                    <g id="Clip-10"></g>
                                    <path d="M102.326147,176.133663 C101.630779,174.221242 94.9101474,168.070926 94.5608842,166.021453 C94.2147789,163.972611 95.1406737,163.152821 94.6789895,161.650295 C94.2147789,160.147137 92.1286737,158.778505 91.5495158,156.729032 C90.9697263,154.680189 81.0027789,108.627347 79.2634105,101.930716 C77.5240421,95.2366105 75.5535158,92.3648211 75.0924632,89.2227158 C74.7552,86.9458737 73.5078316,75.9841895 71.2581474,64.1382947 C70.8425684,61.9644 70.3960421,59.7639789 69.9192,57.5780842 C69.9166737,57.5686105 69.9135158,57.5660842 69.9135158,57.5660842 C69.6975158,56.5915579 69.4764632,55.6170316 69.2459368,54.6545053 C68.9301474,53.3130316 68.5992,51.9860842 68.2530947,50.6869263 C64.0815158,34.9707158 58.4017263,27.7271368 58.0556211,22.3997684 C57.7069895,17.0686105 55.7364632,3.54145263 55.7364632,3.54145263 L36.4297263,3.54145263 C36.4095158,1.58987368 36.3829895,0.471978947 36.3829895,0.471978947 L20.3895158,0.471978947 C20.3895158,9.41703158 11.3503579,25.6789263 8.91625263,30.8711368 C6.48277895,36.0646105 2.07814737,46.4496632 6.0192,80.3401895 C5.43941053,88.1294526 5.78677895,91.9555579 5.78677895,91.9555579 C5.78677895,91.9555579 3.00593684,98.1052421 2.31056842,113.957242 C1.6152,129.808611 6.48277895,161.102716 6.48277895,161.102716 C6.48277895,161.102716 4.85962105,161.649032 4.62846316,163.835558 C4.39604211,166.022084 4.16488421,168.071558 4.16488421,168.071558 C4.16488421,168.071558 0.9192,174.494716 0.340042105,176.134295 C-0.239747368,177.774505 6.25035789,180.917242 7.40930526,180.917242 C8.56825263,180.917242 9.95898947,182.967347 12.5093053,182.693874 C15.0583579,182.4204 16.4490947,179.004189 16.6815158,177.910926 C16.9126737,176.817663 16.9126737,174.084821 17.4924632,171.898295 C18.0716211,169.711768 17.8398316,168.208611 16.9126737,166.022084 C15.9855158,163.835558 15.4063579,163.289242 15.1745684,162.468821 C14.9427789,161.649032 15.7537263,160.009453 15.4063579,158.369874 C15.0583579,156.729663 14.7109895,158.506295 14.2474105,154.269663 C13.7838316,150.033663 16.5653053,129.398716 19.8103579,119.969874 C23.0554105,110.541032 26.0686737,101.931347 22.8236211,87.5825053 C23.1709895,85.6694526 22.9392,83.2100842 22.9392,83.2100842 C22.9392,83.2100842 32.5587789,65.5814526 34.7604632,45.2199789 C34.7636211,45.1915579 34.7667789,45.1625053 34.7699368,45.1334526 C34.8015158,45.1467158 34.8318316,45.1618737 34.8640421,45.1745053 L35.5455158,45.4429263 C35.7501474,45.5237684 35.9598316,45.5749263 36.1695158,45.6039789 C36.1695158,45.6052421 36.1695158,45.6065053 36.1701474,45.6071368 C36.3564632,46.7111368 36.5781474,47.8934526 36.8408842,49.1547158 C36.8503579,49.1995579 36.8585684,49.2425053 36.8680421,49.2879789 C36.9166737,49.5185053 36.9678316,49.7547158 37.0189895,49.9902947 C37.0436211,50.1052421 37.0676211,50.2176632 37.0928842,50.3332421 C37.1396211,50.5448211 37.1888842,50.7608211 37.2375158,50.9761895 C37.2709895,51.1214526 37.3032,51.2654526 37.3373053,51.4126105 C37.3846737,51.6172421 37.4339368,51.8250316 37.4832,52.0328211 C37.5223579,52.1976632 37.5615158,52.3618737 37.6019368,52.5286105 C37.6499368,52.7288211 37.7004632,52.9315579 37.7503579,53.1342947 C37.7958316,53.3168211 37.8413053,53.4993474 37.8880421,53.6837684 C37.9385684,53.8820842 37.9897263,54.0816632 38.0415158,54.2831368 C38.0926737,54.4782947 38.1438316,54.6753474 38.1962526,54.8742947 C38.2486737,55.0719789 38.3017263,55.2702947 38.3560421,55.4711368 C38.4122526,55.6808211 38.4703579,55.8924 38.5290947,56.1058737 C38.5834105,56.3022947 38.6377263,56.4993474 38.6939368,56.6989263 C38.7564632,56.9218737 38.8208842,57.1473474 38.8859368,57.3734526 C38.9421474,57.5705053 38.9983579,57.7675579 39.0570947,57.9671368 C39.1265684,58.2046105 39.1979368,58.4465053 39.2699368,58.6871368 C39.3274105,58.8816632 39.3848842,59.0742947 39.4442526,59.2713474 C39.5232,59.5302947 39.6046737,59.7942947 39.6861474,60.0582947 C39.7436211,60.2433474 39.7998316,60.4265053 39.8579368,60.6140842 C39.9520421,60.9121895 40.0493053,61.2159789 40.1472,61.5197684 C40.1977263,61.6782947 40.2469895,61.8342947 40.2987789,61.9940842 C40.4503579,62.4614526 40.6057263,62.9338737 40.7667789,63.4126105 C41.3314105,65.0945053 41.9573053,66.8553474 42.6463579,68.6951368 C42.6823579,68.7949263 42.7189895,68.8953474 42.7587789,68.9989263 C43.2501474,70.3037684 43.7389895,71.5302947 44.2309895,72.6930316 L44.2309895,72.6961895 C45.1657263,74.9244 46.0947789,76.8949263 46.9992,78.6399789 C47.0023579,78.6431368 47.0023579,78.6462947 47.0023579,78.6494526 C52.6429895,89.5321895 57.3608842,91.5968211 57.3608842,91.5968211 C57.3608842,91.5968211 58.7509895,97.0947158 60.2566737,99.2376632 C61.1857263,105.348821 61.4162526,114.641242 63.3867789,120.105663 C65.3566737,125.573242 79.6126737,144.567979 81.8137263,151.810926 C84.0147789,159.051347 85.5236211,162.059558 84.7095158,164.518926 C83.8992,166.977663 83.4343579,168.343768 84.1328842,169.713032 C84.8282526,171.079137 84.5945684,172.308821 85.5236211,173.537874 C86.4488842,174.767558 85.7541474,180.420189 85.5236211,182.718505 C85.2893053,185.016189 90.6204632,186.655768 91.8949895,186.928611 C93.1701474,187.202084 95.7204632,184.384611 98.2707789,182.718505 C100.820463,181.054926 103.021516,178.046084 102.326147,176.133663" id="Fill-9" fill="#1F191A" mask="url(#mask-4)"></path>
                                </g>
                                <path d="M73.9485474,91.2278526 C72.3279158,96.9682737 72.7889684,105.577958 72.7889684,105.577958 L49.1464421,117.876063 L37.4439158,102.509116 C37.4439158,102.509116 36.7485474,83.0286947 31.4148632,75.2413263 C26.5485474,66.9057474 28.4394947,53.0590105 31.8032842,53.0590105 L41.6786526,53.0590105 L52.8045474,53.0590105 C52.8045474,53.0590105 61.1710737,53.4600632 67.5462316,53.6091158 C71.0376,53.6880632 73.9333895,53.6905895 74.5283368,53.5118526 C78.3171789,52.3762737 82.6403368,57.8861684 82.7584421,62.8042737 C82.8740211,67.7249053 75.5729684,85.4905895 73.9485474,91.2278526" id="Fill-12" fill="#1F191A"></path>
                                <path d="M48.7233474,89.3978526 C52.7692421,87.0401684 53.8606105,81.2182737 53.6989263,80.1509053 C47.3705053,84.4765895 35.9471368,88.2982737 35.9471368,88.2982737 L35.9780842,88.9683789 C36.1227158,89.8071158 36.2534526,90.6389053 36.3709263,91.4542737 C37.9561895,91.5199579 45.0854526,91.5180632 48.7233474,89.3978526" id="Fill-14" fill="#1B1416"></path>
                                <path d="M74.7451579,86.9055158 L56.1527368,81.6912 C56.1527368,81.6912 57.1809474,88.8981474 65.4666316,90.9280421 C69.582,91.9360421 72.1411579,91.8495158 73.9468421,91.2349895 C73.9474737,91.2330947 73.9481053,91.2305684 73.9487368,91.2280421 C74.2152632,90.2863579 74.6358947,89.0181474 75.1506316,87.5377263 L74.7451579,86.9055158 Z" id="Fill-16" fill="#1B1416"></path>
                                <path d="M39.4075579,61.8674526 C34.7060842,61.8674526 29.1387158,63.8348211 27.7776632,78.2645053 C26.4166105,92.6935579 42.2528211,90.4634526 46.2121895,89.6765053 C50.1709263,88.8895579 55.9865053,85.2169263 54.2540842,72.2304 C52.5222947,59.2438737 39.4075579,61.8674526 39.4075579,61.8674526" id="Fill-18" fill="#1F191A"></path>
                                <path d="M65.3979158,90.1808842 C62.0158105,89.3901474 55.1290737,88.2128842 53.7680211,73.7838316 C52.4076,59.3541474 68.2438105,61.5842526 72.2025474,62.3712 C76.1619158,63.1581474 81.9768632,66.8314105 80.2444421,79.8179368 C78.5126526,92.8044632 68.7806526,90.9709895 65.3979158,90.1808842" id="Fill-20" fill="#1F191A"></path>
                                <path d="M61.8649895,125.277916 C61.9344632,125.684021 62.1454105,126.080653 62.9481474,126.040232 C63.7502526,126.000442 65.3955158,124.274968 65.8767789,123.793705 C66.3580421,123.312442 68.7656211,121.266126 69.0864632,121.225705 C69.4073053,121.185916 70.6913053,122.071389 71.2527789,123.634547 C71.8142526,125.197705 72.7774105,127.216232 74.6633053,127.852232 C76.5485684,128.4876 70.3300421,117.575179 70.3300421,117.575179 L61.8649895,125.277916 Z" id="Fill-22" fill="#1B1416"></path>
                                <path d="M63.8306526,106.007053 C64.1514947,106.823053 63.6304421,107.179895 64.4325474,107.382632 C65.2352842,107.585368 67.5216,108.949579 67.8430737,109.230632 C68.1639158,109.511053 69.8085474,115.609579 69.8085474,115.609579 L73.5399158,112.800947 C73.5399158,112.800947 70.6106526,106.943053 70.4906526,106.943053 C70.3700211,106.943053 63.8306526,106.007053 63.8306526,106.007053" id="Fill-24" fill="#1B1416"></path>
                                <path d="M70.4909053,53.5122947 C70.4909053,53.5122947 80.4793263,52.5554526 83.0770105,55.9722947 C85.6753263,59.3885053 86.4041684,63.3516632 87.2542737,65.4011368 C88.1050105,67.4512421 93.0850105,80.0316632 95.0290105,86.9967158 C96.9723789,93.9617684 99.6092211,98.5577684 99.7172211,99.7880842 C99.8258526,101.017768 99.7513263,103.871242 99.0218526,104.890611 C98.2936421,105.909347 83.9877474,120.199453 83.0144842,121.976084 C82.0418526,123.752084 81.4311158,129.565768 76.2698526,129.051032 C71.1092211,128.535032 71.9593263,119.789558 70.0153263,120.063032 C68.0719579,120.335874 61.7549053,126.485558 61.3911158,125.802189 C61.0266947,125.118821 61.1479579,117.329558 60.9048,115.8264 C60.6616421,114.323242 67.4643789,111.5904 68.0719579,111.453347 C68.6795368,111.316926 70.1365895,112.136716 70.1365895,112.136716 C70.1365895,112.136716 69.8321684,109.144926 69.2864842,108.310611 C68.7414316,107.475663 65.2778526,106.807453 64.1845895,106.397558 C63.0913263,105.987032 62.7275368,104.484505 65.3991158,105.030821 C68.0719579,105.577768 69.8940632,106.397558 71.2298526,105.987032 C72.5662737,105.577768 73.6595368,108.856926 74.3883789,110.907032 C75.1172211,112.956505 77.1824842,118.422821 77.1824842,118.422821 C77.1824842,118.422821 80.5993263,112.956505 81.8069053,110.497137 C83.0132211,108.037137 87.5075368,98.1977684 88.9652211,98.0613474 C87.1431158,97.2415579 80.4610105,87.5392421 79.1170105,85.4891368 C77.7730105,83.4396632 75.7146947,76.3337684 73.6494316,71.8242947 C71.5841684,67.3148211 70.4909053,53.5122947 70.4909053,53.5122947" id="Fill-26" fill="#1F191A"></path>
                                <path d="M70.35,53.8243579 C70.8855789,53.6904632 76.3550526,53.9677263 78.6552632,54.5696211 C80.9554737,55.1721474 82.5887368,55.3729895 82.2401053,55.8409895 C80.5588421,56.5098316 78.8137895,58.6369895 78.5466316,60.3833053 C78.2788421,62.1302526 67.7744211,58.8940421 67.7744211,58.8940421 L67.5464211,53.6089895 L70.35,53.8243579 Z" id="Fill-28" fill="#251F20"></path>
                                <path d="M35.7340421,112.078611 C35.7340421,112.078611 36.5721474,116.025347 37.6856211,116.227453 C38.7984632,116.430189 39.5070947,116.531242 40.0129895,115.316716 C40.5188842,114.102821 42.2481474,109.614189 42.8462526,109.3464 C43.4443579,109.078611 46.7784632,107.828716 46.7784632,107.828716 C46.7784632,107.828716 49.6262526,109.042611 50.3342526,109.144295 C51.0428842,109.245347 50.8401474,107.423874 50.8401474,107.423874 L47.3999368,106.007242 L41.1049895,106.007242 L35.7340421,112.078611 Z" id="Fill-30" fill="#1B1416"></path>
                                <path d="M42.7061053,99.0072632 C42.7061053,98.9213684 46.0061053,96.3287368 46.2202105,96.3072632 C46.4343158,96.2857895 48.0631579,96.7784211 48.3416842,96.7998947 C48.6202105,96.8213684 49.5568421,97.2230526 50.1385263,97.4188421 C50.7202105,97.614 51.6416842,97.0146316 51.4275789,96.6716842 C51.2134737,96.3287368 46.4987368,94.7213684 46.4987368,94.7213684 L43.3004211,96.2857895 L41.2705263,98.7716842 L42.7061053,99.0072632 Z" id="Fill-32" fill="#1B1416"></path>
                                <path d="M37.2676421,53.3889474 C32.8150105,52.542 26.7284842,53.1186316 23.9754316,57.5668421 C21.2217474,62.0150526 19.3377474,66.5024211 17.8889053,69.3274737 C16.4394316,72.1525263 8.46953684,84.7247368 5.42595789,91.2356842 C2.38301053,97.7472632 0.933536842,101.570211 0.354378947,104.063053 C-0.225410526,106.555895 -0.225410526,108.384316 1.36869474,108.716526 C2.9628,109.048737 22.0914316,112.040526 24.5545895,112.372737 C27.0183789,112.704947 32.5200632,111.375474 33.5369053,112.372737 C34.5537474,113.37 37.3074316,115.530632 38.7562737,114.201158 C40.2057474,112.871684 41.8434316,107.308105 43.1255368,107.347895 C44.4082737,107.387053 50.3628,108.384316 51.3708,107.719263 C52.3781684,107.054211 52.1021684,107.220316 51.3708,104.727474 C50.6394316,102.234632 51.2192211,97.4150526 49.6251158,97.0828421 C48.0310105,96.75 42.9588,96.9161053 42.9588,96.9161053 C42.9588,96.9161053 46.1470105,94.5337895 46.7268,95.1432632 C47.3065895,95.7533684 50.5080632,96.75 51.3708,97.0828421 C52.2335368,97.4150526 51.8015368,95.6036842 49.9162737,94.6809474 C48.0310105,93.7582105 45.7124842,93.0937895 44.2630105,93.5927368 C42.8141684,94.0910526 40.4956421,96.5838947 39.7705895,97.5811579 C39.0461684,98.5784211 35.1335368,105.577579 35.1335368,105.577579 C35.1335368,105.577579 26.0040632,102.068526 24.1200632,101.071263 C22.2360632,100.074 16.8840632,97.5483158 15.8697474,97.7150526 C19.0573263,95.2215789 20.3615368,91.3992632 21.2312211,89.9036842 C22.1009053,88.4074737 25.5790105,80.9289474 26.0135368,78.9344211 C28.3320632,77.2721053 34.2379579,72.6571579 35.4108,73.9013684 C36.5830105,75.1443158 37.2676421,53.3889474 37.2676421,53.3889474" id="Fill-34" fill="#1F191A"></path>
                                <path d="M31.2442105,53.0586316 C27.0012632,54.6653684 25.0218947,56.4432632 25.4905263,57.1790526 C25.9585263,57.9148421 27.6315789,56.778 31.7797895,59.5878947 C35.928,62.3977895 36.396,62.9327368 36.396,62.9327368 C36.396,62.9327368 35.5932632,58.9367368 36.396,58.8937895 C37.1987368,58.8514737 39.0726316,62.9327368 39.0726316,62.9327368 L38.4701053,57.4468421 L31.2442105,53.0586316 Z" id="Fill-36" fill="#251F20"></path>
                                <path d="M59.4164211,47.7620842 L59.4164211,58.8936632 L48.7231579,58.8936632 L48.7231579,47.7620842 C51.3006316,50.4210316 53.5269474,51.7966105 54.0701053,51.7966105 C54.6132632,51.7966105 56.8389474,50.4210316 59.4164211,47.7620842" id="Fill-38" fill="#FBC29C"></path>
                                <path d="M63.6940421,61.9658526 C55.6755158,70.5786947 54.3908842,82.2161684 54.3908842,82.2161684 C54.3908842,82.2161684 53.1081474,70.5786947 45.0870947,61.9658526 C43.8580421,60.5694316 43.8403579,56.7578526 45.0586737,53.0593263 C50.3847789,50.6511158 54.5683579,50.7976421 54.5683579,50.7976421 C54.5683579,50.7976421 59.0367789,51.3572211 63.8658316,53.5134316 C64.9388842,57.0635368 64.8725684,60.6269053 63.6940421,61.9658526" id="Fill-40" fill="#FBC29C"></path>
                                <path d="M59.4164211,37.5924 L59.4164211,48.8067158 C56.8389474,51.4656632 54.6132632,52.8412421 54.0701053,52.8412421 C53.5269474,52.8412421 51.3006316,51.4656632 48.7231579,48.8067158 L48.7231579,37.5924 L59.4164211,37.5924 Z" id="Fill-42" fill="#CA916B"></path>
                                <path d="M68.3630526,11.7688421 C67.2066316,4.896 63.2933684,3.37831579 54.0691579,3.37831579 C44.8455789,3.37831579 40.9323158,4.896 39.7758947,11.7688421 C39.4083158,13.9433684 39.3186316,16.3503158 39.4234737,18.9189474 C39.5283158,21.5090526 39.834,24.2633684 40.2533684,27.1111579 C40.3304211,27.6315789 40.4182105,28.1450526 40.5161053,28.6484211 C40.6657895,29.4246316 40.8382105,30.1812632 41.0314737,30.9164211 C44.2253684,43.068 52.9506316,49.5978947 54.0691579,49.5978947 C55.1883158,49.5978947 63.9135789,43.068 67.1074737,30.9164211 C67.3001053,30.1812632 67.4725263,29.4246316 67.6228421,28.6484211 C67.7201053,28.1450526 67.8085263,27.6315789 67.8849474,27.1111579 C68.3049474,24.2633684 68.6106316,21.5090526 68.7154737,18.9189474 C68.8203158,16.3503158 68.7306316,13.9433684 68.3630526,11.7688421" id="Fill-44" fill="#FBC29C"></path>
                                <path d="M68.3630526,11.7688421 L54.0691579,4.968 L39.7758947,11.7688421 C39.4083158,13.9433684 39.3186316,16.3503158 39.4234737,18.9189474 C39.5283158,21.5090526 39.834,24.2633684 40.2533684,27.1111579 C40.3304211,27.6315789 40.4182105,28.1450526 40.5161053,28.6484211 C40.6657895,29.4246316 40.8382105,30.1812632 41.0314737,30.9164211 C42.0192632,31.5473684 43.2697895,32.0077895 44.8102105,32.0077895 C49.7093684,32.0077895 51.1582105,29.8231579 51.8257895,28.9983158 C52.4946316,28.1753684 53.5537895,26.5591579 54.0691579,26.5591579 C54.5851579,26.5591579 55.6436842,28.1753684 56.3131579,28.9983158 C56.9801053,29.8231579 58.4289474,32.0077895 63.3287368,32.0077895 C64.8691579,32.0077895 66.1196842,31.5473684 67.1074737,30.9164211 C67.3001053,30.1812632 67.4725263,29.4246316 67.6228421,28.6484211 C67.7201053,28.1450526 67.8085263,27.6315789 67.8849474,27.1111579 C68.3049474,24.2633684 68.6106316,21.5090526 68.7154737,18.9189474 C68.8203158,16.3503158 68.7306316,13.9433684 68.3630526,11.7688421" id="Fill-46" fill="#1F191A"></path>
                                <path d="M52.0206316,24.4701474 C52.0206316,26.1798316 48.6246316,30.2023579 45.0050526,30.2023579 C43.2170526,30.2023579 41.6463158,29.4286737 40.5157895,28.6486737 C40.4185263,28.1453053 40.3307368,27.6318316 40.2536842,27.1114105 C39.8336842,24.2636211 39.528,21.5093053 39.4231579,18.9185684 C39.624,18.0659368 39.8753684,17.5013053 40.1861053,17.5013053 C46.6471579,17.6933053 52.0206316,24.4701474 52.0206316,24.4701474" id="Fill-48" fill="#F1F2F2"></path>
                                <path d="M56.1181895,24.4701474 C56.1181895,26.1798316 59.5141895,30.2023579 63.1337684,30.2023579 C64.9217684,30.2023579 66.4925053,29.4286737 67.6230316,28.6486737 C67.7202947,28.1453053 67.8080842,27.6318316 67.8851368,27.1114105 C68.3051368,24.2636211 68.6108211,21.5093053 68.7156632,18.9185684 C68.5148211,18.0659368 68.2634526,17.5013053 67.9527158,17.5013053 C61.4916632,17.6933053 56.1181895,24.4701474 56.1181895,24.4701474" id="Fill-50" fill="#F1F2F2"></path>
                                <path d="M56.6628,32.7327789 C56.5510105,32.4372 54.9726947,30.8822526 54.2905895,30.8822526 C53.6091158,30.8822526 51.5312211,32.5483579 51.4200632,32.8439368 C51.3082737,33.1395158 53.5011158,33.1338394 54.0695368,33.1338394 C54.6379579,33.1338394 56.7745895,33.0283579 56.6628,32.7327789" id="Fill-52" fill="#CA916B"></path>
                                <path d="M55.5162316,36.8818737 C55.1581263,36.8818737 54.2884421,37.6719789 54.0692842,37.6719789 C53.8507579,37.6719789 52.9810737,36.8818737 52.6223368,36.8818737 C52.2648632,36.8818737 49.5086526,38.0812421 47.5646526,37.5052421 C48.5871789,38.4627158 48.3585474,39.2534526 49.5023368,40.3782947 C50.9846526,41.9888211 54.0692842,41.9598036 54.0692842,41.9598036 C54.0692842,41.9598036 57.1539158,41.9888211 58.6368632,40.3782947 C59.7800211,39.2534526 59.5513895,38.4627158 60.5745474,37.5052421 C58.6299158,38.0812421 55.8743368,36.8818737 55.5162316,36.8818737" id="Fill-54" fill="#DE1829"></path>
                                <path d="M57.2296421,39.2049474 L54.0692211,39.2049474 L50.9094316,39.2049474 C50.7041684,39.2049474 50.8576421,39.5883158 51.7014316,39.8270526 C52.2572211,39.9849474 53.3751158,40.0171579 54.0692211,40.0209474 C54.7633263,40.0171579 55.8812211,39.9849474 56.4376421,39.8270526 C57.2814316,39.5883158 57.4349053,39.2049474 57.2296421,39.2049474" id="Fill-56" fill="#FBB4BA"></path>
                                <path d="M35.52,50.5483579 L30.4781053,48.0409895 C29.8642105,50.4283579 29.6242105,51.3738316 28.7722105,53.8534105 C28.7722105,53.8534105 30.4818947,53.6696211 32.5724211,55.7430947 C33.1743158,56.3405684 34.6938947,58.3199368 35.52,58.0856211 C36.3461053,57.8506737 35.52,50.5483579 35.52,50.5483579" id="Fill-58" fill="#6D6E72"></path>
                                <path d="M58.0122947,64.8850105 C55.9634526,68.9833263 55.1285053,73.8408 55.0148211,75.9679579 C54.1798737,69.5953263 50.5369263,66.3648 50.5369263,66.3648 C51.2253474,68.6789053 51.5910316,70.7454316 51.7325053,72.5871158 C53.9120842,77.9031158 54.3908211,82.2161684 54.3908211,82.2161684 C54.3908211,82.2161684 54.9567158,77.1060632 57.6699789,71.1528 C57.6693474,69.4608 57.7577684,67.3848 58.0122947,64.8850105" id="Fill-64" fill="#CA916B"></path>
                                <path d="M61.2707368,1.01627368 C61.2707368,1.01627368 56.3418947,-1.97993684 46.8088421,2.31795789 C37.2770526,6.61585263 34.4526316,20.2150105 33.9069474,24.9689053 C33.5450526,28.1255368 23.736,37.7798526 22.3395789,60.3834316 C22.8492632,59.4531158 23.3911579,58.5095368 23.9753684,57.5672211 C26.0570526,54.2034316 30.0435789,53.0545895 33.7894737,53.0596421 L36.0726316,51.3569053 C37.1646316,35.5371158 39.1976842,30.6221684 46.8088421,24.9701684 C55.4197895,18.5748 60.4301053,10.6428 60.4301053,10.6428 C60.4301053,10.6428 62.9052632,8.03185263 63.1212632,5.80616842 C63.3366316,3.58048421 61.2707368,1.01627368 61.2707368,1.01627368" id="Fill-66" fill="#6D6E72"></path>
                                <path d="M41.1317684,65.5517684 C36.7056632,64.5121895 31.6138737,70.7591368 29.7924,74.0761895 C31.4149263,77.6079789 38.2928211,78.1258737 38.2928211,78.1258737 C38.2928211,78.1258737 49.3416632,77.0894526 50.5372421,76.4029263 C47.8044,72.2010316 45.7145053,66.6286105 41.1317684,65.5517684" id="Fill-68" fill="#251F20"></path>
                                <path d="M67.5781895,65.5517684 C72.0693474,64.5121895 77.2350316,70.7591368 79.0830316,74.0761895 C77.4371368,77.6079789 70.4588211,78.1258737 70.4588211,78.1258737 C70.4588211,78.1258737 59.2489263,77.0894526 58.0362947,76.4029263 C60.8082947,72.2010316 62.9285053,66.6286105 67.5781895,65.5517684" id="Fill-70" fill="#251F20"></path>
                                <path d="M56.6628,15.6289895 C42.7055368,31.2858316 33.9588,24.5481474 34.2682737,51.3946737 C34.2682737,59.1946737 39.4390105,67.3780421 42.7914316,69.4054105 C39.8577474,65.2085684 37.6225895,60.9586737 37.6225895,58.9856211 C39.8577474,62.6285684 41.9748,62.6285684 41.9748,62.6285684 C41.9748,62.6285684 36.6783789,51.8209895 37.1716421,45.6283579 C38.6413263,27.1692 50.7221684,24.0403579 56.6628,15.6289895" id="Fill-72" fill="#3F3E40"></path>
                                <path d="M66.3245684,27.9130105 C63.0510947,41.5033263 64.0515158,52.2685895 66.2336211,58.7706947 C66.9959368,61.0431158 68.0633053,64.4328 69.1287789,67.8843789 C69.6479368,66.0117474 67.3995158,59.8121684 68.9430947,54.5605895 C70.2441474,54.5605895 71.4744632,63.7728 72.2993053,63.7873263 C71.6405684,60.3597474 73.1260421,57.3458526 71.8710947,53.6593263 C74.0418316,53.6593263 77.0532,53.6757474 82.2403579,55.1757474 C81.2689895,52.7580632 75.3125684,45.0035368 74.0999368,36.9029053 C72.8866737,28.8022737 73.3723579,19.4485895 69.1287789,10.5648 C64.8845684,1.68164211 61.2706737,1.01658947 61.2706737,1.01658947 C61.2706737,1.01658947 63.3365684,3.58016842 63.1212,5.80648421 C62.9052,8.03153684 60.4300421,10.6424842 60.4300421,10.6424842 C63.3858316,11.4951158 67.5978316,22.1574316 66.3245684,27.9130105" id="Fill-74" fill="#3F3E40"></path>
                                <path d="M75.7242947,53.8241053 C75.7242947,53.8241053 72.9592421,52.6133684 71.1731368,47.8632632 C69.3876632,43.1131579 70.1575579,33.2295789 70.1575579,33.2295789 C70.1575579,33.2295789 68.5255579,38.6302105 69.6958737,44.7855789 C70.8655579,50.9409474 71.8710316,53.6592632 71.8710316,53.6592632 C72.8550316,53.6592632 74.2211368,53.5651579 75.7242947,53.8241053 Z" id="Fill-76" fill="#6D6E72"></path>
                                <path d="M41.4636,96.5413895 C41.6821263,96.5413895 42.5549684,96.0557053 42.9939158,95.7399158 C43.4328632,95.4241263 45.1242316,94.0277053 45.4614947,94.0643368 C45.7987579,94.1003368 49.5111789,94.9220211 50.0587579,95.3856 C50.6076,95.8491789 50.8722316,95.1860211 50.2690737,94.8740211 C49.6659158,94.5620211 46.4006526,93.1839158 44.7156,93.4782316 C43.0299158,93.7725474 41.0549684,95.9218105 41.1320211,96.1043368 C41.2084421,96.2862316 41.4636,96.5413895 41.4636,96.5413895" id="Fill-78" fill="#251F20"></path>
                                <path d="M63.6018316,105.082168 C63.6018316,105.082168 64.0369895,104.366589 65.0582526,104.459432 C66.0795158,104.552274 68.7264632,104.766379 68.7264632,104.766379 C68.7264632,104.766379 71.9734105,105.9228 72.3833053,106.505747 C72.7938316,107.088695 74.1738316,110.300905 74.1738316,110.300905 C74.1738316,110.300905 73.1361474,110.5788 71.9759368,108.591853 L70.8163579,106.604274 C70.8163579,106.604274 66.3119368,105.577958 65.9866737,105.577958 C65.6620421,105.577958 63.1647789,105.227432 63.6018316,105.082168" id="Fill-80" fill="#251F20"></path>
                                <path d="M73.0897263,114.621537 C72.8137263,114.997958 73.1838316,116.391221 72.9981474,116.671011 C72.8137263,116.950168 72.6735158,118.664905 72.3488842,119.084274 C72.0242526,119.503011 71.3257263,119.967221 71.3257263,119.967221 L70.0872,119.412063 C70.0354105,118.926379 69.8137263,118.459011 69.4164632,118.188695 C69.2250947,118.061116 68.9914105,117.970168 68.8909895,117.766168 C68.7728842,117.523642 68.9396211,117.189537 69.2036211,117.141537 C69.0703579,117.083432 69.0065684,116.928695 68.9977263,116.7828 C68.9850947,116.637537 69.0185684,116.491642 69.0154105,116.345747 C69.0097263,115.920695 68.7179368,115.559432 68.5695158,115.164695 C68.3263579,114.515432 68.4905684,113.732274 68.9762526,113.240274 C68.7634105,113.115853 68.5758316,112.9428 68.4722526,112.721116 C68.3686737,112.499432 68.3661474,112.223432 68.4968842,112.016905 C68.5695158,111.901326 68.6907789,111.813537 68.8215158,111.776905 C70.0019368,112.001747 72.8162526,113.091853 73.0897263,113.328695 C73.4143579,113.604695 73.3688842,114.245116 73.0897263,114.621537" id="Fill-82" fill="#251F20"></path>
                                <path d="M41.2702105,106.411958 C42.1714737,106.237011 43.4883158,105.059747 44.1546316,105.298484 C44.8215789,105.537853 45.2245263,105.037011 44.6674737,104.737642 C44.1110526,104.438274 42.4796842,103.983537 43.3007368,103.224379 C44.1217895,102.465221 45.2156842,102.466484 45.8718947,102.487958 C46.5274737,102.508168 45.9236842,101.410484 45.726,101.203958 C45.5276842,100.998063 45.3622105,99.6635368 45.4954737,99.3698526 C45.6287368,99.0755368 45.3255789,98.2658526 45.3255789,98.2658526 C45.3255789,98.2658526 45.69,97.7283789 44.7085263,97.9380632 C43.7270526,98.1483789 41.1293684,99.4803789 41.1293684,99.4803789 C41.1293684,99.4803789 40.7763158,97.4201684 40.4257895,97.8894316 C40.0752632,98.3593263 38.7047368,99.8839579 38.8045263,100.439116 C38.9043158,100.994905 38.6466316,101.728168 39.0009474,101.919537 C39.3552632,102.110905 39.4057895,103.173853 39.6078947,103.831326 C39.8106316,104.489432 40.6708421,104.793221 40.6708421,105.045853 C40.6708421,105.298484 40.8192632,106.499747 41.2702105,106.411958" id="Fill-84" fill="#251F20"></path>
                                <path d="M62.0120842,114.398274 C61.8699789,114.973642 61.6224,115.796589 62.0120842,116.586695 C61.4152421,117.902905 61.1285053,118.674695 61.8030316,119.114905 C61.3394526,120.757642 61.0249263,121.997432 61.8649263,122.522905 C61.1064,124.665221 60.7318737,122.973853 60.5550316,122.147747 C60.3781895,121.321011 61.0609263,119.893642 61.0609263,119.893642 C61.0609263,119.893642 60.4962947,119.293011 60.5253474,118.691747 C60.5550316,118.091116 61.2680842,116.586695 61.2680842,116.586695 C61.2680842,116.586695 60.7969263,115.237011 61.8649263,114.560589" id="Fill-86" fill="#1B1416"></path>
                                <path d="M91.8233684,100.441579 C90.4572632,100.744737 89.0911579,98.9011579 89.0911579,98.9011579 C89.0911579,98.9011579 88.9124211,98.4470526 88.4033684,98.4186316 C86.5875789,100.211684 82.8852632,108.298421 81.8065263,110.496947 C81.1515789,111.832105 79.8454737,114.052105 78.7882105,115.804105 C78.3050526,117.071684 78.0107368,117.875684 78.0107368,117.875684 C78.0107368,117.875684 86.6627368,108.748105 89.0911579,106.416316 C91.5195789,104.084526 96.3770526,101.200737 95.6178947,100.441579 C94.8593684,99.6824211 93.1894737,100.138421 91.8233684,100.441579" id="Fill-90" fill="#251F20"></path>
                                <path d="M16.4273684,97.7684842 L15.8696842,97.7148 C15.8696842,97.7148 14.1107368,99.8861684 12.0044211,100.866379 C9.89873684,101.846589 10.3705263,101.917958 15.0543158,102.118168 C19.7387368,102.318379 34.1898947,107.946379 34.1898947,107.946379 L35.1334737,105.577326 C35.1334737,105.577326 26.004,102.068905 24.12,101.071011 C22.4677895,100.196905 18.1496842,98.1480632 16.4273684,97.7684842" id="Fill-92" fill="#251F20"></path>
                                <path d="M16.2867789,73.5507158 C15.8244632,74.2132421 9.56109474,84.8180842 9.25035789,85.4679789 C8.18804211,87.6911368 14.0516211,80.5966105 15.3981474,79.2721895 C17.3446737,77.3559789 20.0086737,77.2435579 19.7333053,75.5894526 C19.4573053,73.9347158 17.2872,72.1182947 16.2867789,73.5507158" id="Fill-94" fill="#251F20"></path>
                            </g>
                        </g>
                    </g>
                </g>
            </g>
        </g>
    </g>
</svg>