<?xml version="1.0" encoding="UTF-8"?>
<svg width="120px" height="120px" viewBox="0 0 120 120" version="1.1" xmlns="http://www.w3.org/2000/svg" xmlns:xlink="http://www.w3.org/1999/xlink">
    <!-- Generator: sketchtool 52.5 (67469) - http://www.bohemiancoding.com/sketch -->
    <title>8E301370-5D48-45E9-9C29-B8E425CD121D</title>
    <desc>Created with sketchtool.</desc>
    <defs>
        <rect id="path-1" x="0" y="0" width="150" height="120"></rect>
        <polygon id="path-3" points="67.5454699 0.0455273437 0 0.0455273437 0 102.799598 67.5454699 102.799598 67.5454699 0.0455273438"></polygon>
        <polygon id="path-5" points="0.592481928 0.0455273437 51.6416386 0.0455273437 51.6416386 77.853998 0.592481928 77.853998"></polygon>
    </defs>
    <g id="Advanced-Tools" stroke="none" stroke-width="1" fill="none" fill-rule="evenodd">
        <g id="Advanced-Tools---301-Redirects---Add-Modal" transform="translate(-730.000000, -495.000000)">
            <g id="Under">
                <g id="Body" transform="translate(410.000000, 132.000000)">
                    <g id="Graphic-/-URL-Redirection---None" transform="translate(305.000000, 363.000000)">
                        <g id="graphic-urlredirection-none" transform="translate(75.000000, 60.000000) scale(-1, 1) translate(-75.000000, -60.000000) ">
                            <mask id="mask-2" fill="white">
                                <use xlink:href="#path-1"></use>
                            </mask>
                            <g id="Mask"></g>
                            <g id="graphic" mask="url(#mask-2)">
                                <g transform="translate(75.000000, 185.000000) scale(-1, 1) translate(-75.000000, -185.000000) translate(15.000000, 0.000000)">
                                    <g id="Group-6" stroke-width="1" fill="none" transform="translate(0.000000, 0.677129)">
                                        <mask id="mask-4" fill="white">
                                            <use xlink:href="#path-3"></use>
                                        </mask>
                                        <g id="Clip-5"></g>
                                        <path d="M67.5454699,1.07032617 C63.2673976,0.731400391 53.2604096,-3.9615293 42.1618554,10.0298184 C31.0625783,24.021166 32.624747,41.0512832 27.1907711,48.1542715 C21.7560723,55.2572598 13.4478795,59.9285098 13.3546265,77.9349355 C13.291012,90.1962441 0.672939759,93.3874941 -7.22891566e-05,102.164877 C1.19992771,98.8970254 35.8835422,89.3818105 27.8008916,77.5634902 C26.9399277,76.3053457 33.8066747,103.959232 34.824506,102.761791 C43.4543855,92.6048574 54.3808916,83.2052676 54.3808916,83.2052676 L67.5454699,1.07032617 Z" id="Fill-4" fill="#3F3E40" mask="url(#mask-4)"></path>
                                    </g>
                                    <path d="M16.5491566,145.399377 C16.5491566,145.399377 20.0204819,148.508244 21.6455422,148.177268 C23.2713253,147.845568 30.2436145,144.933986 32.1346988,140.819904 C34.0250602,136.705822 31.2845783,134.746701 30.153253,131.921838 C29.0233735,129.096252 21.7568675,111.058029 18.4546988,107.536525 C21.7575904,106.328967 29.22,96.7104121 29.22,96.7104121 L37.0366265,76.0980879 C37.0366265,76.0980879 37.053253,69.7611152 32.0327711,73.617209 C27.0122892,77.4733027 15.9975904,88.9649824 11.793253,95.241252 C10.7877108,96.7414863 5.83590361,105.737834 5.0826506,106.537814 C4.33012048,107.337795 5.07325301,109.352561 5.27349398,110.0109 C5.47445783,110.669963 8.31903614,114.468244 11.8033735,118.441408 C15.2862651,122.415295 23.4607229,131.999162 24.5407229,132.999318 C25.6207229,133.999475 27.0462651,136.30258 27.0462651,136.30258 C27.0462651,136.30258 25.486988,136.076389 24.7445783,136.878537 C24.0014458,137.681408 22.9749398,137.810041 22.4219277,138.157639 C21.8689157,138.505959 22.1992771,139.80385 22.1992771,139.80385 C22.1992771,139.80385 21.2537349,140.751975 20.6920482,140.295979 C20.1310843,139.840705 19.5115663,138.765393 19.286747,139.307385 C19.0619277,139.849377 19.1277108,141.2759 19.3221687,142.235588 C18.4380723,141.288908 17.7375904,141.622775 17.7795181,142.57885 C17.8228916,143.534924 17.9262651,144.267697 17.9262651,144.267697 C17.9262651,144.267697 15.9159036,143.817482 16.5491566,145.399377" id="Fill-7" fill="#1F191A"></path>
                                    <path d="M19.9998072,117.921529 C19.9998072,117.921529 21.4275181,107.460357 17.0496867,100.040846 C14.1371566,95.1036582 13.7352289,89.9193223 16.4959518,78.5309824 C19.2573976,67.1426426 28.6029398,56.5730723 28.6029398,56.5730723 L38.7226988,38.1814707 L41.0872771,35.0314121 L52.9123373,55.9479746 L54.0458313,66.996666 L23.9843855,96.8944004 C23.9843855,96.8944004 28.8530602,106.57149 19.9998072,117.921529" id="Fill-9" fill="#3F3E40"></path>
                                    <path d="M53.6608916,63.5857285 C53.6608916,63.5857285 40.484747,65.426334 36.2073976,68.5409824 C31.9300482,71.6556309 27.558,76.894166 25.0820964,79.9524473 C22.6061928,83.0107285 15.9975181,88.9646934 15.9975181,88.9646934 C15.9975181,88.9646934 17.244506,102.374303 26.9225783,104.754732 C28.9698072,108.383189 29.7013735,119.329264 28.3235422,124.171783 C26.9457108,129.01358 14.3666747,143.907525 15.9281205,177.514654 C17.4895663,211.121783 24.398241,228.518287 24.398241,228.518287 C24.398241,228.518287 18.7900482,238.276314 22.0661928,272.139986 C25.3416145,306.003658 27.3801687,320.972037 27.5840241,323.069186 C27.7886024,325.167057 21.2290843,338.854889 20.824988,340.668033 C20.4208916,342.481178 20.2748675,348.492955 21.411253,351.768756 C22.5469157,355.043834 23.6948675,358.76985 24.8963133,358.738775 C26.097759,358.707701 37.611253,333.176256 37.611253,333.176256 C37.611253,333.176256 35.7086024,323.461588 35.331253,320.4669 C35.637759,314.901002 38.9269157,279.216959 41.078241,269.397506 C43.2295663,259.578775 46.898241,250.321549 42.9266747,236.15315 C40.8093253,229.748971 40.2700482,226.307682 40.8433012,225.241764 C41.4165542,224.175846 56.6283614,178.87108 56.2495663,164.159967 C55.871494,149.449576 53.6608916,63.5857285 53.6608916,63.5857285" id="Fill-11" fill="#1F191A"></path>
                                    <path d="M54.6873253,50.9417734 C54.6873253,50.9417734 52.9487711,65.1065586 51.9439518,66.9341563 C50.9384096,68.7631992 41.7114217,78.0428281 40.9668434,84.1304844 C40.2215422,90.2181406 40.3256386,100.429996 40.3256386,100.429996 L61.1376867,89.5301719 L72.6280482,70.7786875 L67.522988,39.7442148 L54.6873253,50.9417734 Z" id="Fill-13" fill="#FBC29C"></path>
                                    <path d="M43.4006024,93.7569883 C43.5140964,91.2609336 45.4174699,83.9187461 45.1536145,84.4332773 C44.5738554,85.9826523 42.563494,88.6824961 40.4627711,91.2457578 C40.2813253,96.0058945 40.3254217,100.429996 40.3254217,100.429996 L44.4842169,98.2519102 C43.8798795,96.6302695 43.3507229,94.8648203 43.4006024,93.7569883" id="Fill-15" fill="#CA916B"></path>
                                    <path d="M51.9440241,66.934373 C53.051494,69.5850762 52.2852289,72.0970293 56.1064337,71.2038262 C59.9276386,70.310623 71.2061928,58.1945684 73.1883614,51.8807207 C75.1698072,45.5661504 49.1059518,49.4836699 49.1059518,49.4836699 L51.9440241,66.934373 Z" id="Fill-17" fill="#CA916B"></path>
                                    <path d="M37.5151084,28.8516895 C37.5151084,28.8516895 40.5722169,42.5178418 46.0322169,50.3377051 C51.4922169,58.1590137 53.2054699,57.5888379 53.8835422,57.6466504 C54.5608916,57.7044629 69.2435422,50.1917285 72.6042651,43.570752 C75.9642651,36.950498 74.7852289,17.3780762 74.7852289,17.3780762 L61.8628193,11.5520215 L37.5151084,28.8516895 Z" id="Fill-19" fill="#FBC29C"></path>
                                    <path d="M40.4490361,37.3714453 C40.4490361,37.3714453 42.2606024,38.9511719 46.1107229,38.274043 C49.9608434,37.5969141 50.9251807,34.3333984 51.8403614,34.754707 C52.7540964,35.1760156 54.9046988,40.0712891 61.0160241,40.1666797 C67.1273494,40.2620703 72.6336145,36.5432812 74.0678313,31.845293 C75.5006024,27.1473047 70.3680723,14.4870898 70.3680723,14.4870898 L45.4687952,18.9581641 L40.4490361,37.3714453 Z" id="Fill-21" fill="#1F191A"></path>
                                    <path d="M54.0491566,33.5165078 C54.0491566,33.5165078 56.1296386,37.113168 60.406988,37.5807266 C64.6843373,38.0490078 71.5886747,32.4151797 72.4178313,29.5390078 C73.2477108,26.6628359 70.6033735,22.2502969 70.6033735,22.2502969 C70.6033735,22.2502969 63.8154217,23.9427578 54.0491566,33.5165078" id="Fill-23" fill="#D2D4D5"></path>
                                    <g id="Group-27" stroke-width="1" fill="none" transform="translate(15.903614, 0.677129)">
                                        <mask id="mask-6" fill="white">
                                            <use xlink:href="#path-5"></use>
                                        </mask>
                                        <g id="Clip-26"></g>
                                        <path d="M26.2580241,10.0298184 C23.1698313,13.9234902 21.0633253,18.0520254 19.512,22.1357559 C19.1975422,27.6134902 20.2023614,32.8195059 19.7895904,36.182748 C17.2544096,56.8268691 2.42212048,56.1605801 0.592481928,77.853998 C2.38163855,67.4007754 14.1206747,61.0919863 20.1170602,44.5200332 C23.2276627,35.9247598 28.5466988,37.8275137 41.5103133,26.4507363 C45.2057349,23.2074551 47.6144096,19.7517129 49.1736867,16.4665176 L51.6416386,1.07032617 C47.3635663,0.731400391 37.3573012,-3.9615293 26.2580241,10.0298184" id="Fill-25" fill="#6D6E72" mask="url(#mask-6)"></path>
                                    </g>
                                    <path d="M71.306747,147.850699 C71.306747,147.850699 60.186506,141.978395 63.9701205,125.507613 C67.753012,109.037555 75.6231325,111.227926 86.1614458,94.514332 C88.6322892,97.0840977 79.1971084,63.8852695 79.1971084,63.8852695 C79.1971084,63.8852695 58.333012,75.8127109 51.7778313,83.8522617 C45.2233735,91.8918125 40.3257831,100.429996 40.3257831,100.429996 L42.1828916,143.042145 L71.306747,147.850699 Z" id="Fill-28" fill="#1F191A"></path>
                                    <path d="M83.7300723,151.216977 C83.7300723,151.216977 77.1344096,153.905258 74.7466988,153.05975 C72.3597108,152.214242 62.7033253,146.833344 61.3905542,141.460395 C60.0770602,136.086723 65.0895904,134.548188 67.9493494,131.538324 C70.8091084,128.528461 93.8057349,109.026137 100.303084,105.805258 C95.6599518,103.45807 86.1611566,94.5144766 86.1611566,94.5144766 L79.1968193,63.8854141 C79.1968193,63.8854141 83.2095904,62.5513906 89.4727229,68.4981289 C95.7351325,74.4448672 113.033928,98.3127578 114.259229,100.278383 C115.485253,102.243285 118.893687,106.853832 119.745253,108.006469 C120.598265,109.159105 118.655855,111.323461 118.08694,112.042504 C117.518024,112.76227 111.620675,116.437699 104.666458,120.139867 C97.712241,123.842758 78.285253,133.503949 76.2199518,134.379086 C74.1546506,135.254223 71.0418795,137.566 71.0418795,137.566 C71.0418795,137.566 73.545253,137.736547 74.3816386,138.889906 C75.2180241,140.042543 76.7570602,140.481918 77.4763373,141.046312 C78.1956145,141.610707 77.1756145,143.045902 77.1756145,143.045902 C77.1756145,143.045902 78.2679036,144.427621 79.3160964,144.048227 C80.3635663,143.668832 81.7457349,142.576176 81.8809157,143.277875 C82.0168193,143.978852 81.3546506,145.640238 80.6765783,146.714828 C82.4173012,145.847641 83.372241,146.438051 82.9312771,147.551664 C82.4895904,148.664555 82.0406747,149.4985 82.0406747,149.4985 C82.0406747,149.4985 85.332,149.53102 83.7300723,151.216977" id="Fill-30" fill="#1F191A"></path>
                                    <path d="M62.7266747,18.3463633 C62.7266747,18.3463633 63.9939036,28.126793 68.3218554,31.9062852 C72.4076386,36.1150352 71.6572771,33.4838438 67.8526988,43.2534336 C61.8071566,58.7789805 64.8758313,73.1359922 64.8758313,73.1359922 C64.8758313,73.1359922 65.9565542,80.0930039 69.6425783,83.2278867 C68.1078795,76.132125 67.9228193,74.7850938 67.9343855,72.3063828 C69.5811325,80.8257773 73.3690843,87.8637266 83.277759,90.4623984 C77.5336627,83.3254453 76.4095663,77.5709336 76.2086024,75.623375 C76.0083614,73.6758164 78.8500482,65.5401523 79.7833012,62.6885508 C87.0584819,40.4423008 80.3796867,21.6655234 78.2861928,16.2369297 C76.1934217,10.8076133 72.1589639,2.93571875 67.5454699,1.74767188 C62.9319759,0.558902344 62.7266747,18.3463633 62.7266747,18.3463633" id="Fill-32" fill="#3F3E40"></path>
                                    <path d="M41.0123855,27.5496074 C41.0123855,27.5496074 35.835759,27.5618926 32.6405783,37.4131426 C27.9808193,51.7809941 21.1950361,57.3620684 17.7699759,58.5761309 C25.1506988,51.470252 31.9610602,31.0140215 35.415759,22.8133184 C41.389012,8.63624805 41.0123855,27.5496074 41.0123855,27.5496074" id="Fill-34" fill="#6D6E72"></path>
                                    <path d="M48.7418313,107.492443 C50.8765301,108.038771 60.7953253,110.262385 67.5290602,105.867912 C74.2635181,101.474162 73.537012,95.7182051 73.4885783,93.7012715 C73.4408675,91.6843379 75.0413494,96.2508027 73.2225542,100.953127 C71.403759,105.654729 68.9835181,109.709553 63.0088193,110.091838 C57.0355663,110.4734 46.6411084,106.954787 48.7418313,107.492443" id="Fill-40" fill="#3F3E40"></path>
                                    <path d="M26.9223614,104.754588 C26.9223614,104.754588 34.3775422,106.188338 38.2782651,104.462635 C39.072,103.744314 38.952,101.345818 38.585494,101.395682 C37.8879036,101.819881 34.738988,104.516111 26.9223614,104.754588" id="Fill-42" fill="#3F3E40"></path>
                                    <path d="M49.5099036,39.3291211 C49.5099036,39.3291211 48.3915904,38.1851562 48.813759,38.1251758 C49.2352048,38.0666406 52.8366506,39.2077148 53.034,39.2387891 C53.2313494,39.2691406 51.8925542,39.8559375 51.2238795,40.1637891 C50.5544819,40.470918 49.5099036,39.3291211 49.5099036,39.3291211" id="Fill-44" fill="#CA916B"></path>
                                    <path d="M46.5583373,45.3457402 C46.5583373,45.3457402 47.5819518,46.2288262 47.6860482,46.7260137 C47.7894217,47.2239238 47.4106265,49.7980254 50.4417108,50.0878105 C55.3508675,50.5582598 58.867012,46.9876152 59.7012289,46.2945879 C60.3084578,45.915916 61.4325542,44.8182012 61.8908675,44.6722246 C60.1154458,45.7049004 55.6899036,45.4057207 54.8050843,45.1332793 C54.1038795,44.9172051 53.2458072,44.0839824 52.254,44.3715996 C51.9915904,44.4482012 51.5947229,44.9555059 51.2997831,45.1824199 C50.8248434,44.8593926 50.700506,44.3390801 49.7282169,44.4713262 C49.2164096,44.5407012 48.5311084,45.2741973 46.5583373,45.3457402" id="Fill-46" fill="#DE1829"></path>
                                    <path d="M48.309759,46.8196699 C48.2078313,46.8644746 47.7842169,47.5329316 48.7261446,47.6384395 C49.6680723,47.7432246 52.9680723,47.8183809 55.5314458,47.090666 C56.9678313,46.718498 57.7796386,46.5913105 57.2851807,46.5884199 C56.7907229,46.586252 52.370241,46.6621309 52.0384337,46.7235566 C51.7059036,46.7857051 51.276506,46.8955488 51.0668675,46.9085566 C50.8572289,46.9215645 50.2854217,46.790041 49.8025301,46.7539082 C49.3203614,46.7170527 48.530241,46.722834 48.309759,46.8196699" id="Fill-48" fill="#FBB4BA"></path>
                                </g>
                            </g>
                        </g>
                    </g>
                </g>
            </g>
        </g>
    </g>
</svg>