<?xml version="1.0" encoding="UTF-8"?>
<svg width="100px" height="148px" viewBox="0 0 100 148" version="1.1" xmlns="http://www.w3.org/2000/svg" xmlns:xlink="http://www.w3.org/1999/xlink">
    <!-- Generator: sketchtool 52.5 (67469) - http://www.bohemiancoding.com/sketch -->
    <title>F855FF4D-59FD-4F20-8516-1E01D87B9646</title>
    <desc>Created with sketchtool.</desc>
    <defs>
        <rect id="path-1" x="0" y="0" width="100" height="148"></rect>
        <polygon id="path-3" points="63.0865637 202.4925 0.0831927711 202.4925 0.0831927711 0.321827237 63.0865637 0.321827237 63.0865637 202.4925"></polygon>
        <polygon id="path-5" points="56.2878916 0.0379673437 0 0.0379673437 0 85.7293079 56.2878916 85.7293079 56.2878916 0.0379673438"></polygon>
        <polygon id="path-7" points="0.49373494 0.0379673437 43.0346988 0.0379673437 43.0346988 64.926026 0.49373494 64.926026"></polygon>
    </defs>
    <g id="SEO-Checkup" stroke="none" stroke-width="1" fill="none" fill-rule="evenodd">
        <g id="SEO-Checkup-/-Checkup---In-Progress---Free" transform="translate(-410.000000, -586.000000)">
            <g id="Modal" transform="translate(380.000000, 291.000000)">
                <g id="Graphic-/-SEO-Checkup---Modal" transform="translate(30.000000, 295.000000)">
                    <g id="graphic-seocheckup-modal" transform="translate(50.000000, 74.000000) scale(-1, 1) translate(-50.000000, -74.000000) ">
                        <mask id="mask-2" fill="white">
                            <use xlink:href="#path-1"></use>
                        </mask>
                        <g id="Mask"></g>
                        <g id="graphic" mask="url(#mask-2)">
                            <g id="Group-3" transform="translate(34.337349, 106.029533)">
                                <mask id="mask-4" fill="white">
                                    <use xlink:href="#path-3"></use>
                                </mask>
                                <g id="Clip-2"></g>
                                <path d="M0.0831927711,9.14470594 C0.0831927711,9.14470594 0.316927711,37.6997644 8.17355422,60.7971678 C13.8121084,75.5592327 22.8693373,86.9096605 24.4012651,92.9157327 C25.9331928,98.9224075 25.5205422,107.201096 27.5422289,112.785912 C29.5639157,118.370727 36.2036747,133.106275 42.4813855,148.352876 C48.758494,163.599476 50.221747,166.943616 50.3789759,168.19232 C50.5368072,169.441023 50.5753614,170.943445 51.1271687,172.933416 C51.6789759,174.923387 51.3458434,176.560202 51.3078916,179.943514 C51.2699398,183.326826 53.2253614,200.939455 54.008494,202.171887 C54.7910241,203.404319 56.8536747,200.846043 58.1729518,198.557155 C59.4910241,196.268266 62.5392169,193.057916 62.9910241,191.167384 C63.4434337,189.276851 62.1940361,179.663279 61.238012,176.556586 C60.2813855,173.44929 59.7386145,171.834774 59.321747,170.217245 C58.9048795,168.599112 58.6157229,167.10332 57.5337952,163.99964 C56.4524699,160.89596 52.0777711,141.717028 51.1428313,129.715731 C50.2078916,117.713832 47.9024699,101.11246 43.4801807,94.7128536 C39.058494,88.3126442 38.1759639,88.0848402 37.8904217,86.7143998 C37.6048795,85.3433569 43.1548795,50.0005811 28.7398193,23.063052 C14.3253614,-3.87387437 0.854879518,-4.65431422 0.0831927711,9.14470594" id="Fill-1" fill="#1F191A" mask="url(#mask-4)"></path>
                            </g>
                            <g id="Group-6" transform="translate(0.000000, 0.564689)">
                                <mask id="mask-6" fill="white">
                                    <use xlink:href="#path-5"></use>
                                </mask>
                                <g id="Clip-5"></g>
                                <path d="M56.2878916,0.892594172 C52.7228313,0.609948391 44.3836747,-3.3037013 35.1348795,8.36432636 C25.8854819,20.032354 27.1872892,34.2345512 22.6589759,40.1580595 C18.1300602,46.0815678 11.2065663,49.9771378 11.1288554,64.9935235 C11.0758434,75.2187921 0.560783133,77.8801221 -6.02409639e-05,85.199985 C0.999939759,82.4747734 29.9029518,74.5395985 23.1674096,64.6837582 C22.4499398,63.6345337 28.1722289,86.6963804 29.0204217,85.697779 C36.211988,77.2274454 45.3174096,69.3886956 45.3174096,69.3886956 L56.2878916,0.892594172 Z" id="Fill-4" fill="#3F3E40" mask="url(#mask-6)"></path>
                            </g>
                            <path d="M13.7909639,121.255221 C13.7909639,121.255221 16.6837349,123.847848 18.0379518,123.571832 C19.3927711,123.295212 25.203012,120.86711 26.7789157,117.436188 C28.3542169,114.005266 26.0704819,112.371465 25.1277108,110.015682 C24.1861446,107.659296 18.1307229,92.6163933 15.3789157,89.6796494 C18.1313253,88.6726108 24.35,80.6512561 24.35,80.6512561 L30.8638554,63.4616919 C30.8638554,63.4616919 30.8777108,58.1769992 26.6939759,61.392773 C22.510241,64.6085467 13.3313253,74.1919864 9.82771084,79.426056 C8.98975904,80.6771703 4.86325301,88.179638 4.23554217,88.8467785 C3.60843373,89.5139189 4.22771084,91.1941245 4.39457831,91.7431444 C4.56204819,92.2927669 6.93253012,95.4603281 9.83614458,98.7737322 C12.7385542,102.087739 19.5506024,110.080166 20.4506024,110.914242 C21.3506024,111.748319 22.5385542,113.668984 22.5385542,113.668984 C22.5385542,113.668984 21.2391566,113.480353 20.6204819,114.149301 C20.0012048,114.818852 19.1457831,114.926125 18.6849398,115.216003 C18.2240964,115.506483 18.4993976,116.588854 18.4993976,116.588854 C18.4993976,116.588854 17.7114458,117.379539 17.2433735,116.999263 C16.7759036,116.619589 16.2596386,115.722837 16.0722892,116.174829 C15.8849398,116.626821 15.939759,117.816464 16.1018072,118.616792 C15.3650602,117.827312 14.7813253,118.105739 14.8162651,118.903054 C14.8524096,119.700368 14.9385542,120.311461 14.9385542,120.311461 C14.9385542,120.311461 13.263253,119.936006 13.7909639,121.255221" id="Fill-7" fill="#1F191A"></path>
                            <path d="M16.666506,98.3401813 C16.666506,98.3401813 17.8562651,89.6161294 14.2080723,83.4286577 C11.7809639,79.3113102 11.4460241,74.9878543 13.7466265,65.4905944 C16.0478313,55.9933346 23.8357831,47.1788843 23.8357831,47.1788843 L32.2689157,31.8412827 L34.2393976,29.2143041 L44.0936145,46.6575866 L45.0381928,55.871598 L19.986988,80.8046924 C19.986988,80.8046924 24.0442169,88.8748622 16.666506,98.3401813" id="Fill-9" fill="#3F3E40"></path>
                            <path d="M44.7174096,53.0270605 C44.7174096,53.0270605 33.7372892,54.562026 30.1728313,57.1594744 C26.6083735,59.7569229 22.965,64.125578 20.901747,66.6760193 C18.838494,69.2264605 13.3312651,74.1917454 13.3312651,74.1917454 C13.3312651,74.1917454 14.3704217,85.3746347 22.4354819,87.3597844 C24.141506,90.3857215 24.7511446,99.5141557 23.6029518,103.552555 C22.454759,107.590352 11.9722289,120.011097 13.2734337,148.037626 C14.5746386,176.064155 20.3318675,190.571899 20.3318675,190.571899 C20.3318675,190.571899 15.6583735,198.709566 18.388494,226.950038 C21.118012,255.19051 22.8168072,267.673329 22.9866867,269.422238 C23.1571687,271.171749 17.6909036,282.586661 17.3541566,284.098725 C17.0174096,285.61079 16.8957229,290.624287 17.8427108,293.356128 C18.7890964,296.087366 19.7457229,299.194662 20.7469277,299.168747 C21.7481325,299.142833 31.3427108,277.850988 31.3427108,277.850988 C31.3427108,277.850988 29.7571687,269.74948 29.4427108,267.252072 C29.6981325,262.610414 32.4390964,232.851851 34.2318675,224.662958 C36.0246386,216.474667 39.0818675,208.754641 35.7722289,196.938962 C34.0077711,191.598223 33.5583735,188.728374 34.0360843,187.839456 C34.5137952,186.950538 47.1903012,149.168812 46.8746386,136.900539 C46.5595783,124.632868 44.7174096,53.0270605 44.7174096,53.0270605" id="Fill-11" fill="#1F191A"></path>
                            <path d="M45.5727711,42.4826854 C45.5727711,42.4826854 44.1239759,54.2953506 43.2866265,55.8194682 C42.4486747,57.3447912 34.7595181,65.0835001 34.1390361,70.1602764 C33.5179518,75.2370526 33.6046988,83.7531881 33.6046988,83.7531881 L50.9480723,74.6633239 L60.5233735,59.0255995 L56.2691566,33.1445268 L45.5727711,42.4826854 Z" id="Fill-13" fill="#FBC29C"></path>
                            <path d="M36.1671687,78.1882603 C36.261747,76.1066856 37.8478916,69.9836981 37.628012,70.4127893 C37.1448795,71.7048843 35.4695783,73.9564081 33.7189759,76.0940298 C33.5677711,80.0637265 33.6045181,83.7531881 33.6045181,83.7531881 L37.0701807,81.9367822 C36.5665663,80.5844215 36.1256024,79.1121323 36.1671687,78.1882603" id="Fill-15" fill="#CA916B"></path>
                            <path d="M43.2866867,55.819649 C44.2095783,58.0301922 43.5710241,60.1250253 46.7553614,59.3801422 C49.9396988,58.635259 59.338494,48.5311244 60.9903012,43.2657167 C62.641506,37.9997064 40.9216265,41.2667059 40.9216265,41.2667059 L43.2866867,55.819649 Z" id="Fill-17" fill="#CA916B"></path>
                            <path d="M31.2625904,24.0607495 C31.2625904,24.0607495 33.8101807,35.4575818 38.3601807,41.9789251 C42.9101807,48.5014737 44.3378916,48.0259779 44.9029518,48.0741904 C45.4674096,48.1224029 57.7029518,41.8571885 60.5035542,36.335652 C63.3035542,30.814718 62.3210241,14.4923762 62.3210241,14.4923762 L51.5523494,9.63376148 L31.2625904,24.0607495 Z" id="Fill-19" fill="#FBC29C"></path>
                            <path d="M33.7075301,31.1657653 C33.7075301,31.1657653 35.2171687,32.4831719 38.4256024,31.918483 C41.6340361,31.3537941 42.4376506,28.6321984 43.2003012,28.983547 C43.961747,29.3348956 45.7539157,33.4172891 50.8466867,33.4968397 C55.9394578,33.5763903 60.528012,30.4751212 61.7231928,26.557253 C62.9171687,22.6393847 58.6400602,12.0814498 58.6400602,12.0814498 L37.8906627,15.8100841 L33.7075301,31.1657653 Z" id="Fill-21" fill="#1F191A"></path>
                            <path d="M45.0409639,27.9509558 C45.0409639,27.9509558 46.7746988,30.950376 50.3391566,31.3402946 C53.9036145,31.7308158 59.6572289,27.0325077 60.3481928,24.6339358 C61.039759,22.2353639 58.8361446,18.5555449 58.8361446,18.5555449 C58.8361446,18.5555449 53.1795181,19.9669658 45.0409639,27.9509558" id="Fill-23" fill="#D2D4D5"></path>
                            <g id="Group-27" transform="translate(13.253012, 0.564689)">
                                <mask id="mask-8" fill="white">
                                    <use xlink:href="#path-7"></use>
                                </mask>
                                <g id="Clip-26"></g>
                                <path d="M21.8816867,8.36432636 C19.3081928,11.6114382 17.5527711,15.0544134 16.26,18.4600239 C15.9979518,23.0281582 16.8353012,27.3696939 16.4913253,30.174456 C14.3786747,47.3905371 2.01843373,46.8348881 0.49373494,64.926026 C1.9846988,56.2086034 11.7672289,50.9474143 16.7642169,37.1273012 C19.3563855,29.9593078 23.7889157,31.5461017 34.5919277,22.0584843 C37.6714458,19.3537631 39.6786747,16.4718609 40.9780723,13.7321856 L43.0346988,0.892594172 C39.4696386,0.609948391 31.1310843,-3.3037013 21.8816867,8.36432636" id="Fill-25" fill="#6D6E72" mask="url(#mask-8)"></path>
                            </g>
                            <path d="M59.4222892,123.299491 C59.4222892,123.299491 50.1554217,118.402307 53.3084337,104.666565 C56.4608434,90.9314267 63.0192771,92.7580778 71.8012048,78.819844 C73.860241,80.9628897 65.9975904,53.2768615 65.9975904,53.2768615 C65.9975904,53.2768615 48.6108434,63.2237029 43.1481928,69.9282537 C37.6861446,76.6328045 33.6048193,83.7531881 33.6048193,83.7531881 L35.1524096,119.289417 L59.4222892,123.299491 Z" id="Fill-28" fill="#1F191A"></path>
                            <path d="M69.7750602,126.106785 C69.7750602,126.106785 64.2786747,128.348666 62.2889157,127.643558 C60.299759,126.93845 52.2527711,122.451072 51.1587952,117.970323 C50.0642169,113.488971 54.2413253,112.205916 56.6244578,109.695852 C59.0075904,107.185789 78.1714458,90.9219047 83.5859036,88.2358658 C79.7166265,86.2784383 71.8009639,78.8199646 71.8009639,78.8199646 L65.9973494,53.2769821 C65.9973494,53.2769821 69.3413253,52.1644786 74.5606024,57.1237369 C79.7792771,62.0829952 94.1949398,81.9875258 95.2160241,83.6267508 C96.2377108,85.2653732 99.0780723,89.11032 99.7877108,90.0715568 C100.498554,91.0327935 98.8798795,92.8377489 98.4057831,93.4373919 C97.9316867,94.0376375 93.0172289,97.1027472 87.2220482,100.190155 C81.4268675,103.278166 65.2377108,111.335077 63.5166265,112.064894 C61.7955422,112.794711 59.2015663,114.722608 59.2015663,114.722608 C59.2015663,114.722608 61.2877108,114.864835 61.9846988,115.826674 C62.6816867,116.787911 63.9642169,117.154326 64.5636145,117.625 C65.163012,118.095675 64.313012,119.29255 64.313012,119.29255 C64.313012,119.29255 65.223253,120.444829 66.096747,120.128435 C66.9696386,119.81204 68.1214458,118.900824 68.2340964,119.486003 C68.3473494,120.07058 67.7955422,121.456086 67.2304819,122.352236 C68.6810843,121.629049 69.4768675,122.121419 69.1093976,123.050112 C68.7413253,123.978203 68.3672289,124.673668 68.3672289,124.673668 C68.3672289,124.673668 71.11,124.700788 69.7750602,126.106785" id="Fill-30" fill="#1F191A"></path>
                            <path d="M52.2722289,15.2998753 C52.2722289,15.2998753 53.328253,23.456225 56.9348795,26.6081172 C60.3396988,30.1179872 59.7143976,27.9237158 56.5439157,36.0710256 C51.5059639,49.0184925 54.0631928,60.9914642 54.0631928,60.9914642 C54.0631928,60.9914642 54.9637952,66.7932359 58.0354819,69.4075587 C56.7565663,63.490077 56.6023494,62.3667258 56.611988,60.2996148 C57.9842771,67.4043293 61.1409036,73.2735986 69.3981325,75.4407504 C64.6113855,69.4889173 63.6746386,64.6899656 63.5071687,63.065807 C63.3403012,61.4416484 65.7083735,54.6569443 66.4860843,52.2788628 C72.5487349,33.7266928 66.9830723,18.0678754 65.238494,13.5407217 C63.4945181,9.01296528 60.1324699,2.44823075 56.2878916,1.45746388 C52.4433133,0.466094344 52.2722289,15.2998753 52.2722289,15.2998753" id="Fill-32" fill="#3F3E40"></path>
                            <path d="M34.176988,22.9748834 C34.176988,22.9748834 29.8631325,22.9851286 27.2004819,31.2005386 C23.3173494,43.1825501 17.6625301,47.8368644 14.8083133,48.8493269 C20.9589157,42.923408 26.6342169,25.8640175 29.5131325,19.0250744 C34.4908434,7.20216405 34.176988,22.9748834 34.176988,22.9748834" id="Fill-34" fill="#6D6E72"></path>
                            <path d="M40.6181928,89.6428874 C42.3971084,90.0984955 50.6627711,91.9528688 56.2742169,88.2881161 C61.8862651,84.6239661 61.2808434,79.8238091 61.2404819,78.1417955 C61.2007229,76.4597819 62.5344578,80.2679667 61.0187952,84.189451 C59.5031325,88.1103325 57.4862651,91.4918367 52.5073494,91.8106419 C47.5296386,92.1288444 38.8675904,89.1945111 40.6181928,89.6428874" id="Fill-40" fill="#3F3E40"></path>
                            <path d="M22.4353012,87.3596639 C22.4353012,87.3596639 28.6479518,88.5553339 31.8985542,87.1161908 C32.56,86.5171505 32.46,84.5169344 32.1545783,84.5585176 C31.573253,84.9122769 28.9491566,87.1607873 22.4353012,87.3596639" id="Fill-42" fill="#3F3E40"></path>
                            <path d="M41.258253,32.7983611 C41.258253,32.7983611 40.3263253,31.8443562 40.6781325,31.7943358 C41.0293373,31.7455206 44.0305422,32.6971148 44.195,32.7230291 C44.3594578,32.7483406 43.2437952,33.2376975 42.6865663,33.4944291 C42.1287349,33.750558 41.258253,32.7983611 41.258253,32.7983611" id="Fill-44" fill="#CA916B"></path>
                            <path d="M38.7986145,37.8158962 C38.7986145,37.8158962 39.6516265,38.5523422 39.7383735,38.9669697 C39.8245181,39.3821998 39.5088554,41.5288614 42.034759,41.7705265 C46.1257229,42.1628558 49.0558434,39.1851312 49.7510241,38.6071839 C50.2570482,38.291392 51.1937952,37.3759572 51.5757229,37.2542206 C50.0962048,38.1154164 46.408253,37.8659167 45.6709036,37.6387153 C45.0865663,37.4585211 44.371506,36.7636584 43.545,37.0035156 C43.3263253,37.0673972 42.9956024,37.4904619 42.7498193,37.6796959 C42.3540361,37.4103086 42.2504217,36.9763961 41.4401807,37.0866822 C41.0136747,37.1445372 40.4425904,37.7562333 38.7986145,37.8158962" id="Fill-46" fill="#DE1829"></path>
                            <path d="M40.2581325,39.0450739 C40.1731928,39.0824386 39.8201807,39.6398956 40.6051205,39.7278835 C41.3900602,39.8152686 44.1400602,39.8779449 46.2762048,39.27107 C47.4731928,38.960702 48.1496988,38.8546345 47.7376506,38.8522239 C47.3256024,38.850416 43.6418675,38.9136949 43.3653614,38.9649206 C43.088253,39.0167491 42.7304217,39.1083528 42.5557229,39.1192006 C42.3810241,39.1300485 41.9045181,39.020365 41.5021084,38.9902322 C41.1003012,38.9594967 40.4418675,38.964318 40.2581325,39.0450739" id="Fill-48" fill="#FBB4BA"></path>
                        </g>
                    </g>
                </g>
            </g>
        </g>
    </g>
</svg>