<?xml version="1.0" encoding="UTF-8"?>
<svg width="155px" height="141px" viewBox="0 0 155 141" version="1.1" xmlns="http://www.w3.org/2000/svg" xmlns:xlink="http://www.w3.org/1999/xlink">
    <!-- Generator: sketchtool 52.2 (67145) - http://www.bohemiancoding.com/sketch -->
    <title>E10CD02A-B989-49B7-AF83-AE2BA0A7A97F</title>
    <desc>Created with sketchtool.</desc>
    <defs>
        <rect id="path-1" x="0" y="0" width="192" height="313"></rect>
        <polygon id="path-3" points="108.072752 0.0727668878 0 0.0727668878 0 164.305804 108.072752 164.305804 108.072752 0.0727668878"></polygon>
        <polygon id="path-5" points="0.947971084 0.0727668878 82.6266217 0.0727668878 82.6266217 124.434959 0.947971084 124.434959"></polygon>
    </defs>
    <g id="Dashboard" stroke="none" stroke-width="1" fill="none" fill-rule="evenodd">
        <g id="Dashboard---New---Free" transform="translate(-242.000000, -162.000000)">
            <g id="Welcome---No-Scan" transform="translate(190.000000, 132.000000)">
                <g id="Graphic-/-Top---General" transform="translate(30.000000, 30.000000)">
                    <g id="graphic-top-general">
                        <mask id="mask-2" fill="white">
                            <use xlink:href="#path-1"></use>
                        </mask>
                        <g id="Mask"></g>
                        <g id="graphic" mask="url(#mask-2)">
                            <g transform="translate(96.000000, 295.500000) scale(-1, 1) translate(-96.000000, -295.500000) ">
                                <g id="Group-6" stroke-width="1" fill="none" transform="translate(0.000000, 0.082263)">
                                    <mask id="mask-4" fill="white">
                                        <use xlink:href="#path-3"></use>
                                    </mask>
                                    <g id="Clip-5"></g>
                                    <path d="M108.072752,1.71071488 C101.227836,1.16900583 85.2166554,-6.33175877 67.4589687,16.0307764 C49.7001253,38.3933116 52.1995952,65.6127477 43.5052337,76.9655373 C34.8097157,88.3183268 21.5166072,95.7844405 21.3674024,124.564322 C21.2656193,144.161716 1.07670361,149.262328 -0.000115662651,163.291322 C1.91988434,158.068276 57.4136675,142.859997 44.4814265,123.970637 C43.1038843,121.95973 54.0906795,166.159261 55.7192096,164.245377 C69.5270169,148.01143 87.0094265,132.987956 87.0094265,132.987956 L108.072752,1.71071488 Z" id="Fill-4" fill="#3F3E40" mask="url(#mask-4)"></path>
                                </g>
                                <path d="M26.4786506,231.393531 C26.4786506,231.393531 32.0327711,236.36247 34.6328675,235.833466 C37.2341205,235.303307 48.3897831,230.649691 51.4155181,224.074106 C54.4400964,217.49852 50.0553253,214.367234 48.2452048,209.852222 C46.4373976,205.336055 34.810988,176.505352 29.5275181,170.876891 C34.8121446,168.946836 46.752,153.573387 46.752,153.573387 L59.2586024,120.628467 C59.2586024,120.628467 59.2852048,110.500009 51.2524337,116.663249 C43.2196627,122.826489 25.5961446,141.193776 18.8692048,151.225211 C17.2603373,153.623053 9.33744578,168.002021 8.13224096,169.280639 C6.92819277,170.559257 8.11720482,173.779481 8.43759036,174.831713 C8.75913253,175.885101 13.3104578,181.955938 18.8853976,188.306293 C24.4580241,194.657803 37.5371566,209.97581 39.2651566,211.574371 C40.9931566,213.172933 43.2740241,216.854013 43.2740241,216.854013 C43.2740241,216.854013 40.7791807,216.492489 39.5913253,217.774572 C38.4023133,219.057811 36.7599036,219.263406 35.8750843,219.818975 C34.9902651,220.3757 35.5188434,222.450134 35.5188434,222.450134 C35.5188434,222.450134 34.0059759,223.965533 33.1072771,223.236709 C32.2097349,222.50904 31.218506,220.790356 30.8587952,221.656628 C30.4990843,222.522901 30.6043373,224.80293 30.9154699,226.336809 C29.5009157,224.82372 28.3801446,225.357344 28.4472289,226.885449 C28.5166265,228.413553 28.6820241,229.584754 28.6820241,229.584754 C28.6820241,229.584754 25.4654458,228.86517 26.4786506,231.393531" id="Fill-7" fill="#1F191A"></path>
                                <path d="M31.9996916,187.475364 C31.9996916,187.475364 34.2840289,170.75515 27.2794988,158.896458 C22.6194506,151.005293 21.9763663,142.719108 26.3935229,124.516991 C30.8118361,106.314874 45.7647036,89.4214054 45.7647036,89.4214054 L61.9563181,60.0258927 L65.7396434,54.9911171 L84.6597398,88.4223044 L86.4733301,106.081558 L38.3750169,153.867457 C38.3750169,153.867457 46.1648964,169.334464 31.9996916,187.475364" id="Fill-9" fill="#3F3E40"></path>
                                <path d="M85.8574265,100.629816 C85.8574265,100.629816 64.7755952,103.571677 57.9318361,108.549857 C51.0880771,113.528036 44.0928,121.900848 40.1313542,126.788935 C36.1699084,131.677022 25.5960289,141.193314 25.5960289,141.193314 C25.5960289,141.193314 27.5912096,162.62605 43.0761253,166.430718 C46.3516916,172.230124 47.5221976,189.725363 45.3176675,197.465218 C43.1131373,205.203919 22.9866795,229.009087 25.4849928,282.723755 C27.983306,336.438424 39.0371855,364.24346 39.0371855,364.24346 C39.0371855,364.24346 30.0640771,379.83983 35.3059084,433.964534 C40.5465831,488.089238 43.8082699,512.013374 44.1344386,515.365271 C44.4617639,518.718323 33.9665349,540.595745 33.3199807,543.493716 C32.6734265,546.391686 32.439788,556.00038 34.2580048,561.236131 C36.0750651,566.470727 37.911788,572.426061 39.8341012,572.376395 C41.7564145,572.326729 60.1780048,531.51952 60.1780048,531.51952 C60.1780048,531.51952 57.1337639,515.992452 56.5300048,511.206008 C57.0204145,502.309967 62.2830651,445.275743 65.7251855,429.581195 C69.167306,413.887803 75.0371855,399.091869 68.6826795,376.446352 C65.2949205,366.210476 64.4320771,360.710224 65.3492819,359.006554 C66.2664867,357.302885 90.6053783,284.891747 89.999306,261.378802 C89.3943904,237.867012 85.8574265,100.629816 85.8574265,100.629816" id="Fill-11" fill="#1F191A"></path>
                                <path d="M87.4997205,80.4208344 C87.4997205,80.4208344 84.7180337,103.060577 83.1103229,105.981648 C81.5014554,108.905028 66.7382747,123.736768 65.5469494,133.466741 C64.3544675,143.196713 64.5210217,159.518441 64.5210217,159.518441 L97.8202988,142.097124 L116.204877,112.126407 L108.036781,62.523645 L87.4997205,80.4208344 Z" id="Fill-13" fill="#FBC29C"></path>
                                <path d="M69.4409639,148.852895 C69.6225542,144.863421 72.6679518,133.128317 72.2457831,133.950698 C71.3181687,136.427082 68.1015904,140.742274 64.7404337,144.839166 C64.4501205,152.447348 64.5206747,159.518441 64.5206747,159.518441 L71.174747,156.037181 C70.2078072,153.445294 69.3611566,150.623556 69.4409639,148.852895" id="Fill-15" fill="#CA916B"></path>
                                <path d="M83.1104386,105.981994 C84.8823904,110.218644 83.6563663,114.233528 89.770294,112.805911 C95.8842217,111.378294 113.929908,92.0130616 117.101378,81.9215648 C120.271692,71.828913 78.5695229,78.0903304 78.5695229,78.0903304 L83.1104386,105.981994 Z" id="Fill-17" fill="#CA916B"></path>
                                <path d="M60.0241735,45.1139939 C60.0241735,45.1139939 64.915547,66.9567656 73.651547,79.4553448 C82.387547,91.9562341 85.1287518,91.0449155 86.2136675,91.1373179 C87.2974265,91.2297203 110.789667,79.2220288 116.166824,68.6396442 C121.542824,58.0584147 119.656366,26.7755831 119.656366,26.7755831 L98.9805108,17.4637315 L60.0241735,45.1139939 Z" id="Fill-19" fill="#FBC29C"></path>
                                <path d="M64.7184578,58.7312196 C64.7184578,58.7312196 67.6169639,61.2561152 73.7771566,60.1738521 C79.9373494,59.091589 81.4802892,53.8754737 82.9445783,54.5488561 C84.4065542,55.2222386 87.8475181,63.0464116 97.6256386,63.1988756 C107.403759,63.3513395 116.213783,57.4075553 118.50853,49.8987055 C120.800964,42.3898557 112.588916,22.1548857 112.588916,22.1548857 L72.7500723,29.3010561 L64.7184578,58.7312196 Z" id="Fill-21" fill="#1F191A"></path>
                                <path d="M86.4786506,52.5698278 C86.4786506,52.5698278 89.8074217,58.3184119 96.6511807,59.0657163 C103.49494,59.8141757 114.54188,50.8095621 115.86853,46.2125429 C117.196337,41.6155236 112.965398,34.5629106 112.965398,34.5629106 C112.965398,34.5629106 102.104675,37.2679908 86.4786506,52.5698278" id="Fill-23" fill="#D2D4D5"></path>
                                <g id="Group-27" stroke-width="1" fill="none" transform="translate(25.445783, 0.082263)">
                                    <mask id="mask-6" fill="white">
                                        <use xlink:href="#path-5"></use>
                                    </mask>
                                    <g id="Clip-26"></g>
                                    <path d="M42.0128386,16.0307764 C37.0717301,22.2540779 33.7013205,28.852764 31.2192,35.3798384 C30.7160675,44.1349655 32.3237783,52.4558014 31.6633446,57.8313109 C27.6070554,90.8270519 3.87539277,89.7621143 0.947971084,124.434959 C3.81062169,107.72745 22.5930795,97.6440387 32.1872964,71.1568916 C37.1642602,57.4189652 45.6747181,60.4601591 66.4165012,42.2765223 C72.3291759,37.0927478 76.1830554,31.5693945 78.6778988,26.3186283 L82.6266217,1.71071488 C75.781706,1.16900583 59.7716819,-6.33175877 42.0128386,16.0307764" id="Fill-25" fill="#6D6E72" mask="url(#mask-6)"></path>
                                </g>
                                <path d="M114.090795,235.311508 C114.090795,235.311508 96.2984096,225.925734 102.352193,199.600291 C108.404819,173.276003 120.997012,176.776899 137.858313,150.063366 C141.811663,154.170653 126.715373,101.108576 126.715373,101.108576 C126.715373,101.108576 93.3328193,120.172346 82.8445301,133.022054 C72.3573976,145.871762 64.521253,159.518441 64.521253,159.518441 L67.4926265,227.625938 L114.090795,235.311508 Z" id="Fill-28" fill="#1F191A"></path>
                                <path d="M133.968116,240.691868 C133.968116,240.691868 123.415055,244.98858 119.594718,243.637195 C115.775537,242.28581 100.32532,233.685457 98.2248867,225.097809 C96.1232964,216.509006 104.143345,214.049947 108.718959,209.239247 C113.294573,204.428548 150.089176,173.257754 160.484935,168.109785 C153.055923,164.358248 137.857851,150.063597 137.857851,150.063597 L126.714911,101.108807 C126.714911,101.108807 133.135345,98.9766218 143.156357,108.481363 C153.176212,117.986105 180.854284,156.134435 182.814766,159.276116 C184.776405,162.416643 190.229899,169.785734 191.592405,171.628007 C192.957224,173.470279 189.849369,176.929594 188.939104,178.078849 C188.028839,179.229259 178.59308,185.103741 167.466333,191.02096 C156.339586,196.939333 125.256405,212.380929 121.951923,213.77967 C118.647441,215.178411 113.667007,218.873352 113.667007,218.873352 C113.667007,218.873352 117.672405,219.145939 119.010622,220.989367 C120.348839,222.83164 122.811296,223.533898 123.96214,224.435977 C125.112983,225.338055 123.480983,227.631945 123.480983,227.631945 C123.480983,227.631945 125.228646,229.840362 126.905754,229.233971 C128.581706,228.62758 130.793176,226.881175 131.009465,228.002709 C131.226911,229.123088 130.167441,231.778502 129.082525,233.496032 C131.867682,232.109996 133.395586,233.053655 132.690043,234.833556 C131.983345,236.612303 131.26508,237.945207 131.26508,237.945207 C131.26508,237.945207 136.5312,237.997183 133.968116,240.691868" id="Fill-30" fill="#1F191A"></path>
                                <path d="M100.36268,28.3232078 C100.36268,28.3232078 102.390246,43.9553833 109.314969,49.99619 C115.852222,56.7230846 114.651643,52.5176204 108.564318,68.1324706 C98.8914506,92.9471343 103.80133,115.894115 103.80133,115.894115 C103.80133,115.894115 105.530487,127.013588 111.428125,132.024108 C108.972607,120.682869 108.676511,118.529893 108.695017,114.56814 C111.329812,128.184789 117.390535,139.433625 133.244414,143.587113 C124.05386,132.180037 122.255306,122.982534 121.933764,119.869728 C121.613378,116.756922 126.160077,103.753595 127.653282,99.1958465 C139.293571,63.639404 128.607499,33.6282604 125.257908,24.9516753 C121.909475,16.2739351 115.454342,3.69219373 108.072752,1.79332447 C100.691161,-0.106699824 100.36268,28.3232078 100.36268,28.3232078" id="Fill-32" fill="#3F3E40"></path>
                                <path d="M65.6198169,43.0328609 C65.6198169,43.0328609 57.3372145,43.0524964 52.2249253,58.7978649 C44.7693108,81.7621707 33.9120578,90.6824671 28.4319614,92.6229174 C40.2411181,81.2655078 51.1376964,48.5700745 56.6652145,35.4627945 C66.2224193,12.8034166 65.6198169,43.0328609 65.6198169,43.0328609" id="Fill-34" fill="#6D6E72"></path>
                                <path d="M79.2158458,61.8601958 C79.2158458,61.8601958 77.4265446,60.0317834 78.1020145,59.9359159 C78.7763277,59.8423585 84.538641,61.6661508 84.8544,61.7158171 C85.170159,61.7643283 83.0280867,62.7022127 81.9582072,63.1942554 C80.8871711,63.6851432 79.2158458,61.8601958 79.2158458,61.8601958" id="Fill-44" fill="#CA916B"></path>
                                <path d="M74.4933398,71.4766288 C74.4933398,71.4766288 76.1311229,72.8880754 76.2976771,73.682736 C76.4630747,74.4785517 75.8570024,78.5927684 80.7067373,79.0559354 C88.561388,79.80786 94.1872193,74.1008569 95.5219663,72.9931832 C96.4935325,72.3879475 98.2920867,70.6334569 99.025388,70.4001409 C96.1847133,72.0506787 89.1038458,71.5724963 87.6881349,71.13705 C86.5662072,70.791696 85.1932916,69.4599465 83.6064,69.9196484 C83.1865446,70.0420816 82.5515566,70.8529126 82.079653,71.215592 C81.3197494,70.6992936 81.1208096,69.8676721 79.565147,70.0790426 C78.7462554,70.1899254 77.6497735,71.3622808 74.4933398,71.4766288" id="Fill-46" fill="#DE1829"></path>
                                <path d="M77.2956145,73.8324279 C77.1325301,73.9040398 76.454747,74.9724425 77.9618313,75.1410769 C79.4689157,75.3085562 84.7489157,75.4286793 88.8503133,74.2655642 C91.1485301,73.6707237 92.4474217,73.4674385 91.6562892,73.4628183 C90.8651566,73.4593533 83.7923855,73.5806314 83.261494,73.6788089 C82.7294458,73.7781415 82.0424096,73.9537061 81.706988,73.9744966 C81.3715663,73.9952872 80.4566747,73.7850717 79.6840482,73.7273202 C78.9125783,73.6684137 77.6483855,73.6776539 77.2956145,73.8324279" id="Fill-48" fill="#FBB4BA"></path>
                            </g>
                        </g>
                    </g>
                </g>
            </g>
        </g>
    </g>
</svg>