<?xml version="1.0" encoding="UTF-8"?>
<svg width="70px" height="70px" viewBox="0 0 70 70" version="1.1" xmlns="http://www.w3.org/2000/svg" xmlns:xlink="http://www.w3.org/1999/xlink">
    <title>98AF07F0-9687-4CEA-AAFD-86CCEAA5ECD2</title>
    <defs>
        <circle id="path-1" cx="35" cy="35" r="35"></circle>
        <polygon id="path-3" points="56.0114297 0.299140625 0.0333046875 0.299140625 0.0333046875 87.1173516 56.0114297 87.1173516 56.0114297 0.299140625"></polygon>
        <polygon id="path-5" points="0.527351563 0.299140625 41.9837578 0.299140625 41.9837578 61.8960234 0.527351563 61.8960234 0.527351563 0.299140625"></polygon>
    </defs>
    <g id="Schema" stroke="none" stroke-width="1" fill="none" fill-rule="evenodd">
        <g id="Schema-/-Types-/-Article-/-Add-Properties" transform="translate(-647.000000, -1176.000000)">
            <g id="Modal-/-Types---General" transform="translate(-3724.000000, 97.000000)">
                <g id="Coming-Next" transform="translate(4136.000000, 1079.000000)">
                    <g id="graphic-seocheckup-disabled" transform="translate(235.000000, 0.000000)">
                        <mask id="mask-2" fill="white">
                            <use xlink:href="#path-1"></use>
                        </mask>
                        <use id="Oval" fill="#CCCCCC" xlink:href="#path-1"></use>
                        <g id="graphic" mask="url(#mask-2)">
                            <g transform="translate(-4.375000, -4.921875)">
                                <path d="M14.8432812,90.4781172 C14.8432812,90.4781172 15.7855469,80.3160859 12.2992187,74.4054609 C9.979375,70.4728828 7.07875,71.2160859 9.2771875,62.1439766 C11.4761719,53.0718672 18.9185937,44.6521797 18.9185937,44.6521797 L26.9778906,30.0008516 L28.8602344,27.4917891 L38.2779687,44.1539766 L39.1797656,52.9553828 L18.01625,73.7278828 C18.01625,73.7278828 21.8935937,81.4366328 14.8432812,90.4781172" id="Fill-1" fill="#3F3E40"></path>
                                <g id="Group-5" stroke-width="1" fill="none" transform="translate(1.640625, 0.247734)">
                                    <mask id="mask-4" fill="white">
                                        <use xlink:href="#path-3"></use>
                                    </mask>
                                    <g id="Clip-4"></g>
                                    <path d="M49.0929141,1.37063281 C45.6864297,1.10047656 36.9140078,-3.27835156 28.0754141,7.86696094 C19.2368203,19.0122734 20.4809609,32.5791484 16.1535391,38.2376641 C11.8255703,43.8956328 5.20947656,47.6165703 5.13510156,61.9605547 C5.08424219,71.7282891 0.569242188,80.1255547 0.0333046875,87.1173516 C0.988695313,84.5142266 23.0758828,71.0791484 16.6386172,61.6646953 C15.9539297,60.6628203 18.2879922,86.0908672 19.0984609,85.1365703 C25.9710391,77.0450078 56.0114297,52.8436016 56.0114297,52.8436016 L49.0929141,1.37063281 Z" id="Fill-3" fill="#3F3E40" mask="url(#mask-4)"></path>
                                </g>
                                <path d="M62.7887969,59.4608438 C62.7887969,59.4608438 63.8218437,59.5226406 70.322,72.1685781 C70.0195781,82.7943594 71.8078594,89.6226406 72.3793437,109.657406 C75.17825,116.362094 75.4533281,123.731234 74.4399687,134.650688 C73.4266094,145.570141 66.4550469,169.2285 66.4550469,169.2285 L62.7887969,163.0685 C62.7887969,163.0685 64.4447344,131.504516 64.3047344,125.637641 C64.1658281,119.770766 64.3047344,111.877172 64.3047344,111.877172 C64.3047344,111.877172 60.2939531,92.4275625 58.0867656,76.7054531 C55.8795781,60.9833437 62.7887969,59.4608438 62.7887969,59.4608438" id="Fill-6" fill="#171212"></path>
                                <path d="M43.3197734,41.5221406 C43.8480547,44.8859687 44.2582109,48.2683906 44.5496953,51.6606562 C46.5944609,50.4066719 48.5965703,49.0826875 50.5516484,47.6925312 C50.7600078,47.5437812 50.9787578,47.3808125 51.0695391,47.1418281 C51.1488359,46.9307344 55.5763359,43.3497969 55.5386016,43.1272187 C54.8982109,39.3652656 53.4828984,35.5502656 54.3661016,31.8380781 C53.3073516,33.063625 47.3414922,37.13675 45.9819609,38.0166719 C44.6218828,38.8965937 43.2978984,40.0838594 42.9894609,41.6741719" id="Fill-27" fill="#CA916B"></path>
                                <path d="M27.8406406,84.0832891 C27.8406406,84.0832891 27.8067344,85.1491484 27.4151719,90.6791484 C26.7211875,100.469852 17.7086875,114.387273 17.5692344,114.606023 L26.69275,108.966648 L55.8406406,118.977742 C54.01025,115.146883 52.4975937,109.790242 53.5700156,104.153055 C55.7679062,92.5926641 70.7473594,81.3171953 70.3224375,72.1685234 C69.8964219,63.0198516 62.6629062,55.2186797 60.3228281,52.9491484 C57.9816563,50.6796172 55.8554063,37.5874297 55.8554063,37.5874297 C55.8554063,37.5874297 41.8122031,47.0625859 41.0318125,50.0414141 C40.2514219,53.0202422 37.6767344,55.9241484 31.0814219,60.3921172 C24.4855625,64.8600859 19.373375,70.1833672 20.4917344,75.8014141 C21.35525,80.1392266 27.8406406,84.0832891 27.8406406,84.0832891" id="Fill-29" fill="#1F191A"></path>
                                <path d="M26.7004063,72.5903828 C26.7124375,72.6215547 26.7272031,72.6516328 26.7414219,72.6817109 C26.6900156,72.6806172 26.6391562,72.6800703 26.5872031,72.6778828 C26.6249375,72.6488984 26.6626719,72.6193672 26.7004063,72.5903828 M37.564625,59.0071016 C36.6956406,58.9939766 35.8961094,59.2176484 35.1403281,59.5610859 C35.0473594,59.4730391 34.8931406,59.4385859 34.76025,59.5364766 C34.3222031,59.8574922 33.8901719,60.1850703 33.4619688,60.5164766 C33.3591563,60.5842891 33.2563438,60.6526484 33.1540781,60.7215547 C31.8273594,61.6156953 30.5323594,62.5601484 29.2772813,63.5521797 C26.8765,65.4487422 24.5112656,67.5093672 22.75525,70.0386641 C21.9797813,71.1559297 20.8373594,72.8255391 22.2466563,73.9422578 C22.7382969,74.3316328 23.3404063,74.4317109 23.9419688,74.5328828 C24.7075938,74.6619453 25.4781406,74.7653047 26.2541563,74.8046797 C27.869625,74.8867109 29.4637656,74.6717891 30.9135313,74.1019453 C31.8760313,73.9116328 32.8511094,73.6190547 33.6544688,73.1252266 C34.8761875,72.3743672 35.4706406,71.0192109 36.0514219,69.7679609 C37.4399375,66.7738203 38.4861094,63.4171016 38.5757969,60.0921016 C38.5905625,59.5337422 38.1361094,59.0158516 37.564625,59.0071016" id="Fill-31" fill="#251F20"></path>
                                <path d="M69.2968281,77.7592812 C69.1256563,75.1145937 68.194875,72.4223281 67.3357344,69.9324062 C66.0751875,66.2825625 64.4553438,61.2365469 60.5129219,59.6593594 C55.4652656,57.6402969 51.412375,62.3751406 48.7928438,66.0698281 C48.6162031,63.15225 46.1672969,60.6552187 43.2387813,60.4452187 C42.9549531,60.3582656 42.6705781,60.400375 42.378,60.4752969 C42.3337031,60.4862344 42.2866719,60.4988125 42.2385469,60.5124844 C42.2062813,60.4173281 42.1029219,60.3445937 41.9913594,60.4113125 C39.2132344,62.0770937 36.7790938,64.2574844 34.8355,66.8513125 C32.8897188,69.4489687 31.1101875,72.6689687 30.9083906,75.971 C30.7421406,78.6971719 32.0579219,81.7230312 34.813625,82.6423281 C34.9705781,82.6948281 35.4819063,82.7227187 35.5590156,82.817875 C35.5305781,83.159125 35.4950313,83.4992812 35.4529219,83.8377969 L30.456125,103.103109 C30.4533906,103.109125 30.4484687,103.1135 30.4462813,103.120062 C30.3697188,103.33225 30.3019063,103.546078 30.2384687,103.761547 C29.9694063,104.391547 29.694875,105.019359 29.4066719,105.641703 C29.3651094,105.730844 27.6807344,112.198187 27.8026875,112.215687 C35.6979219,113.347172 45.1282344,109.149359 52.4940938,112.205844 C52.5870625,112.244672 52.6794844,112.163187 52.7095625,112.083891 C54.5968281,107.038422 56.8319063,102.128031 59.4126094,97.3992031 C60.6808125,95.0755312 62.0299531,92.7961562 63.4578438,90.5665469 C64.8140938,88.4490469 66.3437031,86.4267031 67.5610469,84.2233437 C68.6575313,82.2409219 69.4450312,80.0556094 69.2968281,77.7592812" id="Fill-33" fill="#171212"></path>
                                <path d="M23.7080703,103.225008 C24.1291641,103.149539 24.5710391,103.068602 25.0391641,102.980008 C29.8631484,91.5432109 28.7278359,86.4091484 28.5976797,84.4639141 C21.0595547,78.2946172 21.6447109,76.0119609 21.4986953,73.1528984 C22.0335391,68.9758672 25.1676797,65.2346953 28.0879922,62.5692266 C23.0272109,66.5477422 19.5496328,71.0698516 20.4913516,75.8014141 C21.3548672,80.1392266 27.8408047,84.0832891 27.8408047,84.0832891 C27.8408047,84.0832891 27.8068984,85.1491484 27.4147891,90.6791484 C27.1380703,94.5816484 25.5401016,99.1398516 23.7080703,103.225008" id="Fill-35" fill="#1F191A"></path>
                                <path d="M43.3891719,58.4117187 C42.5059688,60.515 42.7755781,62.9529687 44.9565156,68.7842969 C47.138,74.6161719 48.1502656,82.0842969 53.0043281,87.5596094 C48.8360469,88.3892187 45.2140938,90.1736719 41.8289375,93.3045312 C38.444875,96.4348437 49.9303438,98.9116406 52.9747969,97.3136719 C56.01925,95.71625 63.4890156,92.3917969 63.1297188,90.3 C62.769875,88.2076562 60.3390156,74.3525781 59.6975313,66.6039062 C59.0565938,58.8552344 57.1485469,55.3672656 52.1156563,54.6486719 C47.0827656,53.9295312 43.7818281,57.4771094 43.3891719,58.4117187" id="Fill-45" fill="#171212"></path>
                                <path d="M63.1295547,90.2997266 C62.7697109,88.2079297 60.4186953,75.2201953 59.7772109,67.4715234 C59.7526016,67.1762109 59.7258047,66.8880078 59.6979141,66.6036328 C58.8595547,71.8082422 51.5686172,79.6684766 50.7067422,84.4137109 C51.3597109,85.5008984 52.1138516,86.5552734 53.0041641,87.5593359 C48.8358828,88.3894922 45.2139297,90.1739453 41.8293203,93.3042578 C38.4447109,96.4351172 33.3029922,104.772773 29.8921328,106.351055 C25.2442422,108.501367 23.8633828,108.592695 23.8633828,108.592695 L17.2172109,116.085977 C17.2172109,116.085977 24.4589297,117.621055 28.0119766,117.010195 C31.5650234,116.398789 54.3702578,99.3494141 57.1226797,97.2887891 C61.0656484,94.3362109 63.4888516,92.3915234 63.1295547,90.2997266" id="Fill-47" fill="#1F191A"></path>
                                <path d="M61.7388516,20.5742578 L61.7388516,20.5895703 L61.7388516,20.5742578 Z" id="Fill-53" fill="#022942"></path>
                                <path d="M26.0157734,22.5689297 C26.0157734,22.5689297 28.4499141,33.4550234 32.7981172,39.6850234 C37.1468672,45.9150234 38.5113203,45.4611172 39.0510859,45.5070547 C39.5903047,45.5529922 51.2824922,39.5685391 53.9588984,34.2944766 C56.6353047,29.0204141 55.6952266,13.4290078 55.6952266,13.4290078 L45.4052266,8.78767969 L26.0157734,22.5689297 Z" id="Fill-67" fill="#FBC29C"></path>
                                <path d="M49.0021328,13.4990625 C47.0311953,12.0503906 44.6479141,11.3345312 42.1957266,11.0692969 L26.7683828,22.0341406 C26.5862734,22.5460156 26.4194766,23.0644531 26.2614297,23.5845312 C26.9105703,26.15375 28.8257266,33.0673437 31.8018203,38.1253906 C32.2557266,36.1992969 33.0038516,34.3967969 34.3803359,33.0000781 C34.8632266,32.5089844 35.4636953,31.9544531 35.3614297,31.2730469 C35.3198672,30.9990625 35.1640078,30.7546094 35.1120547,30.4833594 C34.9999453,29.9036719 35.3674453,29.3496875 35.7256484,28.8799219 C39.6833828,23.681875 44.6922109,19.3965625 49.2170547,14.6835937 C49.3275234,14.56875 49.4418203,14.4451562 49.4762734,14.2898437 C49.5479141,13.9715625 49.2646328,13.6926562 49.0021328,13.4990625" id="Fill-69" fill="#CA916B"></path>
                                <path d="M28.3522422,29.3560312 C28.3522422,29.3560312 29.7954453,30.6143906 32.8612266,30.074625 C35.9275547,29.5354062 36.6953672,26.9361094 37.4238047,27.2713437 C38.1516953,27.607125 39.8645078,31.5063437 44.7306016,31.5829062 C49.5977891,31.6589219 53.9826328,28.6965 55.1245078,24.9536875 C56.2658359,21.210875 52.1773984,11.1265 52.1773984,11.1265 L32.3504453,14.68775 L28.3522422,29.3560312 Z" id="Fill-71" fill="#1F191A"></path>
                                <path d="M39.1829375,26.2852187 C39.1829375,26.2852187 40.8394219,29.14975 44.2459062,29.5227187 C47.6518438,29.8956875 53.150125,25.4074844 53.81075,23.116625 C54.471375,20.8257656 52.3653594,17.3104531 52.3653594,17.3104531 C52.3653594,17.3104531 46.9600469,18.6585 39.1829375,26.2852187" id="Fill-73" fill="#D2D4D5"></path>
                                <path d="M36.4031719,25.5607734 C36.4031719,25.5607734 35.06825,28.1699141 32.3087188,28.5007734 C29.5491875,28.8316328 25.0817656,24.7240547 24.5403594,22.6322578 C23.9984063,20.5410078 25.6959063,17.3401484 25.6959063,17.3401484 C25.6959063,17.3401484 31.1827031,17.3576484 36.4031719,25.5607734" id="Fill-75" fill="#3F3E40"></path>
                                <g id="Group-79" stroke-width="1" fill="none" transform="translate(8.750000, 0.247734)">
                                    <mask id="mask-6" fill="white">
                                        <use xlink:href="#path-5"></use>
                                    </mask>
                                    <g id="Clip-78"></g>
                                    <path d="M20.9662578,7.86696094 C18.5069609,10.9682891 16.8296953,14.2571953 15.5943047,17.5111016 C15.3438359,21.8740703 16.1439141,26.0210234 15.8146953,28.7007109 C13.7961797,45.1457891 1.98477344,44.6153203 0.527351563,61.8960234 C1.95141406,53.5693047 11.3002422,48.5435234 16.0761016,35.3419609 C16.5901641,33.9200859 17.1370391,32.4708672 17.9792266,31.2048516 C18.8312578,29.9240703 19.9611016,29.0009453 21.1549297,28.0537578 C24.5121953,25.3882891 27.8705547,22.7233672 31.2283672,20.0578984 C32.4539141,19.0850078 34.1027422,18.7300859 35.4092266,17.7971172 C37.1061797,16.5846953 38.3065703,14.8489141 39.2154766,12.9944609 L41.9837578,1.37063281 C38.5767266,1.10047656 29.8048516,-3.27835156 20.9662578,7.86696094" id="Fill-77" fill="#6D6E72" mask="url(#mask-6)"></path>
                                </g>
                                <path d="M28.6208672,21.4711875 C28.6208672,21.4711875 24.5701641,20.7072031 20.5971172,27.9379844 C14.8035234,38.4828281 8.66157031,41.8357187 5.80086719,42.2737656 C12.6362578,37.8167344 22.6468047,22.1493125 25.2504766,15.5561875 C29.6041484,4.53064062 28.6208672,21.4711875 28.6208672,21.4711875" id="Fill-80" fill="#6D6E72"></path>
                                <path d="M35.5679297,30.9152266 C35.5679297,30.9152266 34.6776172,30.0035859 35.0133984,29.9571016 C35.3497266,29.9095234 38.2169922,30.8189766 38.3744922,30.8430391 C38.5319922,30.8676484 37.4655859,31.3357734 36.9329297,31.5802266 C36.3997266,31.8252266 35.5679297,30.9152266 35.5679297,30.9152266" id="Fill-82" fill="#CA916B"></path>
                                <path d="M33.2175156,35.7080937 C33.2175156,35.7080937 34.0323594,36.4119219 34.1154844,36.8078594 C34.1975156,37.2043437 33.8956406,39.2545781 36.3095469,39.4864531 C40.2191562,39.8610625 43.0197031,37.0162187 43.6841562,36.4644219 C44.1670469,36.1625469 45.0622812,35.2875469 45.4275937,35.1721562 C44.013375,35.9941094 40.4893125,35.7562187 39.7849375,35.5391094 C39.2260312,35.3668437 38.5424375,34.7034844 37.7532969,34.932625 C37.5443906,34.9933281 37.2282969,35.3974687 36.9925937,35.5784844 C36.61525,35.3209062 36.5162656,34.906375 35.7413437,35.0119219 C35.3339219,35.0671562 34.7892344,35.6512187 33.2175156,35.7080937" id="Fill-84" fill="#DE1829"></path>
                                <path d="M34.6124844,36.8822344 C34.5315469,36.9177812 34.194125,37.4509844 34.9438906,37.5341094 C35.6942031,37.6183281 38.3219375,37.6779375 40.3634219,37.09825 C41.5063906,36.8018437 42.1533438,36.700125 41.7595938,36.6984844 C41.3663906,36.6962969 37.8456094,36.757 37.5814688,36.8056719 C37.3167813,36.8554375 36.9749844,36.9429375 36.8081875,36.9527812 C36.6413906,36.9631719 36.1858438,36.8587187 35.8013906,36.8297344 C35.4169375,36.8012969 34.7874844,36.805125 34.6124844,36.8822344" id="Fill-86" fill="#FBB4BA"></path>
                                <path d="M21.9975,72.0864922 C29.3010156,67.6562578 36.1407813,62.4614922 42.3680469,56.6137578 C43.2058594,55.8273516 44.0414844,55.0092266 44.8464844,54.1621172 C49.039375,50.1414922 50.159375,44.9248516 49.9460938,39.5452422 C49.8930469,38.2004766 49.7563281,36.8458672 49.5632813,35.4972734 C48.7703125,31.6210234 48.2130469,27.7174297 47.0438281,23.9560234 C46.7217188,22.5155547 46.4964063,21.0586797 46.4313281,19.5711797 C46.3667969,18.0836797 46.4614062,16.5661016 46.7807813,15.0053203 C46.8825,13.5697734 47.0432813,12.1380547 47.263125,10.7156328 C47.6891406,7.95938281 48.3667188,5.26930469 49.3620313,2.66016406 C49.5195313,2.24672656 49.7060156,1.80922656 50.0789844,1.57024219 C50.7746094,1.12453906 51.6780469,1.59102344 52.3567187,2.06352344 C53.5467188,2.89203906 54.7088281,3.76813281 55.8332031,4.69180469 C63.7984375,12.2474297 64.8440625,24.2688359 62.9496875,34.5118047 C61.9778906,39.7667266 60.2180469,44.9232109 57.6723438,49.6268828 C54.7640625,55.0021172 50.8134375,57.4111016 44.6244531,58.2040703 C43.1003125,59.1425078 41.6735156,60.2537578 40.3719531,61.4721953 C36.8992969,64.7217266 34.2157812,68.7122734 31.6957813,72.7454766 C32.248125,71.1939922 32.8004688,69.6419609 33.3533594,68.0904766 C29.7232031,69.9514922 25.921875,71.4778203 22.0128125,72.6448516" id="Fill-88" fill="#3F3E40"></path>
                                <path d="M69.174,69.9681719 C68.469625,68.23075 68.3066562,66.3549687 67.5076719,64.6437969 C66.6972031,62.9080156 65.9195469,61.0699687 64.8170469,59.5004375 C62.9691562,56.8699687 59.9870469,55.1024687 58.8003281,52.0033281 C58.6384531,51.5800469 58.0779062,51.8895781 58.1194687,52.2630937 C58.4891562,55.591375 61.032125,57.901375 63.0468125,60.3524687 C64.2636094,61.8323125 65.4415781,63.2766094 66.4576719,64.90575 C67.5191562,66.6070781 67.682125,68.5484844 68.4225937,70.3728594 C68.6282187,70.8809062 69.3785312,70.4734844 69.174,69.9681719" id="Fill-98" fill="#251F20"></path>
                            </g>
                        </g>
                    </g>
                </g>
            </g>
        </g>
    </g>
</svg>