<?xml version="1.0" encoding="UTF-8"?>
<svg width="181px" height="182px" viewBox="0 0 181 182" version="1.1" xmlns="http://www.w3.org/2000/svg" xmlns:xlink="http://www.w3.org/1999/xlink">
    <!-- Generator: sketchtool 52.5 (67469) - http://www.bohemiancoding.com/sketch -->
    <title>2A054D3B-E440-4F5D-A0DF-A546E972BF4C</title>
    <desc>Created with sketchtool.</desc>
    <defs>
        <rect id="path-1" x="0" y="0" width="192" height="182"></rect>
    </defs>
    <g id="SEO-Checkup" stroke="none" stroke-width="1" fill="none" fill-rule="evenodd">
        <g id="SEO-Checkup-/-Checkup---Expanded" transform="translate(-227.000000, -162.000000)">
            <g id="SEO-Checkup---Welcome---Pro---No-Reports" transform="translate(190.000000, 132.000000)">
                <g id="Graphic-/-SEO-Checkup---Top" transform="translate(30.000000, 30.000000)">
                    <g id="graphic-checkup-summary">
                        <mask id="mask-2" fill="white">
                            <use xlink:href="#path-1"></use>
                        </mask>
                        <g id="Mask"></g>
                        <g id="graphic" mask="url(#mask-2)">
                            <path d="M54.81216,116.135598 C54.81216,116.135598 46.2909979,152.626735 48.8011453,167.535151 C50.3993937,165.531768 54.2798147,175.322044 57.4750989,179.327597 C60.6703832,183.333151 65.3766063,186.8927 65.3766063,186.8927 C65.3766063,186.8927 68.5161095,180.714088 77.0869895,182.567187 C85.6578695,184.421498 129.877693,181.55277 132.590349,180.218393 C135.304219,178.882805 145.133811,189.785667 145.133811,189.785667 C145.133811,189.785667 144.662097,185.780113 147.401432,184.667527 C150.139554,183.554941 153.564025,185.113531 153.564025,185.113531 C153.564025,185.113531 156.555587,175.552318 156.897549,171.762494 C157.239512,167.972671 156.897549,160.885084 156.897549,160.885084 L54.81216,116.135598 Z" id="Fill-1" fill="#3F3E40"></path>
                            <path d="M135.072,130.266173 L65.1031579,130.266173 C64.8751832,125.165 64.9018611,119.028808 65.2923284,111.652772 C67.4738526,70.642207 70.9832084,57.8583711 88.9483453,45.5859856 C106.913482,33.3136001 117.270568,25.2346231 117.270568,25.2346231 C123.435587,26.8707795 131.877928,42.5184952 129.222265,53.5631574 C122.392724,79.6422796 124.479663,100.30027 129.031882,112.777478 C130.621642,117.138138 132.849246,123.642769 135.072,130.266173" id="Fill-3" fill="#1F191A"></path>
                            <path d="M141.981211,175.061592 C138.869598,186.077167 139.754819,202.598711 139.754819,202.598711 L94.3611688,226.198147 L71.8923183,196.70976 C71.8923183,196.70976 70.5572109,159.327826 60.3165373,144.384264 C50.9732109,128.388714 54.6038299,101.817532 61.0623057,101.817532 L80.0230131,101.817532 L101.384731,101.817532 C101.384731,101.817532 117.448461,102.587132 129.688765,102.873156 C136.392192,103.024652 141.952108,103.0295 143.094407,102.686513 C150.368984,100.507395 158.669447,111.080602 158.896209,120.518195 C159.11812,129.960636 145.100099,164.052077 141.981211,175.061592" id="Fill-12" fill="#1F191A"></path>
                            <path d="M93.5488269,171.549915 C101.316945,167.02564 103.412372,155.853721 103.101939,153.805495 C90.9513701,162.106262 69.0185027,169.439879 69.0185027,169.439879 L69.0779217,170.725777 C69.3556143,172.33527 69.6066291,173.931432 69.8321785,175.496082 C72.8758838,175.622127 86.5640691,175.618491 93.5488269,171.549915" id="Fill-14" fill="#1B1416"></path>
                            <path d="M143.510703,166.767248 L107.813255,156.761242 C107.813255,156.761242 109.787419,170.591006 125.695933,174.486271 C133.59744,176.420571 138.511023,176.254532 141.977937,175.075287 C141.979149,175.071651 141.980362,175.066803 141.981575,175.061955 C142.493305,173.254911 143.300918,170.82128 144.289213,167.980428 L143.510703,166.767248 Z" id="Fill-16" fill="#1B1416"></path>
                            <path d="M75.6625112,118.720483 C66.6356817,118.720483 55.9463343,122.495763 53.3331133,150.18559 C50.7198922,177.874205 81.1254164,173.594747 88.7274038,172.084635 C96.3281785,170.574524 107.49409,163.526931 104.167842,138.60645 C100.842806,113.685969 75.6625112,118.720483 75.6625112,118.720483" id="Fill-18" fill="#1F191A"></path>
                            <path d="M125.563998,173.052513 C119.070356,171.535129 105.847821,169.276021 103.2346,141.587406 C100.622592,113.897579 131.028116,118.177037 138.628891,119.687149 C146.230878,121.19726 157.395577,128.246065 154.069329,153.166546 C150.744293,178.087027 132.058853,174.568685 125.563998,173.052513" id="Fill-20" fill="#1F191A"></path>
                            <path d="M135.342538,102.687362 C135.342538,102.687362 154.520307,100.851231 159.50786,107.407976 C164.496627,113.96351 165.896003,121.568607 167.528205,125.501443 C169.16162,129.43549 178.72322,153.576676 182.4557,166.942256 C186.186968,180.307837 191.249704,189.127326 191.457064,191.488239 C191.665637,193.84794 191.522547,199.323611 190.121957,201.279727 C188.723793,203.234631 161.256475,230.656613 159.38781,234.065878 C157.520357,237.473932 156.347742,248.630095 146.438117,247.642341 C136.529704,246.652164 138.161907,229.870046 134.429427,230.394828 C130.698159,230.918398 118.569418,242.719328 117.870942,241.407979 C117.171254,240.09663 117.404079,225.149432 116.937216,222.264948 C116.470353,219.380465 129.531608,214.136281 130.698159,213.873284 C131.864711,213.611499 134.662252,215.184633 134.662252,215.184633 C134.662252,215.184633 134.077763,209.443542 133.03005,207.842532 C131.983549,206.240311 125.333477,204.958049 123.234412,204.171482 C121.135347,203.383703 120.436871,200.500431 125.566302,201.548784 C130.698159,202.598348 134.196601,204.171482 136.761317,203.383703 C139.327245,202.598348 141.426311,208.890884 142.825688,212.824932 C144.225064,216.757767 148.19037,227.247348 148.19037,227.247348 C148.19037,227.247348 154.750707,216.757767 157.069258,212.038364 C159.385384,207.31775 168.014471,188.436504 170.813224,188.174719 C167.314782,186.601585 154.48514,167.983337 151.90466,164.049289 C149.32418,160.116454 145.372214,146.480605 141.406909,137.827155 C137.441603,129.173705 135.342538,102.687362 135.342538,102.687362" id="Fill-26" fill="#1F191A"></path>
                            <path d="M135.072,103.286195 C136.100312,103.029258 146.601701,103.561312 151.018105,104.716317 C155.434509,105.872534 158.570375,106.25794 157.901002,107.156008 C154.672977,108.439482 151.322476,112.521389 150.809533,115.87248 C150.295377,119.224783 130.126888,113.01466 130.126888,113.01466 L129.689128,102.872914 L135.072,103.286195 Z" id="Fill-28" fill="#251F20"></path>
                            <path d="M81.9957221,189.989883 C81.9957221,189.825056 88.3317221,184.849928 88.7428042,184.808721 C89.1538863,184.767514 92.2812632,185.712849 92.8160337,185.754056 C93.3508042,185.795263 95.1491368,186.566075 96.2659705,186.941785 C97.3828042,187.316283 99.1520337,186.166125 98.7409516,185.508027 C98.3298695,184.849928 89.2775747,181.76547 89.2775747,181.76547 L83.1368084,184.767514 L79.2394105,189.537819 L81.9957221,189.989883 Z" id="Fill-32" fill="#1B1416"></path>
                            <path d="M71.5538728,102.450664 C63.0048202,100.825416 51.3186897,101.931942 46.0328286,110.467831 C40.7457549,119.00372 37.1284749,127.614751 34.3466981,133.035883 C31.5637086,138.457014 16.2615107,162.582445 10.4178392,175.07662 C4.57538021,187.572008 1.79239074,194.908049 0.680407579,199.691685 C-0.432788211,204.475322 -0.432788211,207.983969 2.62789389,208.621464 C5.688576,209.258959 42.4155486,215.00005 47.1448118,215.637545 C51.8752876,216.27504 62.4385213,213.723848 64.3908581,215.637545 C66.3431949,217.551242 71.6302686,221.697384 74.4120455,219.146192 C77.1950349,216.595 80.3393886,205.918776 82.8010307,205.99513 C85.2638855,206.070272 96.696576,207.983969 98.631936,206.707767 C100.566083,205.431565 100.036163,205.750312 98.631936,200.966675 C97.2277086,196.183039 98.3409044,186.934513 95.2802223,186.297018 C92.2195402,185.658311 82.480896,185.977058 82.480896,185.977058 C82.480896,185.977058 88.6022602,181.405516 89.715456,182.575065 C90.8286518,183.745826 96.9754813,185.658311 98.631936,186.297018 C100.288391,186.934513 99.4589507,183.458589 95.8392455,181.687904 C92.2195402,179.917219 87.7679697,178.642229 84.9849802,179.599684 C82.2032034,180.555926 77.7516328,185.339563 76.3595318,187.25326 C74.9686434,189.166957 67.4563907,202.597984 67.4563907,202.597984 C67.4563907,202.597984 49.9278013,195.864291 46.3105213,193.950594 C42.6932413,192.036897 32.4174013,187.190238 30.4699149,187.510197 C36.5900665,182.725349 39.0941507,175.39052 40.7639444,172.52058 C42.4337381,169.649429 49.1117002,155.298518 49.9459907,151.471124 C54.3975613,148.281225 65.7368792,139.425377 67.988736,141.812953 C70.2393802,144.198106 71.5538728,102.450664 71.5538728,102.450664" id="Fill-34" fill="#1F191A"></path>
                            <path d="M59.9888842,101.816805 C51.8424253,104.900051 48.0420379,108.31174 48.9418105,109.723683 C49.8403705,111.135625 53.0526316,108.954083 61.0171958,114.346128 C68.98176,119.738172 69.88032,120.764709 69.88032,120.764709 C69.88032,120.764709 68.3390653,113.096589 69.88032,113.014175 C71.4215747,112.932974 75.0194526,120.764709 75.0194526,120.764709 L73.8626021,110.237557 L59.9888842,101.816805 Z" id="Fill-36" fill="#251F20"></path>
                            <path d="M114.079528,91.6530012 L114.079528,113.013933 L93.5484632,113.013933 L93.5484632,91.6530012 C98.4972126,96.7553855 102.771739,99.3950513 103.814602,99.3950513 C104.857465,99.3950513 109.130779,96.7553855 114.079528,91.6530012" id="Fill-38" fill="#FBC29C"></path>
                            <path d="M122.292561,118.909308 C106.89699,135.436912 104.430498,157.76863 104.430498,157.76863 C104.430498,157.76863 101.967643,135.436912 86.5672219,118.909308 C84.2074408,116.229647 84.1734872,108.915422 86.5126535,101.818138 C96.7387756,97.1969054 104.771247,97.4780819 104.771247,97.4780819 C104.771247,97.4780819 113.350616,98.5518853 122.622397,102.689543 C124.682658,109.502014 124.555331,116.339936 122.292561,118.909308" id="Fill-40" fill="#FBC29C"></path>
                            <path d="M114.079528,72.1378964 L114.079528,93.6575959 C109.130779,98.7599802 104.857465,101.399646 103.814602,101.399646 C102.771739,101.399646 98.4972126,98.7599802 93.5484632,93.6575959 L93.5484632,72.1378964 L114.079528,72.1378964 Z" id="Fill-42" fill="#CA916B"></path>
                            <path d="M131.257061,22.5838072 C129.036733,9.39517405 121.523267,6.48281553 103.812783,6.48281553 C86.1035116,6.48281553 78.5900463,9.39517405 76.3697179,22.5838072 C75.6639663,26.7566122 75.4917726,31.3754213 75.6930695,36.3044941 C75.8943663,41.2747739 76.48128,46.5601653 77.2864674,52.0249279 C77.4344084,53.0235893 77.6029642,54.0089191 77.7909221,54.9748574 C78.0783158,56.4643658 78.4093642,57.9163032 78.7804295,59.3270337 C84.9127074,82.6452933 101.665213,95.1758279 103.812783,95.1758279 C105.961566,95.1758279 122.714072,82.6452933 128.846349,59.3270337 C129.216202,57.9163032 129.547251,56.4643658 129.835857,54.9748574 C130.022602,54.0089191 130.192371,53.0235893 130.339099,52.0249279 C131.145499,46.5601653 131.732413,41.2747739 131.933709,36.3044941 C132.135006,31.3754213 131.962813,26.7566122 131.257061,22.5838072" id="Fill-44" fill="#FBC29C"></path>
                            <path d="M131.257061,22.5838072 L103.812783,9.53333837 L76.3697179,22.5838072 C75.6639663,26.7566122 75.4917726,31.3754213 75.6930695,36.3044941 C75.8943663,41.2747739 76.48128,46.5601653 77.2864674,52.0249279 C77.4344084,53.0235893 77.6029642,54.0089191 77.7909221,54.9748574 C78.0783158,56.4643658 78.4093642,57.9163032 78.7804295,59.3270337 C80.6769853,60.5377894 83.0779958,61.4213139 86.0356042,61.4213139 C95.4419874,61.4213139 98.2237642,57.2291175 99.5055158,55.6462876 C100.789693,54.0670936 102.823276,50.9656681 103.812783,50.9656681 C104.803503,50.9656681 106.835874,54.0670936 108.121263,55.6462876 C109.401802,57.2291175 112.183579,61.4213139 121.591175,61.4213139 C124.548783,61.4213139 126.949794,60.5377894 128.846349,59.3270337 C129.216202,57.9163032 129.547251,56.4643658 129.835857,54.9748574 C130.022602,54.0089191 130.192371,53.0235893 130.339099,52.0249279 C131.145499,46.5601653 131.732413,41.2747739 131.933709,36.3044941 C132.135006,31.3754213 131.962813,26.7566122 131.257061,22.5838072" id="Fill-46" fill="#1F191A"></path>
                            <path d="M99.8796126,46.9569635 C99.8796126,50.2377603 93.3592926,57.9567829 86.4097011,57.9567829 C82.9767411,57.9567829 79.9609263,56.4721224 77.7903158,54.9753422 C77.6035705,54.0094039 77.4350147,53.0240741 77.2870737,52.0254127 C76.4806737,46.5606501 75.89376,41.2752587 75.6924632,36.303767 C76.07808,34.6676105 76.5607074,33.5841113 77.1573221,33.5841113 C89.5625432,33.9525495 99.8796126,46.9569635 99.8796126,46.9569635" id="Fill-48" fill="#F1F2F2"></path>
                            <path d="M107.746924,46.9569635 C107.746924,50.2377603 114.267244,57.9567829 121.216835,57.9567829 C124.649795,57.9567829 127.66561,56.4721224 129.836221,54.9753422 C130.022966,54.0094039 130.191522,53.0240741 130.339463,52.0254127 C131.145863,46.5606501 131.732776,41.2752587 131.934073,36.303767 C131.548456,34.6676105 131.065829,33.5841113 130.469214,33.5841113 C118.063993,33.9525495 107.746924,46.9569635 107.746924,46.9569635" id="Fill-50" fill="#F1F2F2"></path>
                            <path d="M108.792576,62.8125317 C108.57794,62.2453308 105.547574,59.2614662 104.237932,59.2614662 C102.929502,59.2614662 98.9399444,62.4586371 98.7265213,63.025838 C98.5118855,63.593039 102.722142,63.5821312 103.813511,63.5821312 C104.904879,63.5821312 109.007212,63.3797326 108.792576,62.8125317" id="Fill-52" fill="#CA916B"></path>
                            <path d="M106.591165,70.7744327 C105.903603,70.7744327 104.233809,72.2906044 103.813026,72.2906044 C103.393455,72.2906044 101.723661,70.7744327 101.034887,70.7744327 C100.348537,70.7744327 95.0566131,73.0759595 91.3241331,71.9706449 C93.2873836,73.807988 92.8484109,75.3253716 95.0444867,77.4838862 C97.8905331,80.574404 103.813026,80.5186535 103.813026,80.5186535 C103.813026,80.5186535 109.735518,80.574404 112.582777,77.4838862 C114.77764,75.3253716 114.338668,73.807988 116.303131,71.9706449 C112.569438,73.0759595 107.278727,70.7744327 106.591165,70.7744327" id="Fill-54" fill="#DE1829"></path>
                            <path d="M109.880913,75.2322925 L103.812904,75.2322925 L97.7461086,75.2322925 C97.3520034,75.2322925 97.6466728,75.9679569 99.2667486,76.4260807 C100.333864,76.7290727 102.480222,76.790883 103.812904,76.7981548 C105.145587,76.790883 107.291944,76.7290727 108.360273,76.4260807 C109.980349,75.9679569 110.275018,75.2322925 109.880913,75.2322925" id="Fill-56" fill="#FBB4BA"></path>
                            <path d="M68.1984,96.9997182 L58.5179621,92.1882062 C57.3392842,96.7694443 56.8784842,98.5837601 55.2426442,103.341945 C55.2426442,103.341945 58.5252379,102.989263 62.5390484,106.968153 C63.6946863,108.114674 66.6122779,111.912981 68.1984,111.463341 C69.7845221,111.012489 68.1984,96.9997182 68.1984,96.9997182" id="Fill-58" fill="#6D6E72"></path>
                            <path d="M111.383606,124.511023 C107.449829,132.375481 105.84673,141.696725 105.628456,145.778633 C104.025357,133.549878 97.0308985,127.350663 97.0308985,127.350663 C98.3526669,131.791313 99.0547806,135.756871 99.3264101,139.290969 C103.511202,149.492102 104.430376,157.76863 104.430376,157.76863 C104.430376,157.76863 105.516894,147.962599 110.72636,136.538591 C110.725147,133.291729 110.894915,129.307991 111.383606,124.511023" id="Fill-64" fill="#CA916B"></path>
                            <path d="M117.639815,1.95017732 C117.639815,1.95017732 108.176438,-3.79939772 89.8729768,4.44804286 C71.5719411,12.6954834 66.1490526,38.7915732 65.1013389,47.9140545 C64.4065011,53.9714693 45.57312,72.4976085 42.8919916,115.872722 C43.8705853,114.087494 44.9110232,112.276814 46.0327074,110.468558 C50.0295411,104.013618 57.6836716,101.809049 64.8757895,101.818744 L69.2594526,98.5512793 C71.3560926,68.193911 75.2595537,58.7623779 89.8729768,47.9164784 C106.405996,35.6440929 116.025802,20.4229899 116.025802,20.4229899 C116.025802,20.4229899 120.778105,15.4127152 121.192825,11.1417408 C121.606333,6.87076641 117.639815,1.95017732 117.639815,1.95017732" id="Fill-66" fill="#6D6E72"></path>
                            <path d="M78.9729954,125.790497 C70.4748733,123.795598 60.6986375,135.783171 57.201408,142.148426 C60.3166585,148.92575 73.5222164,149.919563 73.5222164,149.919563 C73.5222164,149.919563 94.7359933,147.930724 97.0315048,146.613315 C91.784448,138.550094 87.7718501,127.856902 78.9729954,125.790497" id="Fill-68" fill="#251F20"></path>
                            <path d="M129.750124,125.790497 C138.373147,123.795598 148.291261,135.783171 151.839421,142.148426 C148.679303,148.92575 135.280936,149.919563 135.280936,149.919563 C135.280936,149.919563 113.757939,147.930724 111.429686,146.613315 C116.751926,138.550094 120.82273,127.856902 129.750124,125.790497" id="Fill-70" fill="#251F20"></path>
                            <path d="M108.792576,29.9912329 C81.9946307,60.0359136 65.200896,47.1066416 65.7950855,98.623755 C65.7950855,113.591557 75.7229002,129.295023 82.1595486,133.18544 C76.5268749,125.131914 72.2353718,116.976583 72.2353718,113.190395 C76.5268749,120.181025 80.591616,120.181025 80.591616,120.181025 C80.591616,120.181025 70.4224876,99.4418332 71.3695528,87.5584894 C74.1913465,52.1363078 97.3865634,46.1322195 108.792576,29.9912329" id="Fill-72" fill="#3F3E40"></path>
                            <path d="M127.343171,53.5636422 C121.058102,79.6427644 122.97891,100.300755 127.168552,112.777963 C128.632199,117.138623 130.681546,123.643254 132.727256,130.266658 C133.724039,126.673173 129.40707,114.776498 132.370742,104.698986 C134.868763,104.698986 137.230969,122.376747 138.814666,122.404623 C137.549891,115.827274 140.402001,110.043764 137.992502,102.969508 C142.160317,102.969508 147.942144,103.001019 157.901487,105.879442 C156.03646,101.24003 144.600131,86.3594897 142.271879,70.8147912 C139.942413,55.2700928 140.874927,37.3208503 132.727256,20.2733118 C124.578371,3.22698535 117.639693,1.9507833 117.639693,1.9507833 C117.639693,1.9507833 121.606211,6.87016042 121.192704,11.1423468 C120.777984,15.4121092 116.025681,20.4223839 116.025681,20.4223839 C121.700797,22.0585403 129.787837,42.51898 127.343171,53.5636422" id="Fill-74" fill="#3F3E40"></path>
                            <path d="M145.390646,103.28571 C145.390646,103.28571 140.081745,100.962368 136.652423,91.8471585 C133.224313,82.731949 134.702511,63.7658656 134.702511,63.7658656 C134.702511,63.7658656 131.569071,74.1294018 133.816077,85.9412396 C136.061871,97.7530774 137.992381,102.969387 137.992381,102.969387 C139.881661,102.969387 142.504583,102.788803 145.390646,103.28571 Z" id="Fill-76" fill="#6D6E72"></path>
                            <path d="M79.610112,185.257998 C80.0296825,185.257998 81.7055394,184.325995 82.5483183,183.720011 C83.3910973,183.114027 86.6385246,180.434366 87.2860699,180.50466 C87.9336152,180.573742 95.0614636,182.150512 96.1128152,183.040097 C97.166592,183.929681 97.6746846,182.657115 96.5166215,182.058403 C95.3585583,181.459691 89.0892531,178.815177 85.853952,179.379954 C82.6174383,179.944731 78.8255394,184.069057 78.9734804,184.419316 C79.1202088,184.768363 79.610112,185.257998 79.610112,185.257998" id="Fill-78" fill="#251F20"></path>
                            <path d="M31.2706156,141.140069 C30.3829693,142.411423 18.3573019,162.761573 17.7606872,164.008688 C15.7210408,168.274815 26.9791124,154.660781 29.5644429,152.119285 C33.3017735,148.442174 38.4166535,148.226444 37.8879461,145.052301 C37.3580261,141.876945 33.191424,138.391326 31.2706156,141.140069" id="Fill-94" fill="#251F20"></path>
                        </g>
                    </g>
                </g>
            </g>
        </g>
    </g>
</svg>