<?xml version="1.0" encoding="UTF-8" standalone="no"?>
<svg width="92px" height="107px" viewBox="0 0 92 107" version="1.1" xmlns="http://www.w3.org/2000/svg" xmlns:xlink="http://www.w3.org/1999/xlink">
    <!-- Generator: sketchtool 46 (44420) - http://www.bohemiancoding.com/sketch -->
    <title>sc-graphic-readability-info</title>
    <desc>Created with sketchtool.</desc>
    <defs>
        <rect id="path-1" x="0" y="0" width="100" height="107"></rect>
        <polygon id="path-3" points="75.8223704 0.219024129 0.000148148148 0.219024129 0.000148148148 117.687954 75.8223704 117.687954 75.8223704 0.219024129"></polygon>
        <polygon id="path-5" points="0.669333333 0.219024129 56.8219259 0.219024129 56.8219259 83.5622928 0.669333333 83.5622928"></polygon>
    </defs>
    <g id="Design" stroke="none" stroke-width="1" fill="none" fill-rule="evenodd">
        <g id="In-Post---Readability---Needs-Improvement" transform="translate(-242.000000, -371.000000)">
            <g id="sc-graphic-readability-info" transform="translate(240.000000, 371.000000)">
                <mask id="mask-2" fill="white">
                    <use xlink:href="#path-1"></use>
                </mask>
                <g id="mask"></g>
                <g id="graphic" mask="url(#mask-2)">
                    <path d="M17.838,122.420947 C17.838,122.420947 19.1142963,108.671263 14.3920741,100.673923 C11.2498519,95.3529684 7.32096296,96.3585555 10.2987407,84.083585 C13.2772593,71.8086145 23.358,60.4164 23.358,60.4164 L34.2742963,40.5924965 L36.8239259,37.1976225 L49.5802222,59.7423088 L50.8017037,71.6510059 L22.1357778,99.7571292 C22.1357778,99.7571292 27.3876296,110.187413 17.838,122.420947" id="Fill-1" fill="#3F3E40"></path>
                    <g id="Group-5" transform="translate(0.000000, 0.520922)">
                        <mask id="mask-4" fill="white">
                            <use xlink:href="#path-3"></use>
                        </mask>
                        <g id="Clip-4"></g>
                        <path d="M66.4512593,1.66880107 C61.8371852,1.30326756 49.954963,-4.62148311 37.9831111,10.4586241 C26.0112593,25.5387314 27.6964444,43.8953212 21.834963,51.5515464 C15.9727407,59.2070316 7.01125926,64.2416268 6.91051852,83.6496804 C6.84162963,96.8658627 0.725333333,108.227739 0.000148148148,117.687954 C1.29422222,114.165809 31.2112593,95.9875464 22.492,83.2493694 C21.5645926,81.8937877 24.7260741,116.299075 25.8238519,115.007868 C35.1327407,104.059621 75.8223704,71.3140343 75.8223704,71.3140343 L66.4512593,1.66880107 Z" id="Fill-3" fill="#3F3E40" mask="url(#mask-4)"></path>
                    </g>
                    <path d="M82.7800741,80.4531861 C82.7800741,80.4531861 84.1793333,80.5368 92.9837778,97.6473201 C92.5741481,112.024478 94.9963704,121.263449 95.7704444,148.371384 C99.5615556,157.443127 99.9341481,167.413905 98.5615556,182.188414 C97.188963,196.962923 87.746,228.973744 87.746,228.973744 L82.7800741,220.638988 C82.7800741,220.638988 85.023037,177.931502 84.8334074,169.993358 C84.6452593,162.055213 84.8334074,151.374827 84.8334074,151.374827 C84.8334074,151.374827 79.4008148,125.058634 76.4111852,103.785915 C73.4215556,82.5131968 82.7800741,80.4531861 82.7800741,80.4531861" id="Fill-6" fill="#171212"></path>
                    <path d="M56.4093333,56.1812429 C57.1248889,60.7326531 57.6804444,65.3092214 58.0752593,69.8991088 C60.8448889,68.2024118 63.5567407,66.4110016 66.2048889,64.5300579 C66.4871111,64.3287925 66.7834074,64.1082885 66.9063704,63.7849319 C67.0137778,63.4993126 73.0108148,58.6541437 72.9597037,58.3529855 C72.0922963,53.2628944 70.1752593,48.1010284 71.3715556,43.0782724 C69.9374815,44.7364922 61.8567407,50.2476129 60.0152593,51.4381866 C58.173037,52.6287603 56.3797037,54.2351839 55.9619259,56.386948" id="Fill-22" fill="#CA916B"></path>
                    <path d="M35.4428889,113.768458 C35.4428889,113.768458 35.396963,115.210613 34.8665926,122.692951 C33.9265926,135.940211 21.7191852,154.771107 21.5302963,155.067085 L33.8880741,147.436758 L73.3688148,160.982217 C70.8895556,155.798892 68.8406667,148.551117 70.2932593,140.92375 C73.2702963,125.282024 93.5599259,110.025809 92.9843704,97.6472461 C92.4073333,85.2686831 82.6095556,74.713348 79.4399259,71.6425705 C76.2688148,68.571793 73.3888148,50.8574767 73.3888148,50.8574767 C73.3888148,50.8574767 54.3673333,63.6777877 53.3102963,67.7082756 C52.2532593,71.7387635 48.7658519,75.6678788 39.8325185,81.7132408 C30.8984444,87.7586027 23.974,94.9612408 25.4888148,102.56271 C26.6584444,108.431965 35.4428889,113.768458 35.4428889,113.768458" id="Fill-24" fill="#1F191A"></path>
                    <path d="M33.8984444,98.2180408 C33.9147407,98.2602177 33.9347407,98.3009147 33.954,98.3416118 C33.8843704,98.3401319 33.8154815,98.339392 33.7451111,98.3364322 C33.7962222,98.297215 33.8473333,98.2572579 33.8984444,98.2180408 M48.614,79.8392525 C47.436963,79.8214938 46.354,80.1241319 45.3302963,80.5888182 C45.2043704,80.4696869 44.9954815,80.4230702 44.8154815,80.5555206 C44.2221481,80.9898692 43.636963,81.4330971 43.056963,81.8815046 C42.9177037,81.9732579 42.7784444,82.0657512 42.6399259,82.1589845 C40.8428889,83.3687968 39.0888148,84.6466842 37.3888148,85.9889469 C34.136963,88.555081 30.9332593,91.3431989 28.5547407,94.7654509 C27.5043704,96.2771614 25.956963,98.5362177 27.8658519,100.047188 C28.5317778,100.57403 29.3473333,100.70944 30.1621481,100.84633 C31.1991852,101.020958 32.2428889,101.160808 33.294,101.214084 C35.4821481,101.325076 37.6414074,101.034277 39.6051111,100.263253 C40.9088148,100.005751 42.2295556,99.6098799 43.3177037,98.9417083 C44.9725185,97.9257619 45.7777037,96.0921748 46.5643704,94.3991775 C48.4451111,90.347971 49.8621481,85.8061802 49.9836296,81.3073062 C50.0036296,80.5518209 49.3880741,79.8510917 48.614,79.8392525" id="Fill-26" fill="#251F20"></path>
                    <path d="M91.5951852,105.211718 C91.3633333,101.633337 90.1025926,97.9905812 88.9388889,94.6216054 C87.2314815,89.6832032 85.0374074,82.855718 79.6974074,80.7217126 C72.8603704,77.9898306 67.3707407,84.3962863 63.8225926,89.3953641 C63.5833333,85.4477501 60.2662963,82.069155 56.2996296,81.7850155 C55.9151852,81.6673641 55.53,81.7243399 55.1337037,81.8257126 C55.0737037,81.8405115 55.01,81.8575303 54.9448148,81.876029 C54.9011111,81.7472783 54.7611111,81.6488654 54.61,81.7391389 C50.847037,83.9930155 47.55,86.9431818 44.9174074,90.4527475 C42.2818519,93.9674928 39.8714815,98.3242971 39.5981481,102.792093 C39.372963,106.480726 41.1551852,110.574849 44.8877778,111.818699 C45.1003704,111.889734 45.792963,111.927471 45.8974074,112.056222 C45.8588889,112.517949 45.8107407,112.978195 45.7537037,113.436222 L38.9855556,139.503053 C38.9818519,139.511192 38.9751852,139.517112 38.9722222,139.525991 C38.8685185,139.813091 38.7766667,140.10241 38.6907407,140.393949 C38.3262963,141.246367 37.9544444,142.095825 37.5640741,142.937884 C37.5077778,143.058495 35.2262963,151.809101 35.3914815,151.83278 C46.0855556,153.363729 58.8588889,147.6839 68.8359259,151.819461 C68.9618519,151.871997 69.087037,151.761745 69.1277778,151.654453 C71.6840741,144.827707 74.7114815,138.183729 78.207037,131.785412 C79.9248148,128.64138 81.7522222,125.557284 83.6862963,122.540522 C85.5233333,119.67545 87.5951852,116.939128 89.2440741,113.957884 C90.7292593,111.275579 91.7959259,108.318753 91.5951852,105.211718" id="Fill-28" fill="#171212"></path>
                    <path d="M29.8453333,139.668061 C30.4157037,139.565949 31.0142222,139.456436 31.6482963,139.336565 C38.1823704,123.862066 36.6445926,116.91545 36.4682963,114.283461 C26.2579259,105.936125 27.0505185,102.847589 26.8527407,98.9791496 C27.5771852,93.3274391 31.8223704,88.265466 35.7779259,84.6589673 C28.9231111,90.0420772 24.2127407,96.1606938 25.4882963,102.56271 C26.6579259,108.431965 35.4431111,113.768458 35.4431111,113.768458 C35.4431111,113.768458 35.3971852,115.210613 34.8660741,122.692951 C34.4912593,127.973209 32.3268148,134.140662 29.8453333,139.668061" id="Fill-30" fill="#1F191A"></path>
                    <path d="M56.5033333,79.0335989 C55.307037,81.8794327 55.6722222,85.1781137 58.6262963,93.0681619 C61.5811111,100.95895 62.9522222,111.063658 69.527037,118.472001 C63.8811111,119.5945 58.9751852,122.008945 54.39,126.245138 C49.8062963,130.480591 65.3633333,133.831808 69.487037,131.669685 C73.6107407,129.508301 83.7285185,125.010167 83.2418519,122.179872 C82.7544444,119.348838 79.4618519,100.602296 78.592963,90.1179957 C77.7248148,79.6336954 75.1403704,74.9143174 68.3233333,73.9420279 C61.5062963,72.9689984 57.0351852,77.7690306 56.5033333,79.0335989" id="Fill-40" fill="#171212"></path>
                    <path d="M83.2416296,122.179576 C82.7542222,119.349282 79.5697778,101.776295 78.7008889,91.2919946 C78.6675556,90.8924236 78.6312593,90.5024718 78.5934815,90.1176997 C77.4579259,97.1597694 67.5823704,107.795019 66.414963,114.215534 C67.2994074,115.686547 68.3208889,117.113164 69.5268148,118.471705 C63.8808889,119.594944 58.974963,122.009389 54.3905185,126.244842 C49.8060741,130.481035 42.8416296,141.762257 38.2216296,143.897743 C31.9260741,146.807212 30.0557037,146.930783 30.0557037,146.930783 L21.0534815,157.069528 C21.0534815,157.069528 30.8623704,159.146558 35.674963,158.320038 C40.4875556,157.492777 71.3771852,134.424209 75.1053333,131.636091 C80.4460741,127.641121 83.7282963,125.009871 83.2416296,122.179576" id="Fill-42" fill="#1F191A"></path>
                    <path d="M81.3579259,27.8378188 L81.3579259,27.8585373 L81.3579259,27.8378188 Z" id="Fill-48" fill="#022942"></path>
                    <path d="M32.9711111,30.5367732 C32.9711111,30.5367732 36.2681481,45.2661458 42.1577778,53.695615 C48.0481481,62.1250842 49.8962963,61.5109287 50.6274074,61.5730842 C51.3577778,61.6352397 67.1948148,53.5380064 70.82,46.4019635 C74.4451852,39.2659206 73.1718519,18.1700493 73.1718519,18.1700493 L59.2340741,11.8901244 L32.9711111,30.5367732 Z" id="Fill-54" fill="#FBC29C"></path>
                    <path d="M64.1060741,18.2647625 C61.4364444,16.3046445 58.2082963,15.3360547 54.8868148,14.9771807 L33.9905185,29.8131056 C33.7438519,30.5056954 33.5179259,31.2071646 33.3038519,31.9108536 C34.1831111,35.3871217 36.7771852,44.7415239 40.8082963,51.5852879 C41.4231111,48.9791968 42.4364444,46.5403335 44.3008889,44.6505105 C44.954963,43.9860386 45.7682963,43.235733 45.6297778,42.3137598 C45.5734815,41.9430466 45.3623704,41.6122906 45.292,41.2452772 C45.1401481,40.460934 45.6379259,39.7113684 46.1231111,39.0757544 C51.4838519,32.0425641 58.2682963,26.2443442 64.3971852,19.8674863 C64.5468148,19.7120976 64.7016296,19.5448697 64.7482963,19.3347249 C64.8453333,18.9040761 64.4616296,18.5267035 64.1060741,18.2647625" id="Fill-56" fill="#CA916B"></path>
                    <path d="M36.1358519,39.7200257 C36.1358519,39.7200257 38.0906667,41.4226424 42.2432593,40.6923153 C46.3965926,39.9627282 47.4365926,36.445763 48.4232593,36.8993501 C49.4091852,37.3536772 51.7291852,42.6294949 58.3202963,42.7330874 C64.9128889,42.8359399 70.8521481,38.8276504 72.3988148,33.7634574 C73.9447407,28.6992643 68.406963,15.0546531 68.406963,15.0546531 L41.5514074,19.8731839 L36.1358519,39.7200257 Z" id="Fill-58" fill="#1F191A"></path>
                    <path d="M50.806,35.5650048 C50.806,35.5650048 53.0497037,39.440844 57.6637778,39.9454874 C62.2771111,40.4501308 69.7245185,34.3773909 70.6193333,31.2777555 C71.5141481,28.1781201 68.6615556,23.4217448 68.6615556,23.4217448 C68.6615556,23.4217448 61.3400741,25.2457126 50.806,35.5650048" id="Fill-60" fill="#D2D4D5"></path>
                    <path d="M47.0408148,34.5847979 C47.0408148,34.5847979 45.2326667,38.115082 41.4948889,38.5627496 C37.7571111,39.0104172 31.706,33.4526799 30.9726667,30.622385 C30.2385926,27.79283 32.5378519,23.4619239 32.5378519,23.4619239 C32.5378519,23.4619239 39.9697037,23.4856021 47.0408148,34.5847979" id="Fill-62" fill="#3F3E40"></path>
                    <g id="Group-66" transform="translate(9.629630, 0.520922)">
                        <mask id="mask-6" fill="white">
                            <use xlink:href="#path-5"></use>
                        </mask>
                        <g id="Clip-65"></g>
                        <path d="M28.3537778,10.4585501 C25.0226667,14.6547861 22.7508148,19.1048236 21.0774815,23.5075046 C20.7382222,29.4107968 21.8219259,35.0218102 21.376,38.6475475 C18.6419259,60.8984751 2.64340741,60.1807271 0.669333333,83.5622928 C2.59822222,72.2958692 15.2611852,65.4957619 21.7300741,47.6334563 C22.4263704,45.7095957 23.1671111,43.7487378 24.3078519,42.0357619 C25.4619259,40.3028075 26.9922963,39.053778 28.6093333,37.7721909 C33.1567407,34.1656922 37.7056296,30.5599335 42.2537778,26.9534349 C43.9137778,25.6370702 46.1471111,25.156845 47.9167407,23.8944965 C50.2152593,22.2540354 51.8411852,19.9054456 53.0722963,17.3962874 L56.8219259,1.66872708 C52.2071111,1.30319357 40.3256296,-4.6215571 28.3537778,10.4585501" id="Fill-64" fill="#6D6E72" mask="url(#mask-6)"></path>
                    </g>
                    <path d="M36.4997037,29.0514788 C36.4997037,29.0514788 31.013037,28.0177737 25.6315556,37.8013448 C17.7841481,52.0689909 9.46488889,56.6056021 5.59007407,57.1982992 C14.8485926,51.1677362 28.4078519,29.9690123 31.9345185,21.0482188 C37.8315556,6.13015979 36.4997037,29.0514788 36.4997037,29.0514788" id="Fill-67" fill="#6D6E72"></path>
                    <path d="M45.9094815,41.8296129 C45.9094815,41.8296129 44.7035556,40.5961223 45.1583704,40.5332268 C45.6139259,40.4688515 49.4976296,41.6993823 49.710963,41.7319399 C49.9242963,41.7652375 48.4798519,42.3986316 47.7583704,42.7293877 C47.0361481,43.0608836 45.9094815,41.8296129 45.9094815,41.8296129" id="Fill-69" fill="#CA916B"></path>
                    <path d="M42.7258519,48.3146509 C42.7258519,48.3146509 43.8295556,49.2669619 43.9421481,49.8026831 C44.0532593,50.3391442 43.6443704,53.1132032 46.914,53.4269405 C52.2095556,53.9338038 56.0028889,50.0846027 56.9028889,49.3379968 C57.556963,48.9295464 58.7695556,47.7456322 59.2643704,47.5895035 C57.3488148,48.7016429 52.5754815,48.3797662 51.6214074,48.0860075 C50.8643704,47.8529244 49.9384444,46.9553694 48.8695556,47.265407 C48.5865926,47.347541 48.1584444,47.8943614 47.8391852,48.1392836 C47.3280741,47.7907689 47.194,47.2298895 46.1443704,47.3726992 C45.5925185,47.4474338 44.8547407,48.2376965 42.7258519,48.3146509" id="Fill-71" fill="#DE1829"></path>
                    <path d="M44.6153333,49.9033158 C44.5057037,49.9514123 44.0486667,50.6728601 45.0642222,50.7853319 C46.0805185,50.8992836 49.6397778,50.9799378 52.404963,50.1955946 C53.9531111,49.7945437 54.8294074,49.6569137 54.2960741,49.6546938 C53.7634815,49.651734 48.9945926,49.7338681 48.6368148,49.7997233 C48.2782963,49.8670584 47.8153333,49.9854499 47.5894074,49.9987689 C47.3634815,50.0128279 46.7464444,49.8714981 46.2257037,49.832281 C45.704963,49.7938038 44.8523704,49.7989834 44.6153333,49.9033158" id="Fill-73" fill="#FBB4BA"></path>
                    <path d="M27.5283704,97.5362542 C37.420963,91.5419485 46.6854074,84.5131979 55.1202222,76.6009512 C56.255037,75.5369083 57.3868889,74.4299485 58.4772593,73.2837716 C64.1565185,67.8436858 65.6735556,60.7853373 65.3846667,53.5064847 C65.3128148,51.6869566 65.1276296,49.8541094 64.8661481,48.0294016 C63.7920741,42.7846617 63.0372593,37.5029244 61.4535556,32.4135732 C61.0172593,30.4645544 60.7120741,28.4933373 60.6239259,26.4806831 C60.5365185,24.468029 60.6646667,22.4146777 61.0972593,20.3028708 C61.235037,18.3605115 61.4528148,16.4233319 61.7505926,14.4987314 C62.3276296,10.7694016 63.2454074,7.12960536 64.5935556,3.59932118 C64.8068889,3.03992172 65.0594815,2.44796461 65.5646667,2.12460804 C66.5068889,1.52155174 67.7305926,2.15272601 68.6498519,2.79203968 C70.2617037,3.91305845 71.8357778,5.09845255 73.3587407,6.34822198 C84.1476296,16.5713212 85.5639259,32.8368225 82.998,46.6960182 C81.6817037,53.806163 79.298,60.7831174 75.8498519,67.1473962 C71.9105926,74.4203292 66.5594815,77.679793 58.1765185,78.7527153 C56.1120741,80.0224633 54.1794815,81.5260343 52.4165185,83.1746349 C47.7128148,87.5713962 44.078,92.970785 40.6646667,98.4278895 C41.4128148,96.3286617 42.160963,94.2286938 42.9098519,92.129466 C37.9928148,94.6475035 32.8439259,96.7126938 27.5491111,98.2917394" id="Fill-75" fill="#3F3E40"></path>
                    <path d="M91.4288148,94.6700718 C90.4747407,92.3192622 90.254,89.7812461 89.1717778,87.4659539 C88.074,85.1173641 87.0206667,82.6304043 85.5273333,80.5067582 C83.0243704,76.9476161 78.9851111,74.5561094 77.3777037,70.3628332 C77.1584444,69.7901147 76.3991852,70.2089244 76.4554815,70.7143078 C76.9562222,75.2176214 80.4006667,78.343155 83.1295556,81.6595946 C84.7777037,83.6618895 86.3732593,85.6160879 87.7495556,87.8203882 C89.1873333,90.1223614 89.4080741,92.749171 90.411037,95.2176322 C90.6895556,95.9050424 91.7058519,95.3537823 91.4288148,94.6700718" id="Fill-85" fill="#251F20"></path>
                </g>
            </g>
        </g>
    </g>
</svg>