<?xml version="1.0" encoding="UTF-8"?>
<svg width="93px" height="210px" viewBox="0 0 93 210" version="1.1" xmlns="http://www.w3.org/2000/svg" xmlns:xlink="http://www.w3.org/1999/xlink">
    <!-- Generator: sketchtool 61.2 (101010) - https://sketch.com -->
    <title>E50C5F53-DDB0-4338-AA11-7E4AE5B862B7</title>
    <desc>Created with sketchtool.</desc>
    <defs>
        <rect id="path-1" x="0" y="0" width="100" height="210"></rect>
        <polygon id="path-3" points="0.042 0.377241379 70.6351034 0.377241379 70.6351034 109.862276 0.042 109.862276"></polygon>
        <polygon id="path-5" points="0.665034483 0.377241379 52.9450345 0.377241379 52.9450345 78.056069 0.665034483 78.056069"></polygon>
    </defs>
    <g id="Dashboard" stroke="none" stroke-width="1" fill="none" fill-rule="evenodd">
        <g id="Dashboard---New---Free" transform="translate(-730.000000, -2970.000000)">
            <g id="Dashboard-/-Reports---Free" transform="translate(695.000000, 2666.000000)">
                <g id="Graphic-/-Dashboard-/-Reports" transform="translate(30.000000, 304.000000)">
                    <g id="smartcrawl-graphic-dashboard-reports">
                        <mask id="mask-2" fill="white">
                            <use xlink:href="#path-1"></use>
                        </mask>
                        <g id="Mask"></g>
                        <g id="Graphic" mask="url(#mask-2)">
                            <g transform="translate(50.000000, 178.000000) scale(-1, 1) translate(-50.000000, -178.000000) ">
                                <path d="M18.7186207,114.100483 C18.7186207,114.100483 19.9068966,101.28531 15.5103448,93.8315172 C12.5848276,88.8722069 8.92689655,89.8094483 11.6993103,78.3687586 C14.4724138,66.928069 23.857931,56.3101379 23.857931,56.3101379 L34.0213793,37.8335862 L36.3951724,34.6694483 L48.2717241,55.6818621 L49.4089655,66.7811724 L22.72,92.9770345 C22.72,92.9770345 27.6096552,102.698414 18.7186207,114.100483" id="Fill-1" fill="#3F3E40"></path>
                                <g id="Group-5" stroke-width="1" fill="none" transform="translate(2.068966, 0.312414)">
                                    <mask id="mask-4" fill="white">
                                        <use xlink:href="#path-3"></use>
                                    </mask>
                                    <g id="Clip-4"></g>
                                    <path d="M61.9102759,1.72848276 C57.6144138,1.3877931 46.5516552,-4.13427586 35.4054483,9.92089655 C24.2592414,23.976069 25.8282069,41.0850345 20.3709655,48.2208966 C14.9130345,55.356069 6.56958621,60.0484828 6.4757931,78.1374483 C6.41165517,90.4553793 0.717862069,101.045034 0.042,109.862276 C1.24682759,106.579517 29.1006207,89.6367586 20.9826897,77.7643448 C20.1192414,76.5008966 23.0626897,108.567793 24.0847586,107.364345 C32.7516552,97.1602069 70.6351034,66.6402069 70.6351034,66.6402069 L61.9102759,1.72848276 Z" id="Fill-3" fill="#3F3E40" mask="url(#mask-4)"></path>
                                </g>
                                <path d="M79.181931,74.9851034 C79.181931,74.9851034 80.4846897,75.0630345 88.681931,91.0106207 C88.3005517,104.410621 90.5557241,113.021655 91.2764138,138.287172 C94.806069,146.742345 95.1529655,156.035448 93.8750345,169.805793 C92.5971034,183.576138 83.8053793,213.41131 83.8053793,213.41131 L79.181931,205.643034 C79.181931,205.643034 81.2702069,165.838207 81.0936552,158.439586 C80.9184828,151.040966 81.0936552,141.086483 81.0936552,141.086483 C81.0936552,141.086483 76.0357241,116.558897 73.2522759,96.732 C70.4688276,76.9051034 79.181931,74.9851034 79.181931,74.9851034" id="Fill-6" fill="#171212"></path>
                                <path d="M91.2765517,138.287241 C90.9365517,126.37 90.2558621,118.158276 89.6703448,111.401724 C88.382069,114.543103 86.9875862,119.253448 85.9255172,121.687241 C84.3689655,125.251379 83.2827586,133.598276 81.0503448,143.677586 C81.0255172,145.82931 81.0034483,149.072759 81.0034483,152.436207 L81.0034483,152.468621 L81.0034483,153.455517 L81.0034483,153.49069 L81.0034483,153.951379 L81.0034483,153.99069 C81.0034483,154.905172 80.9262069,155.83 80.9055172,156.754828 C80.882069,157.765172 80.9193103,158.775517 80.9206897,159.785862 C80.922069,161.021034 80.9662069,162.256207 81.0041379,163.49069 C81.0386207,164.60931 80.9896552,165.661724 80.9537931,166.764483 C80.9455172,167.043793 80.9303448,167.32931 80.9206897,167.616207 C80.9165517,167.760345 80.9089655,167.905862 80.9034483,168.051379 C80.8931034,168.342414 80.882069,168.637586 80.8710345,168.935517 C80.8655172,169.085172 80.86,169.235517 80.8544828,169.385862 C80.8434483,169.687931 80.8317241,169.993448 80.8206897,170.301034 C80.8144828,170.455517 80.8082759,170.61 80.802069,170.765862 C80.7910345,171.076897 80.7786207,171.39069 80.7668966,171.707931 C80.7537931,172.024483 80.742069,172.344483 80.7289655,172.665862 C80.7227586,172.827241 80.7158621,172.988621 80.7103448,173.15069 C80.1468966,187.254138 79.182069,205.643103 79.182069,205.643103 L80.5696552,207.973448 L83.8055172,213.411379 C83.8062069,213.408621 86.7448276,203.437586 89.4703448,192.365172 C89.617931,191.765862 89.7648276,191.164483 89.9103448,190.560345 C91.7296552,183.014828 93.3758621,175.184483 93.8751724,169.805862 C94.1944828,166.362414 94.4124138,163.200345 94.5048276,160.260345 C94.7806897,151.441034 93.9241379,144.628621 91.2765517,138.287241" id="Fill-8" fill="#1F191A"></path>
                                <path d="M85.9256552,240.281448 C85.9256552,240.281448 84.9884138,213.606276 84.4001379,207.726966 C83.8125517,201.848345 78.8146207,181.860069 78.8146207,181.860069 C78.8146207,181.860069 82.1953103,173.775931 80.5787586,163.929034 C78.9615172,154.081448 66.7628966,146.879379 62.2063448,146.144897 C53.9318621,144.810414 35.9422069,160.266276 40.013931,173.040759 C44.2753103,186.415931 48.2442759,195.087655 51.3304828,198.467655 C54.4166897,201.848345 63.0891034,226.540069 64.4118621,231.684207 C65.7346207,236.828345 69.556,251.084897 69.556,251.084897 L85.9256552,240.281448 Z" id="Fill-10" fill="#1F191A"></path>
                                <path d="M60.3053103,166.812966 C60.3818621,166.766759 60.4549655,166.715034 60.5287586,166.66469 C60.6266897,166.506759 60.7211724,166.34469 60.8073793,166.174345 L60.3053103,166.812966 Z" id="Fill-12" fill="#161C24"></path>
                                <path d="M27.9615862,257.037241 C27.9615862,257.037241 27.0802069,252.186897 26.9333103,250.717241 C26.7857241,249.247586 25.4629655,247.042759 24.2871034,243.515862 C23.111931,239.988276 14.8077931,177.744138 15.9836552,160.254483 C16.2774483,151.729655 25.6836552,137.473103 31.5629655,134.974483 C37.4415862,132.475862 56.6953793,137.913793 58.7526207,141.147586 C60.8105517,144.38069 75.7284828,151.950345 68.8208966,163.12069 C61.9126207,174.290345 56.4746897,173.408276 55.4464138,181.492414 C54.1236552,198.908966 50.2284828,217.28069 48.6112414,228.303448 C46.9953793,239.326897 45.0526207,242.962069 45.494,247.077931 C45.9353793,251.193103 27.9615862,257.037241 27.9615862,257.037241" id="Fill-14" fill="#1F191A"></path>
                                <path d="M58.7529655,141.147586 C57.7212414,139.526207 52.366069,137.351034 46.5412414,135.89931 C46.4108966,135.913103 46.2798621,135.926897 46.1495172,135.93931 C42.1495172,136.314483 38.1253793,136.317931 34.1129655,136.183448 C32.6867586,136.135862 31.2591724,136.054483 29.8315862,135.969655 C24.0046897,140.088966 16.2495172,152.526897 15.9833103,160.254483 C15.521931,167.111724 16.5184828,180.848966 17.9708966,195.229655 C18.3453793,195.057241 18.7053793,194.844828 19.0288276,194.601379 C21.2543448,192.930345 22.3915862,190.204828 23.0488276,187.582069 C23.9391724,184.024828 24.2212414,180.29931 24.2998621,176.643448 C24.3867586,172.616552 24.1750345,168.591724 24.0205517,164.568966 C23.944,162.588966 24.1012414,163.694483 24.0915862,161.713103 C24.0833103,159.84069 23.8743448,157.64 24.3922759,155.823448 C25.4453793,152.128276 30.5846897,152.318621 33.6005517,152.298621 C37.386069,152.273103 40.8495172,149.142759 44.5433103,148.218621 C49.9502069,146.866207 55.4212414,144.266897 60.9977931,143.384138 C59.9557241,142.493793 59.1336552,141.746207 58.7529655,141.147586" id="Fill-16" fill="#171212"></path>
                                <path d="M81.2711034,241.26069 C81.4317931,236.67931 81.9917931,232.12069 82.200069,227.541379 C82.8207586,213.866897 80.2993793,200.266897 77.7890345,186.810345 C77.5483448,185.518621 77.178,184.092414 76.5455862,182.932414 C76.3352414,182.545517 76.0945517,182.188966 75.8207586,181.875862 C75.2876552,181.124828 74.6262759,180.684138 73.7442069,180.684138 C74.295931,180.610345 74.8711034,180.444828 75.4373103,180.205517 C76.5855862,179.610345 78.4545517,178.635172 79.1221379,177.477241 C79.9421379,176.055172 79.0442069,174.055172 77.9945517,173.02 C76.535931,171.584138 74.4697241,170.993793 72.618,170.250345 C72.0842069,170.035862 67.3311034,168.157931 67.7917931,167.235862 C66.8462759,169.126897 65.1676552,169.445517 63.2683448,169.612414 C60.7973103,169.828966 58.3262759,170.046207 55.855931,170.263448 C52.420069,170.263448 48.8711034,170.877241 45.4462759,171.177931 C42.2924828,171.455172 39.4745517,171.535862 37.3366207,174.214483 C35.7290345,176.229655 35.3869655,178.951724 35.2221379,181.524138 C34.6062759,191.111724 35.6083448,200.80069 38.1731724,210.058621 C38.9462759,212.848276 39.8642069,215.623448 40.118,218.506897 C40.4035172,221.745517 39.840069,224.991724 39.278,228.194483 C38.3228276,233.642069 37.3386897,239.178621 34.8642069,244.125517 C34.0490345,245.753793 33.058,247.630345 33.815931,249.285517 C34.1945517,250.111724 34.955931,250.7 35.7517931,251.136552 C36.9986897,251.82069 38.3993793,252.166897 39.8145517,252.207586 C43.0628276,250.531724 45.6648966,248.674483 45.4938621,247.077931 C45.0524828,242.962069 46.9952414,239.326897 48.6117931,228.303448 C49.6124828,221.47931 51.4862759,211.837241 53.0828276,201.349655 C53.2724828,201.726897 53.4690345,202.132414 53.6704138,202.56069 C53.7993793,201.584828 53.9290345,200.608966 54.0648966,199.633793 C56.8945517,199.792414 59.2014483,202.126897 60.3269655,204.728966 C61.4524828,207.331034 61.6683448,210.217241 62.1435172,213.011724 C64.020069,224.066207 70.0490345,234.066207 72.0738621,245.094483 C72.2993793,246.322069 72.5414483,247.663448 73.158,248.706897 L81.1793793,243.413793 C81.2276552,242.695172 81.2462759,241.971724 81.2711034,241.26069" id="Fill-18" fill="#171212"></path>
                                <path d="M61.3984138,174.143586 C60.7232414,175.072552 58.3508276,176.630483 56.4535862,177.789793 C55.9791034,178.805655 55.6370345,179.994621 55.446,181.491862 C54.9425517,188.126345 54.0646207,194.898069 53.0825517,201.349793 C54.8970345,204.957379 57.3032414,211.031172 59.4446207,216.873931 C60.9915172,207.780138 64.226,188.380138 65.2197931,179.434621 C73.303931,179.728414 76.0963448,175.907034 76.0963448,175.907034 C76.0963448,175.907034 63.4556552,176.054621 61.3984138,174.143586" id="Fill-22" fill="#171212"></path>
                                <path d="M54.6298621,52.3628966 C55.296069,56.6049655 55.8133103,60.8704828 56.1808966,65.1484138 C58.7595172,63.5670345 61.2843448,61.8973793 63.7498621,60.1442759 C64.0126207,59.9566897 64.2884828,59.7511724 64.4029655,59.4497931 C64.5029655,59.1835862 70.0864138,54.6677241 70.0388276,54.3870345 C69.2312414,49.6428966 67.4464138,44.8318621 68.5602069,40.1504828 C67.2250345,41.696 59.7015862,46.8325517 57.9871034,47.9422069 C56.271931,49.0518621 54.6022759,50.5491034 54.2133103,52.5546207" id="Fill-27" fill="#CA916B"></path>
                                <path d="M35.1093793,106.036069 C35.1093793,106.036069 35.0666207,107.380207 34.5728276,114.354 C33.6976552,126.700897 22.3321379,144.251931 22.1562759,144.527793 L33.6617931,137.416069 L70.4197241,150.040897 C68.1114483,145.209862 66.2038621,138.45469 67.5562759,131.345724 C70.328,116.767103 89.2183448,102.547793 88.6824828,91.0105517 C88.1452414,79.4733103 79.0231724,69.6353793 76.0721379,66.7733103 C73.1197241,63.9112414 70.4383448,47.4008966 70.4383448,47.4008966 C70.4383448,47.4008966 52.7286897,59.3498621 51.7445517,63.1064138 C50.7604138,66.8629655 47.5135172,70.5250345 39.1962759,76.1595172 C30.8783448,81.794 24.4314483,88.5071034 25.8417931,95.591931 C26.9307586,101.062276 35.1093793,106.036069 35.1093793,106.036069" id="Fill-29" fill="#1F191A"></path>
                                <path d="M33.6714483,91.5425517 C33.6866207,91.5818621 33.7052414,91.6197931 33.7231724,91.6577241 C33.6583448,91.6563448 33.5942069,91.6556552 33.5286897,91.6528966 C33.5762759,91.6163448 33.6238621,91.5791034 33.6714483,91.5425517 M47.3721379,74.4128966 C46.2762759,74.3963448 45.268,74.6784138 44.3148966,75.1115172 C44.1976552,75.0004828 44.0031724,74.9570345 43.8355862,75.0804828 C43.2831724,75.4853103 42.7383448,75.8984138 42.1983448,76.3163448 C42.0686897,76.4018621 41.9390345,76.488069 41.810069,76.5749655 C40.1369655,77.7025517 38.5038621,78.8935862 36.9211034,80.1446207 C33.8935172,82.5363448 30.9107586,85.1349655 28.6962759,88.3246207 C27.7183448,89.7335862 26.2776552,91.8391034 28.0548966,93.2473793 C28.6748966,93.7384138 29.4342069,93.8646207 30.1928276,93.9922069 C31.1583448,94.1549655 32.130069,94.2853103 33.1086897,94.3349655 C35.145931,94.4384138 37.1562759,94.1673793 38.9845517,93.4487586 C40.1983448,93.2087586 41.428,92.8397931 42.4411034,92.2170345 C43.9817931,91.2701379 44.7314483,89.5611724 45.4638621,87.9832414 C47.2148966,84.2073793 48.5342069,79.9742759 48.6473103,75.7811724 C48.665931,75.0770345 48.0928276,74.423931 47.3721379,74.4128966" id="Fill-31" fill="#251F20"></path>
                                <path d="M87.3891034,98.0609655 C87.1732414,94.7257931 85.9994483,91.3306207 84.916,88.1906207 C83.3263448,83.5878621 81.2835862,77.2244138 76.3118621,75.2354483 C69.9463448,72.6892414 64.8353103,78.6602759 61.5318621,83.3195862 C61.3091034,79.6402759 58.2208276,76.4913103 54.5277241,76.2264828 C54.1697931,76.1168276 53.8111724,76.169931 53.4422069,76.2644138 C53.3863448,76.2782069 53.3270345,76.294069 53.2663448,76.3113103 C53.2256552,76.1913103 53.0953103,76.0995862 52.9546207,76.1837241 C49.4511724,78.2844138 46.3815172,81.034069 43.9304828,84.3051034 C41.4766897,87.5809655 39.2325517,91.6416552 38.978069,95.8057931 C38.7684138,99.2437241 40.4277241,103.059586 43.9028966,104.218897 C44.1008276,104.285103 44.7456552,104.320276 44.8428966,104.440276 C44.8070345,104.870621 44.7622069,105.299586 44.7091034,105.726483 L38.4077241,130.021655 C38.4042759,130.029241 38.398069,130.034759 38.3953103,130.043034 C38.2987586,130.310621 38.2132414,130.580276 38.1332414,130.852 C37.793931,131.646483 37.4477241,132.438207 37.0842759,133.223034 C37.0318621,133.335448 34.9077241,141.49131 35.0615172,141.513379 C45.018069,142.940276 56.9104828,137.646483 66.1994483,141.500966 C66.3166897,141.549931 66.4332414,141.447172 66.4711724,141.347172 C68.8511724,134.984414 71.6697931,128.792 74.9242759,122.828552 C76.5235862,119.898207 78.2249655,117.023724 80.0256552,114.212 C81.736,111.541655 83.6649655,108.99131 85.2001379,106.21269 C86.5828966,103.71269 87.576,100.956828 87.3891034,98.0609655" id="Fill-33" fill="#171212"></path>
                                <path d="M29.8978621,130.175379 C30.4288966,130.080207 30.9861379,129.978138 31.5764828,129.866414 C37.659931,115.443655 36.2282069,108.969172 36.064069,106.516069 C26.5578621,98.736069 27.2957931,95.8574483 27.1116552,92.251931 C27.7861379,86.9843448 31.7385517,82.2664138 35.4213103,78.9050345 C29.0392414,83.9222759 24.6537241,89.6250345 25.8413103,95.591931 C26.9302759,101.062276 35.1095862,106.036069 35.1095862,106.036069 C35.1095862,106.036069 35.0668276,107.380207 34.5723448,114.354 C34.2233793,119.275379 32.2082069,125.023655 29.8978621,130.175379" id="Fill-35" fill="#1F191A"></path>
                                <path d="M70.4198621,150.04069 C68.2302069,145.45931 66.404,139.124828 67.3743448,132.441379 C61.2715862,130.033793 58.1364138,128.678621 38.5750345,129.375862 C34.9674483,137.962069 22.2702069,144.348966 22.1564138,144.528276 L22.2508966,144.469655 C22.0695172,144.744138 21.8902069,145.022759 21.7122759,145.302759 C27.5267586,144.621379 60.564,141.406897 70.4198621,150.04069" id="Fill-37" fill="#171212"></path>
                                <path d="M66.1997241,141.501172 C66.3169655,141.549448 66.4335172,141.44669 66.4714483,141.347379 L65.8217931,141.350828 C65.948,141.399793 66.0742069,141.448759 66.1997241,141.501172" id="Fill-39" fill="#1F191A"></path>
                                <path d="M43.9058621,141.466828 L35.0617241,141.513724 C37.887931,141.918552 40.8713793,141.782 43.9058621,141.466828" id="Fill-41" fill="#1F191A"></path>
                                <path d="M67.3742759,132.44131 C64.5266897,131.317862 60.5853103,130.189586 55.2046207,129.375793 C53.7335862,130.408897 52.2942759,131.490276 50.8494483,132.559241 C47.488069,135.048207 44.1266897,137.537172 40.7653103,140.026138 C39.0266897,141.313034 37.288069,142.599931 35.5494483,143.887517 C35.3908276,144.004759 35.228069,144.12131 35.0611724,144.237862 C40.7563448,143.977862 47.4108276,143.934414 53.5535862,144.539931 C57.7473793,142.815103 60.9073793,139.009586 65.2397931,137.458552 C65.8535862,137.239241 66.4825517,137.060621 67.1191034,136.919241 C67.0777241,135.463379 67.1528966,133.967517 67.3742759,132.44131" id="Fill-43" fill="#171212"></path>
                                <path d="M54.7173793,73.662069 C53.6035862,76.3144828 53.9435862,79.3889655 56.693931,86.7427586 C59.4449655,94.0972414 60.7215172,103.515172 66.8428966,110.42 C61.5863448,111.466207 57.0187586,113.716552 52.7497931,117.664828 C48.4822069,121.612414 62.9663448,124.735862 66.8056552,122.72069 C70.6449655,120.706207 80.0649655,116.513793 79.6118621,113.875862 C79.158069,111.237241 76.0925517,93.7648276 75.2835862,83.9931034 C74.4753103,74.2213793 72.0691034,69.8227586 65.7222069,68.9165517 C59.3753103,68.0096552 55.2125517,72.4834483 54.7173793,73.662069" id="Fill-45" fill="#171212"></path>
                                <path d="M79.6116552,113.875517 C79.1578621,111.237586 76.1930345,94.8589655 75.384069,85.0872414 C75.3530345,84.7148276 75.3192414,84.3513793 75.284069,83.9927586 C74.2268276,90.5562069 65.0323448,100.468621 63.9454483,106.452759 C64.7688966,107.823793 65.719931,109.153448 66.8426897,110.419655 C61.5861379,111.466552 57.0185517,113.716897 52.7502759,117.664483 C48.482,121.612759 41.9978621,132.127241 37.6964828,134.117586 C31.8351034,136.82931 30.0937241,136.944483 30.0937241,136.944483 L21.7123448,146.394138 C21.7123448,146.394138 30.8447586,148.33 35.3254483,147.559655 C39.8061379,146.788621 68.5654483,125.287931 72.0364828,122.68931 C77.0088966,118.965862 80.0647586,116.513448 79.6116552,113.875517" id="Fill-47" fill="#1F191A"></path>
                                <path d="M38.7651034,139.555448 C37.2857931,137.841655 35.2237241,136.621655 31.8768276,137.105793 C31.8278621,137.096138 31.774069,137.092 31.7078621,137.103034 C28.7216552,137.61269 25.7361379,138.120966 22.7506207,138.629931 C20.6768276,138.983724 18.2768276,139.224414 16.4685517,140.154759 C14.5071724,141.163034 13.1726897,142.819586 11.7057931,144.11269 C9.84027586,145.757517 7.90096552,147.366483 5.9057931,148.946483 C5.74786207,149.07131 5.84441379,149.227862 6.02165517,149.280276 C7.25751724,149.640276 9.18993103,148.976828 10.4113103,148.584414 C11.2175172,148.325103 11.9926897,148.020276 12.7451034,147.689241 C12.0837241,148.239586 11.6278621,148.890621 11.2885517,149.545103 C10.9947586,150.110621 10.7857931,150.687862 10.5644138,151.261655 C10.4485517,151.563724 10.289931,151.885793 10.1382069,152.21131 C9.17682759,152.907172 8.24027586,153.619586 7.312,154.327862 C7.20165517,154.412 7.22441379,154.525103 7.29682759,154.599586 C7.70234483,155.022345 7.81337931,155.320966 8.68096552,155.154759 C10.0285517,154.896138 11.6016552,154.096828 12.794069,153.569931 C15.9644138,152.169241 18.6926897,150.278897 22.0106207,149.045103 C25.2754483,147.83131 28.8175172,148.709241 32.2788966,148.185103 C34.8471724,147.795448 37.1926897,146.837517 38.5809655,145.261655 C38.6078621,145.230621 38.6230345,145.202345 38.6285517,145.175448 C39.329931,144.392 40.0513103,143.605793 40.1437241,142.715448 C40.2644138,141.543724 39.5775172,140.495448 38.7651034,139.555448" id="Fill-49" fill="#1F191A"></path>
                                <path d="M23.2747586,139.136552 C23.2747586,139.136552 39.5802759,140.831034 36.1623448,147.275862 C42.494069,143.693793 45.1395862,137.553103 45.1395862,137.553103 L34.9706207,136.371034 L30.094069,136.944828 C30.094069,136.944828 24.9830345,139.136552 23.2747586,139.136552" id="Fill-51" fill="#1F191A"></path>
                                <path d="M77.8578621,25.9458621 L77.8578621,25.9651724 L77.8578621,25.9458621 Z" id="Fill-53" fill="#022942"></path>
                                <path d="M76.215931,155.986621 C75.2752414,154.463862 74.3497241,153.329379 72.8573103,152.319034 C71.4021379,151.333517 69.8317931,150.521793 68.200069,149.870069 C64.8897241,148.54869 61.3414483,147.882483 57.7924828,147.665241 C56.618,147.593517 55.440069,147.572138 54.2628276,147.594897 C46.9952414,147.737655 39.7614483,149.445241 33.1973103,152.568 C32.5062759,152.896966 31.8104138,153.250069 31.2655862,153.78731 C30.7207586,154.323862 30.3414483,155.081103 30.4338621,155.840414 C30.5793793,157.040414 31.7586897,157.313517 32.7855862,157.318345 C33.9097241,157.322483 35.2104138,157.212138 36.3083448,157.043172 C40.3517931,156.419034 44.360069,155.881793 48.4566207,155.752138 C56.6048966,155.494897 64.7924828,156.439724 72.6621379,158.571448 C73.4635172,158.788 74.4304138,159.378345 75.2669655,159.186621 C76.1235172,158.990069 76.5724828,158.229379 76.8131724,157.439034 C76.7331724,156.950759 76.4993793,156.445241 76.215931,155.986621" id="Fill-55" fill="#251F20"></path>
                                <path d="M45.4515172,102.422138 C45.508069,102.381448 45.5646207,102.340759 45.6204828,102.300069 C45.8487586,102.135241 45.6287586,101.753172 45.3984138,101.919379 C45.1818621,102.075241 44.9653103,102.231793 44.7473793,102.386966 C44.6466897,102.388345 44.5473793,102.392483 44.4528966,102.400069 C44.2715172,102.414552 44.208069,102.602138 44.2597931,102.727655 C43.1935862,103.462828 42.0763448,104.131793 40.8287586,104.501448 C40.0956552,104.719379 38.0522069,104.744207 37.6922069,105.576621 C37.3735862,106.314552 38.4225517,106.880069 38.9411724,107.070414 C40.2225517,107.541448 41.5894483,107.191103 42.888069,107.008345 C43.9397931,106.860759 44.8494483,106.89731 45.8625517,107.251103 C46.4453103,107.455931 47.0494483,107.740759 47.6866897,107.664207 C48.588069,107.555241 49.2149655,106.811103 49.3218621,105.929034 C49.5804828,103.806966 47.3494483,102.638 45.4515172,102.422138" id="Fill-57" fill="#171212"></path>
                                <path d="M32.808069,28.4613103 C32.808069,28.4613103 35.8777241,42.1895862 41.3611724,50.0461379 C46.8453103,57.9026897 48.566,57.3302759 49.2466897,57.3885383 C49.9266897,57.4461379 64.6715172,49.8992414 68.0466897,43.2482069 C71.4218621,36.5971724 70.2363448,16.9351034 70.2363448,16.9351034 L57.2597931,11.082 L32.808069,28.4613103 Z" id="Fill-67" fill="#FBC29C"></path>
                                <path d="M61.7957931,17.0234483 C59.3102759,15.1965517 56.3047586,14.2937931 53.2123448,13.9593103 L33.7571724,27.7868966 C33.5275172,28.4324138 33.3171724,29.0862069 33.1178621,29.742069 C33.9364828,32.982069 36.3516552,41.7006897 40.1047586,48.0793103 C40.6771724,45.6503448 41.6206207,43.3772414 43.3564828,41.6158621 C43.9654483,40.9965517 44.7226897,40.2972414 44.5937241,39.437931 C44.5413103,39.0924138 44.3447586,38.7841379 44.2792414,38.442069 C44.1378621,37.7110345 44.6013103,37.0124138 45.0530345,36.42 C50.044069,29.8648276 56.3606207,24.4606897 62.0668276,18.5172414 C62.2061379,18.3724138 62.3502759,18.2165517 62.3937241,18.0206897 C62.484069,17.6193103 62.1268276,17.2675862 61.7957931,17.0234483" id="Fill-69" fill="#CA916B"></path>
                                <path d="M35.7545517,37.0204138 C35.7545517,37.0204138 37.5745517,38.6073103 41.4407586,37.9266207 C45.3076552,37.2466207 46.275931,33.9686897 47.1945517,34.3914483 C48.1124828,34.8148966 50.2724828,39.7321379 56.4090345,39.8286897 C62.5469655,39.9245517 68.0766207,36.1886897 69.5166207,31.4686897 C70.955931,26.7486897 65.800069,14.0314483 65.800069,14.0314483 L40.7966207,18.5224828 L35.7545517,37.0204138 Z" id="Fill-71" fill="#1F191A"></path>
                                <path d="M49.4129655,33.1478621 C49.4129655,33.1478621 51.501931,36.7602759 55.7977931,37.2306207 C60.0929655,37.7009655 67.0267586,32.0409655 67.8598621,29.152 C68.6929655,26.2630345 66.0371034,21.829931 66.0371034,21.829931 C66.0371034,21.829931 59.2205517,23.529931 49.4129655,33.1478621" id="Fill-73" fill="#D2D4D5"></path>
                                <path d="M45.9074483,32.2342759 C45.9074483,32.2342759 44.224,35.5246207 40.744,35.9418621 C37.264,36.3591034 31.6302069,31.1791034 30.9474483,28.5411724 C30.264,25.903931 32.4046897,21.8673793 32.4046897,21.8673793 C32.4046897,21.8673793 39.324,21.8894483 45.9074483,32.2342759" id="Fill-75" fill="#3F3E40"></path>
                                <g id="Group-79" stroke-width="1" fill="none" transform="translate(11.034483, 0.312414)">
                                    <mask id="mask-6" fill="white">
                                        <use xlink:href="#path-5"></use>
                                    </mask>
                                    <g id="Clip-78"></g>
                                    <path d="M26.4402069,9.92089655 C23.3388276,13.831931 21.2236552,17.9795172 19.6657241,22.0829655 C19.3498621,27.5850345 20.3588276,32.8146897 19.9436552,36.194 C17.3981379,56.9326207 2.50296552,56.2636552 0.665034483,78.056069 C2.46089655,67.5553793 14.2505517,61.2174483 20.2733103,44.5691724 C20.9215862,42.776069 21.6112414,40.9484828 22.6733103,39.351931 C23.7477931,37.7367586 25.1726207,36.5726207 26.6781379,35.3781379 C30.911931,32.0167586 35.1471034,28.656069 39.3815862,25.2946897 C40.9271034,24.0677931 43.0064138,23.6202069 44.654,22.4436552 C46.794,20.9146897 48.3077931,18.7257241 49.454,16.3871034 L52.9450345,1.72848276 C48.6484828,1.3877931 37.5864138,-4.13427586 26.4402069,9.92089655" id="Fill-77" fill="#6D6E72" mask="url(#mask-6)"></path>
                                </g>
                                <path d="M36.0933103,27.0769655 C36.0933103,27.0769655 30.9850345,26.1135172 25.9746897,35.2321379 C18.6684828,48.530069 10.9229655,52.7583448 7.31537931,53.3107586 C15.9353793,47.690069 28.5595172,27.9321379 31.8429655,19.6176552 C37.3333103,5.71351724 36.0933103,27.0769655 36.0933103,27.0769655" id="Fill-80" fill="#6D6E72"></path>
                                <path d="M44.8541379,38.9866897 C44.8541379,38.9866897 43.7313793,37.8370345 44.1548276,37.7784138 C44.5789655,37.7184138 48.1948276,38.8653103 48.3934483,38.8956552 C48.592069,38.9266897 47.2472414,39.5170345 46.5755172,39.8253103 C45.9031034,40.1342759 44.8541379,38.9866897 44.8541379,38.9866897" id="Fill-82" fill="#CA916B"></path>
                                <path d="M41.890069,45.0308966 C41.890069,45.0308966 42.9176552,45.9184828 43.0224828,46.4177931 C43.125931,46.9177931 42.7452414,49.5033103 45.7893793,49.7957241 C50.7197241,50.2681379 54.2514483,46.6805517 55.0893793,45.9846897 C55.6983448,45.604 56.8273103,44.5005517 57.288,44.3550345 C55.5045517,45.3915862 51.0604138,45.0915862 50.1721379,44.8177931 C49.4673103,44.6005517 48.6052414,43.764 47.610069,44.0529655 C47.3466207,44.1295172 46.948,44.6391724 46.6507586,44.8674483 C46.1748966,44.5426207 46.050069,44.0198621 45.0728276,44.1529655 C44.5590345,44.2226207 43.8721379,44.9591724 41.890069,45.0308966" id="Fill-84" fill="#DE1829"></path>
                                <path d="M43.6492414,46.5115862 C43.5471724,46.5564138 43.1216552,47.2288276 44.0671724,47.3336552 C45.0133793,47.4398621 48.3271724,47.5150345 50.9016552,46.784 C52.3430345,46.4102069 53.1588966,46.281931 52.6623448,46.2798621 C52.1664828,46.2771034 47.7264828,46.3536552 47.3933793,46.4150345 C47.0595862,46.4777931 46.6285517,46.5881379 46.4182069,46.6005517 C46.2078621,46.6136552 45.6333793,46.481931 45.1485517,46.4453793 C44.6637241,46.4095172 43.869931,46.4143448 43.6492414,46.5115862" id="Fill-86" fill="#FBB4BA"></path>
                                <path d="M27.7406897,90.9071034 C36.9510345,85.3202069 45.5765517,78.7691724 53.4296552,71.3946897 C54.4862069,70.4029655 55.54,69.3712414 56.5551724,68.3029655 C61.8427586,63.2326207 63.2551724,56.654 62.9862069,49.8698621 C62.9193103,48.174 62.7468966,46.4657241 62.5034483,44.7650345 C61.5034483,39.8767586 60.8006897,34.954 59.3262069,30.2105517 C58.92,28.394 58.6358621,26.5567586 58.5537931,24.6808966 C58.4724138,22.8050345 58.5917241,20.8912414 58.9944828,18.9229655 C59.1227586,17.1126207 59.3255172,15.3071034 59.6027586,13.5133103 C60.14,10.0374483 60.9944828,6.64503448 62.2496552,3.35468966 C62.4482759,2.83331034 62.6834483,2.28158621 63.1537931,1.9802069 C64.0310345,1.41813793 65.1703448,2.00641379 66.0262069,2.60227586 C67.5268966,3.64710345 68.9924138,4.75193103 70.4103448,5.91675862 C80.4551724,15.4450345 81.7737931,30.6050345 79.3848276,43.5222759 C78.1593103,50.1491724 75.94,56.651931 72.7296552,62.5836552 C69.062069,69.3622759 64.08,72.4002069 56.2751724,73.4002069 C54.3531034,74.5836552 52.5537931,75.9850345 50.9124138,77.5215862 C46.5331034,81.6195172 43.1489655,86.651931 39.9710345,91.7381379 C40.6675862,89.7815862 41.3641379,87.8243448 42.0613793,85.8677931 C37.4834483,88.2146897 32.6896552,90.1395172 27.76,91.6112414" id="Fill-88" fill="#3F3E40"></path>
                                <path d="M61.8233793,112.571655 C58.5378621,114.228897 55.6826897,116.835103 53.0475172,119.370966 C50.3344138,121.983379 47.884069,124.797172 45.542,127.74131 C43.3213103,130.530966 40.6254483,133.017172 37.4433793,134.68131 C34.3088966,136.322 30.8895862,137.355103 27.459931,138.170276 C25.5564828,138.62269 23.6192414,138.930276 21.7192414,139.388207 C19.8413103,139.840621 18.102,140.653034 16.5557931,141.815793 C16.2695862,142.030966 16.6137241,142.497862 16.9192414,142.322 C18.5585517,141.375793 20.3854483,141.149586 22.2206207,140.806828 C23.9413103,140.486138 25.6633793,140.168897 27.3737241,139.794414 C30.7192414,139.06131 34.0413103,138.119931 37.164069,136.696483 C40.3502759,135.243379 43.1771724,133.453034 45.5233793,130.820621 C48.0964828,127.934414 50.242,124.712345 52.9530345,121.940621 C54.4206207,120.439931 55.959931,119.009586 57.564069,117.657172 C59.2082069,116.271655 60.9406207,115.006828 62.5316552,113.559931 C63.0544138,113.084759 62.439931,112.260621 61.8233793,112.571655" id="Fill-90" fill="#251F20"></path>
                                <path d="M19.3813103,143.271448 C18.1468276,143.839724 16.9578621,144.421103 15.8530345,145.221103 C14.7888966,145.992138 14.0978621,146.889379 13.3509655,147.955586 C13.2171724,148.14731 13.5151034,148.326621 13.6544138,148.14731 C15.1033793,146.279724 17.8082069,145.212828 19.8778621,144.192828 C20.4854483,143.893517 19.9902759,142.990759 19.3813103,143.271448" id="Fill-92" fill="#251F20"></path>
                                <path d="M12.2227586,149.966276 C12.1841379,149.966276 12.182069,150.026276 12.2206897,150.026276 C12.2593103,150.026276 12.2613793,149.966276 12.2227586,149.966276" id="Fill-94" fill="#251F20"></path>
                                <path d="M20.2393103,145.402345 C18.3731034,146.760966 16.462069,148.048552 14.5317241,149.31269 C12.7448276,150.483034 10.9193103,151.649241 9.34482759,153.096138 C9.12068966,153.303034 9.38413793,153.612 9.63931034,153.505793 C11.6937931,152.649931 13.557931,151.380276 15.3862069,150.118207 C17.222069,148.850621 19.0434483,147.562345 20.8793103,146.294069 C21.5310345,145.843724 20.8903448,144.928552 20.2393103,145.402345" id="Fill-96" fill="#251F20"></path>
                                <path d="M87.2342069,88.2357241 C86.345931,86.0446897 86.1404138,83.6791724 85.1328276,81.5212414 C84.1107586,79.3322759 83.130069,77.0143448 81.7397241,75.0350345 C79.4093793,71.7177931 75.6486897,69.4888276 74.1521379,65.5805517 C73.948,65.0467586 73.2411034,65.4371034 73.2935172,65.9081379 C73.7597241,70.1053793 76.9666207,73.0184828 79.5073103,76.1095172 C81.0417931,77.9757241 82.5273103,79.7971034 83.8086897,81.8515862 C85.1473103,83.9971034 85.3528276,86.4453793 86.2866207,88.746069 C86.545931,89.3867586 87.4921379,88.8729655 87.2342069,88.2357241" id="Fill-98" fill="#251F20"></path>
                                <path d="M90.8414483,141.734207 C90.8145517,141.658345 90.7442069,141.58869 90.6566207,141.59328 C89.6504138,141.651448 88.7745517,142.114897 88.1945517,142.857655 C84.2511034,146.446621 85.4876552,152.836276 86.3248966,157.46731 C87.6152414,164.600414 89.5338621,171.850759 88.1993793,179.125241 C88.1628276,179.323862 88.4455862,179.480414 88.5497241,179.272828 C94.3269655,167.694897 95.1745517,153.929379 90.8414483,141.734207" id="Fill-100" fill="#251F20"></path>
                                <path d="M38.0336552,202.317103 C32.7529655,202.190897 27.3984828,202.746069 22.4426207,204.574345 C21.344,204.980552 20.2246897,205.477793 19.4722759,206.375724 C19.3764138,206.490207 19.2888276,206.608138 19.2088276,206.728828 C19.4177931,208.566759 19.6295172,210.386759 19.8433103,212.177103 C21.3991724,210.490897 23.9164138,209.813655 26.2446897,209.411586 C33.6943448,208.126069 41.3750345,208.152966 48.8005517,209.570897 C49.7550345,209.752966 50.7881379,210.030897 51.5964138,210.540552 C51.9633103,208.376414 52.3322759,206.141241 52.6936552,203.857103 C47.8295172,203.126759 42.9495172,202.434345 38.0336552,202.317103" id="Fill-102" fill="#DE1829"></path>
                                <path d="M38.0336552,202.317103 C37.8184828,202.312276 37.6026207,202.309517 37.3867586,202.306759 C37.806069,204.370207 38.2329655,206.432276 38.6474483,208.496414 C42.0536552,208.577793 45.4529655,208.931586 48.8005517,209.570897 C49.7550345,209.752966 50.7881379,210.030897 51.5964138,210.540552 C51.9633103,208.376414 52.3322759,206.141241 52.6936552,203.857103 C47.8295172,203.126759 42.9495172,202.434345 38.0336552,202.317103" id="Fill-106" fill="#C31829"></path>
                            </g>
                        </g>
                    </g>
                </g>
            </g>
        </g>
    </g>
</svg>