<?xml version="1.0" encoding="UTF-8"?>
<svg width="128px" height="128px" viewBox="0 0 128 128" version="1.1" xmlns="http://www.w3.org/2000/svg" xmlns:xlink="http://www.w3.org/1999/xlink">
    <!-- Generator: sketchtool 52.6 (67491) - http://www.bohemiancoding.com/sketch -->
    <title>9DEA2C8A-FD72-4E1C-989B-4EDEF95740A2</title>
    <desc>Created with sketchtool.</desc>
    <defs>
        <circle id="path-1" cx="64" cy="64" r="64"></circle>
        <polygon id="path-3" points="119.532 0.551500873 119.532 218.445151 0.354056251 218.445151 0.354056251 0.551500873"></polygon>
    </defs>
    <g id="Advanced-Tools" stroke="none" stroke-width="1" fill="none" fill-rule="evenodd">
        <g id="Advanced-Tools---Keyword-Linking---Free" transform="translate(-726.000000, -253.000000)">
            <g id="Body" transform="translate(410.000000, 132.000000)">
                <g id="Graphic-/-Advanced-Tools-/-Automatic-Linking---Disabled" transform="translate(316.000000, 121.000000)">
                    <g id="sc-graphic-autolinking-disabled">
                        <mask id="mask-2" fill="white">
                            <use xlink:href="#path-1"></use>
                        </mask>
                        <use id="Oval" fill="#DE1829" xlink:href="#path-1"></use>
                        <g id="graphic" mask="url(#mask-2)">
                            <g transform="translate(1.000000, 4.000000)">
                                <path d="M33.306,70.7172751 C33.306,70.7172751 28.1282105,92.9374541 29.6534737,102.015485 C30.6246316,100.795585 32.9825263,106.757079 34.9241053,109.19614 C36.8656842,111.635201 39.7253684,113.802681 39.7253684,113.802681 C39.7253684,113.802681 41.6330526,110.040402 46.8410526,111.16879 C52.0490526,112.297917 78.9187368,110.551092 80.5670526,109.738563 C82.2161053,108.925297 88.1889474,115.564266 88.1889474,115.564266 C88.1889474,115.564266 87.9023158,113.125205 89.5668421,112.447729 C91.2306316,111.770253 93.3114737,112.71931 93.3114737,112.71931 C93.3114737,112.71931 95.1292632,106.897297 95.3370526,104.589598 C95.5448421,102.2819 95.3370526,97.9661266 95.3370526,97.9661266 L33.306,70.7172751 Z" id="Fill-1" fill="#3F3E40"></path>
                                <path d="M82.075,79.3216629 L39.5592105,79.3216629 C39.4206842,76.2154576 39.4368947,72.4790079 39.6741579,67.987593 C40.9997368,43.0154445 43.1321579,35.2311127 54.0484737,27.7582131 C64.9647895,20.2853135 71.2581579,15.3658638 71.2581579,15.3658638 C75.0042632,16.362152 80.1341579,25.8903572 78.5204737,32.6156716 C74.3705789,48.4957677 75.6386842,61.0748288 78.4047895,68.6724489 C79.3707895,71.3277415 80.7243684,75.2885406 82.075,79.3216629" id="Fill-3" fill="#1F191A"></path>
                                <path d="M43.6825789,119.779599 C43.6825789,130.231769 33.1361579,149.233568 30.2971053,155.301332 C27.4573158,161.369097 22.3193158,173.504625 26.9164737,213.104498 C26.2407895,222.206883 26.6460526,226.677634 26.6460526,226.677634 C26.6460526,226.677634 23.4017368,233.862717 22.5904737,252.385559 C21.7784737,270.908402 27.4573158,307.474393 27.4573158,307.474393 C27.4573158,307.474393 25.5643684,308.113494 25.2939474,310.66842 C25.0235263,313.223345 24.7538421,315.618127 24.7538421,315.618127 C24.7538421,315.618127 20.9672105,323.12276 20.2915263,325.039324 C19.6151053,326.955149 27.1868947,330.628131 28.539,330.628131 C29.8911053,330.628131 31.5136316,333.022913 34.4882632,332.704101 C37.4628947,332.383813 39.0854211,328.392018 39.3558421,327.114555 C39.6262632,325.837092 39.6262632,322.643804 40.3026842,320.088878 C40.9783684,317.533952 40.7079474,315.777533 39.6262632,313.223345 C38.5445789,310.66842 37.8688947,310.029319 37.5984737,309.071407 C37.3280526,308.113494 38.2741579,306.196931 37.8688947,304.281105 C37.4628947,302.364542 37.0576316,304.440511 36.5167895,299.490804 C35.9759474,294.540359 39.221,270.429446 43.0068947,259.411236 C46.7927895,248.393765 50.3082632,238.334206 46.5223684,221.567782 C46.9276316,219.332407 46.6572105,216.457931 46.6572105,216.457931 C46.6572105,216.457931 57.8800526,195.859118 60.4486842,172.067756 C63.0180526,148.275655 62.3416316,119.779599 62.3416316,119.779599 L43.6825789,119.779599 Z" id="Fill-5" fill="#1F191A"></path>
                                <g id="Group-11" stroke-width="1" fill="none" transform="translate(19.894737, 119.228393)">
                                    <mask id="mask-4" fill="white">
                                        <use xlink:href="#path-3"></use>
                                    </mask>
                                    <g id="Clip-10"></g>
                                    <path d="M119.380505,205.80975 C118.569242,203.575112 110.728505,196.388553 110.321032,193.993772 C109.917242,191.599728 110.997453,190.641815 110.458821,188.886134 C109.917242,187.129715 107.483453,185.530488 106.807768,183.135706 C106.131347,180.741662 94.5032421,126.929553 92.4739789,119.104632 C90.4447158,111.282662 88.1457684,107.927016 87.6078737,104.25551 C87.2144,101.595051 85.7591368,88.7864747 83.1345053,74.9447105 C82.6496632,72.4045445 82.1287158,69.833383 81.5724,67.2791952 C81.5694526,67.2681253 81.5657684,67.2651734 81.5657684,67.2651734 C81.3137684,66.1264528 81.0558737,64.9877323 80.7869263,63.8630336 C80.4185053,62.2955402 80.0324,60.7450205 79.6286105,59.2269725 C74.7617684,40.8627978 68.1353474,32.398776 67.7315579,26.1738197 C67.3248211,19.9444354 65.0258737,4.13813843 65.0258737,4.13813843 L42.5013474,4.13813843 C42.4777684,1.85774541 42.4468211,0.551500873 42.4468211,0.551500873 L23.7877684,0.551500873 C23.7877684,11.0036712 13.2420842,30.0054703 10.4022947,36.0724965 C7.56324211,42.1409987 2.42450526,54.2757891 7.0224,93.8764004 C6.34597895,102.978047 6.75124211,107.448798 6.75124211,107.448798 C6.75124211,107.448798 3.50692632,114.634619 2.69566316,133.157462 C1.8844,151.679566 7.56324211,188.246296 7.56324211,188.246296 C7.56324211,188.246296 5.66955789,188.884658 5.39987368,191.439584 C5.12871579,193.99451 4.85903158,196.389291 4.85903158,196.389291 C4.85903158,196.389291 1.0724,203.894662 0.396715789,205.810488 C-0.279705263,207.727051 7.29208421,211.399296 8.64418947,211.399296 C9.99629474,211.399296 11.6188211,213.794815 14.5941895,213.475265 C17.5680842,213.155715 19.1906105,209.16392 19.4617684,207.886457 C19.7314526,206.608994 19.7314526,203.415706 20.4078737,200.86078 C21.0835579,198.305855 20.8131368,196.549435 19.7314526,193.99451 C18.6497684,191.439584 17.9740842,190.801221 17.7036632,189.842571 C17.4332421,188.884658 18.3793474,186.968833 17.9740842,185.053007 C17.5680842,183.136444 17.1628211,185.212414 16.6219789,180.261968 C16.0811368,175.312261 19.3261895,151.20061 23.1120842,140.183138 C26.8979789,129.165667 30.4134526,119.10537 26.6275579,102.338946 C27.0328211,100.103571 26.7624,97.2298328 26.7624,97.2298328 C26.7624,97.2298328 37.9852421,76.6310205 40.5538737,52.8389201 C40.5575579,52.8057105 40.5612421,52.7717629 40.5649263,52.7378153 C40.6017684,52.7533131 40.6371368,52.7710249 40.6747158,52.7857847 L41.4697684,53.099431 C41.7085053,53.1938939 41.9531368,53.2536712 42.1977684,53.2876188 C42.1977684,53.2890948 42.1977684,53.2905707 42.1985053,53.2913087 C42.4158737,54.5813175 42.6745053,55.9628371 42.9810316,57.4366057 C42.9920842,57.4890031 43.0016632,57.5391865 43.0127158,57.5923218 C43.0694526,57.8616886 43.1291368,58.1376974 43.1888211,58.4129681 C43.2175579,58.5472825 43.2455579,58.678645 43.2750316,58.8136974 C43.3295579,59.0609245 43.3870316,59.3133175 43.4437684,59.5649725 C43.4828211,59.7347105 43.5204,59.9029725 43.5601895,60.0749245 C43.6154526,60.3140336 43.6729263,60.5568328 43.7304,60.7996319 C43.7760842,60.9922476 43.8217684,61.1841253 43.8689263,61.378955 C43.9249263,61.6128983 43.9838737,61.8497934 44.0420842,62.0866886 C44.0951368,62.2999681 44.1481895,62.5132476 44.2027158,62.728741 C44.2616632,62.9604703 44.3213474,63.1936755 44.3817684,63.4290948 C44.4414526,63.6571341 44.5011368,63.8873873 44.5622947,64.1198546 C44.6234526,64.3508459 44.6853474,64.5825751 44.7487158,64.8172563 C44.8142947,65.0622694 44.8820842,65.3094965 44.9506105,65.5589376 C45.0139789,65.7884528 45.0773474,66.0187061 45.1429263,66.2519114 C45.2158737,66.5124223 45.2910316,66.7758852 45.3669263,67.040086 C45.4325053,67.2703393 45.4980842,67.5005926 45.5666105,67.7337978 C45.6476632,68.0112825 45.7309263,68.2939332 45.8149263,68.5751079 C45.8819789,68.8024092 45.9490316,69.0274965 46.0182947,69.2577498 C46.1104,69.5603262 46.2054526,69.8688066 46.3005053,70.1772869 C46.3675579,70.3935183 46.4331368,70.6075358 46.5009263,70.8267192 C46.6107158,71.1750511 46.7241895,71.5300249 46.8384,71.8849987 C46.8973474,72.0702345 46.9548211,72.2525183 47.0152421,72.4392301 C47.1920842,72.9853437 47.3733474,73.5373611 47.5612421,74.0967585 C48.2199789,76.0620293 48.9501895,78.1195489 49.7540842,80.2693175 C49.7960842,80.3859201 49.8388211,80.5032607 49.8852421,80.6242913 C50.4585053,82.1489812 51.0288211,83.5821603 51.6028211,84.9408022 L51.6028211,84.9444921 C52.6933474,87.5481253 53.7772421,89.8506581 54.8324,91.8897279 C54.8360842,91.8934179 54.8360842,91.8971079 54.8360842,91.9007978 C61.4168211,104.617125 66.9210316,107.029619 66.9210316,107.029619 C66.9210316,107.029619 68.5428211,113.453833 70.2994526,115.957837 C71.3833474,123.098641 71.6522947,133.956706 73.9512421,140.341807 C76.2494526,146.730597 92.8814526,168.925684 95.4493474,177.388968 C98.0172421,185.8493 99.7775579,189.364352 98.8277684,192.23809 C97.8824,195.11109 97.3400842,196.707366 98.1550316,198.307331 C98.9662947,199.903606 98.6936632,201.340475 99.7775579,202.776606 C100.857032,204.213475 100.046505,210.818497 99.7775579,213.504047 C99.5041895,216.188859 105.723874,218.104684 107.210821,218.423497 C108.698505,218.743047 111.673874,215.450868 114.649242,213.504047 C117.623874,211.560178 120.191768,208.044387 119.380505,205.80975" id="Fill-9" fill="#1F191A" mask="url(#mask-4)"></path>
                                </g>
                                <path d="M86.2733053,106.598484 C84.3825684,113.306087 84.9204632,123.366384 84.9204632,123.366384 L57.3375158,137.73655 L43.6845684,119.780484 C43.6845684,119.780484 42.8733053,97.0178817 36.6506737,87.9184493 C30.9733053,78.1784406 33.1794105,61.9987201 37.1038316,61.9987201 L48.6250947,61.9987201 L61.6053053,61.9987201 C61.6053053,61.9987201 71.3662526,62.4673445 78.8039368,62.6415105 C82.8772,62.7337594 86.2556211,62.7367114 86.9497263,62.5278598 C91.3700421,61.2009515 96.4137263,67.6391873 96.5515158,73.3859253 C96.6863579,79.1356153 88.1684632,99.8945716 86.2733053,106.598484" id="Fill-12" fill="#1F191A"></path>
                                <path d="M56.8439053,104.460155 C61.5641158,101.705233 62.8373789,94.9024297 62.6487474,93.6552245 C55.2655895,98.7097266 41.9383263,103.175312 41.9383263,103.175312 L41.9744316,103.958321 C42.1431684,104.938373 42.2956947,105.910307 42.4327474,106.863054 C44.2822211,106.939805 52.5996947,106.937591 56.8439053,104.460155" id="Fill-14" fill="#1B1416"></path>
                                <path d="M87.2026842,101.547893 L65.5115263,95.4550376 C65.5115263,95.4550376 66.7111053,103.876256 76.3777368,106.24816 C81.179,107.425994 84.1646842,107.324889 86.2713158,106.606824 C86.2720526,106.60461 86.2727895,106.601658 86.2735263,106.598706 C86.5844737,105.498361 87.0752105,104.016474 87.6757368,102.286623 L87.2026842,101.547893 Z" id="Fill-16" fill="#1B1416"></path>
                                <path d="M45.9754842,72.2912629 C40.4904316,72.2912629 33.9951684,74.5901057 32.4072737,91.4509921 C30.8193789,108.311141 49.2949579,105.705293 53.9142211,104.785756 C58.5327474,103.866219 65.3175895,99.5748 63.2964316,84.4002236 C61.2760105,69.2256472 45.9754842,72.2912629 45.9754842,72.2912629" id="Fill-18" fill="#1F191A"></path>
                                <path d="M76.2975684,105.375116 C72.3517789,104.451151 64.3172526,103.075535 62.7293579,86.2153869 C61.1422,69.3545004 79.6177789,71.9603476 84.2363053,72.8798847 C88.8555684,73.7994218 95.6396737,78.091579 93.6185158,93.2661555 C91.5980947,108.440732 80.2440947,106.298343 76.2975684,105.375116" id="Fill-20" fill="#1F191A"></path>
                                <path d="M74.4690947,123.867775 C74.8434105,124.82126 74.2355158,125.238225 75.1713053,125.47512 C76.1078316,125.712015 78.7752,127.306076 79.1502526,127.634483 C79.5245684,127.962151 81.4433053,135.088194 81.4433053,135.088194 L85.7965684,131.806347 C85.7965684,131.806347 82.3790947,124.961478 82.2390947,124.961478 C82.0983579,124.961478 74.4690947,123.867775 74.4690947,123.867775" id="Fill-24" fill="#1B1416"></path>
                                <path d="M82.2393895,62.5283764 C82.2393895,62.5283764 93.8925474,61.4103197 96.9231789,65.4028524 C99.9545474,69.3946472 100.804863,74.0255424 101.796653,76.420324 C102.789179,78.8158437 108.599179,93.5158917 110.867179,101.654459 C113.134442,109.793027 116.210758,115.16339 116.336758,116.600997 C116.463495,118.037866 116.376547,121.37211 115.525495,122.563228 C114.675916,123.753608 97.9857053,140.451398 96.8502316,142.527368 C95.7154947,144.602599 95.0029684,151.395809 88.9814947,150.794346 C82.9607579,150.191407 83.9525474,139.972442 81.6845474,140.291992 C79.4172842,140.610804 72.0473895,147.796625 71.6229684,146.998119 C71.1978105,146.199612 71.3392842,137.097966 71.0556,135.341547 C70.7719158,133.585128 78.7084421,130.391839 79.4172842,130.231695 C80.1261263,130.072289 81.8260211,131.030202 81.8260211,131.030202 C81.8260211,131.030202 81.4708632,127.534337 80.8342316,126.559451 C80.1983368,125.583826 76.1574947,124.803031 74.8820211,124.324075 C73.6065474,123.844381 73.1821263,122.0887 76.2989684,122.727062 C79.4172842,123.366162 81.5430737,124.324075 83.1014947,123.844381 C84.6606526,123.366162 85.9361263,127.197813 86.7864421,129.593333 C87.6367579,131.988114 90.0462316,138.375429 90.0462316,138.375429 C90.0462316,138.375429 94.0325474,131.988114 95.4413895,129.114376 C96.8487579,126.2399 102.092126,114.742734 103.792758,114.583328 C101.666968,113.625416 93.8711789,102.288394 92.3031789,99.8928742 C90.7351789,97.4980926 88.3338105,89.1949528 85.9243368,83.9256952 C83.5148632,78.6564376 82.2393895,62.5283764 82.2393895,62.5283764" id="Fill-26" fill="#1F191A"></path>
                                <path d="M82.075,62.8930179 C82.6998421,62.7365638 89.0808947,63.0605419 91.7644737,63.7638476 C94.4480526,64.4678913 96.3535263,64.7025725 95.9467895,65.249424 C93.9853158,66.0309568 91.9494211,68.5165114 91.6377368,70.5570572 C91.3253158,72.598341 79.0701579,68.8168738 79.0701579,68.8168738 L78.8041579,62.6413629 L82.075,62.8930179 Z" id="Fill-28" fill="#251F20"></path>
                                <path d="M41.6897158,130.962307 C41.6897158,130.962307 42.6675053,135.574014 43.9665579,135.810171 C45.2648737,136.047066 46.0916105,136.165145 46.6818211,134.745988 C47.2720316,133.327569 49.2895053,128.082665 49.9872947,127.769756 C50.6850842,127.456848 54.5748737,125.996363 54.5748737,125.996363 C54.5748737,125.996363 57.8972947,127.414783 58.7232947,127.533599 C59.5500316,127.651678 59.3135053,125.523311 59.3135053,125.523311 L55.2999263,123.867997 L47.9558211,123.867997 L41.6897158,130.962307 Z" id="Fill-30" fill="#1B1416"></path>
                                <path d="M49.8237895,115.688618 C49.8237895,115.588251 53.6737895,112.558797 53.9235789,112.533705 C54.1733684,112.508614 56.0736842,113.084247 56.3986316,113.109338 C56.7235789,113.13443 57.8163158,113.603793 58.4949474,113.83257 C59.1735789,114.060609 60.2486316,113.360255 59.9988421,112.959526 C59.7490526,112.558797 54.2485263,110.680609 54.2485263,110.680609 L50.5171579,112.508614 L48.1489474,115.413347 L49.8237895,115.688618 Z" id="Fill-32" fill="#1B1416"></path>
                                <path d="M43.4789158,62.3842467 C38.2841789,61.3946004 31.1832316,62.0683865 27.9713368,67.266059 C24.7587053,72.4637314 22.5607053,77.7071594 20.8703895,81.0081943 C19.1793368,84.3092293 9.88112632,98.9996834 6.33028421,106.607635 C2.78017895,114.216325 1.08912632,118.683386 0.413442105,121.596238 C-0.262978947,124.50909 -0.262978947,126.645574 1.59681053,127.033758 C3.4566,127.421941 25.7733368,130.917806 28.6470211,131.305989 C31.5214421,131.694172 37.9400737,130.140701 39.1263895,131.305989 C40.3127053,132.471277 43.5253368,134.995945 45.2156526,133.442474 C46.9067053,131.889002 48.8173368,125.388037 50.3131263,125.434531 C51.8096526,125.480286 58.7566,126.645574 59.9326,125.868469 C61.1078632,125.091365 60.7858632,125.285456 59.9326,122.372605 C59.0793368,119.459753 59.7557579,113.828142 57.8959684,113.439959 C56.0361789,113.051037 50.1186,113.245129 50.1186,113.245129 C50.1186,113.245129 53.8381789,110.461426 54.5146,111.173587 C55.1910211,111.886487 58.9260737,113.051037 59.9326,113.439959 C60.9391263,113.828142 60.4351263,111.711583 58.2356526,110.633378 C56.0361789,109.555172 53.3312316,108.778806 51.6401789,109.361819 C49.9498632,109.944094 47.2449158,112.856945 46.3990211,114.022234 C45.5538632,115.187522 40.9891263,123.365941 40.9891263,123.365941 C40.9891263,123.365941 30.3380737,119.265662 28.1400737,118.100373 C25.9420737,116.935085 19.6980737,113.983858 18.5147053,114.178688 C22.2335474,111.265098 23.7551263,106.798775 24.7697579,105.051212 C25.7843895,103.30291 29.8421789,94.5643559 30.3491263,92.2337795 C33.0540737,90.2913865 39.9442842,84.8988843 41.3126,86.3527271 C42.6801789,87.8050939 43.4789158,62.3842467 43.4789158,62.3842467" id="Fill-34" fill="#1F191A"></path>
                                <path d="M36.4515789,61.9982773 C31.5014737,63.8757271 29.1922105,65.9531725 29.7389474,66.8129323 C30.2849474,67.6726921 32.2368421,66.3443079 37.0764211,69.627631 C41.916,72.9109541 42.462,73.5360328 42.462,73.5360328 C42.462,73.5360328 41.5254737,68.866762 42.462,68.8165786 C43.3985263,68.7671332 45.5847368,73.5360328 45.5847368,73.5360328 L44.8817895,67.1258406 L36.4515789,61.9982773 Z" id="Fill-36" fill="#251F20"></path>
                                <path d="M69.3191579,55.8093349 L69.3191579,68.816431 L56.8436842,68.816431 L56.8436842,55.8093349 C59.8507368,58.9162782 62.4481053,60.5236231 63.0817895,60.5236231 C63.7154737,60.5236231 66.3121053,58.9162782 69.3191579,55.8093349" id="Fill-38" fill="#FBC29C"></path>
                                <path d="M74.3097158,72.4062419 C64.9547684,82.4702288 63.4560316,96.0684559 63.4560316,96.0684559 C63.4560316,96.0684559 61.9595053,82.4702288 52.6016105,72.4062419 C51.1677158,70.7745432 51.1470842,66.3207659 52.5684526,61.9990891 C58.7822421,59.1851284 63.6630842,59.3563424 63.6630842,59.3563424 C63.6630842,59.3563424 68.8762421,60.0102026 74.5101368,62.5297048 C75.7620316,66.6779537 75.6846632,70.8417004 74.3097158,72.4062419" id="Fill-40" fill="#FBC29C"></path>
                                <path d="M69.3191579,43.9261996 L69.3191579,57.0299725 C66.3121053,60.1369157 63.7154737,61.7442607 63.0817895,61.7442607 C62.4481053,61.7442607 59.8507368,60.1369157 56.8436842,57.0299725 L56.8436842,43.9261996 L69.3191579,43.9261996 Z" id="Fill-42" fill="#CA916B"></path>
                                <path d="M79.7568947,13.7517293 C78.4077368,5.7209083 73.8422632,3.94751528 63.0806842,3.94751528 C52.3198421,3.94751528 47.7543684,5.7209083 46.4052105,13.7517293 C45.9763684,16.2926332 45.8717368,19.1051179 45.9940526,22.1065284 C46.1163684,25.1330306 46.473,28.3514105 46.9622632,31.6790131 C47.0521579,32.2871179 47.1545789,32.8871048 47.2687895,33.4752838 C47.4434211,34.3822751 47.6445789,35.2663886 47.8700526,36.1254105 C51.5962632,50.3243624 61.7757368,57.9544541 63.0806842,57.9544541 C64.3863684,57.9544541 74.5658421,50.3243624 78.2920526,36.1254105 C78.5167895,35.2663886 78.7179474,34.3822751 78.8933158,33.4752838 C79.0067895,32.8871048 79.1099474,32.2871179 79.1991053,31.6790131 C79.6891053,28.3514105 80.0457368,25.1330306 80.1680526,22.1065284 C80.2903684,19.1051179 80.1857368,16.2926332 79.7568947,13.7517293" id="Fill-44" fill="#FBC29C"></path>
                                <path d="M79.7568947,13.7517293 L63.0806842,5.8050393 L46.4052105,13.7517293 C45.9763684,16.2926332 45.8717368,19.1051179 45.9940526,22.1065284 C46.1163684,25.1330306 46.473,28.3514105 46.9622632,31.6790131 C47.0521579,32.2871179 47.1545789,32.8871048 47.2687895,33.4752838 C47.4434211,34.3822751 47.6445789,35.2663886 47.8700526,36.1254105 C49.0224737,36.8626638 50.4814211,37.4006594 52.2785789,37.4006594 C57.9942632,37.4006594 59.6845789,34.8479476 60.4634211,33.884131 C61.2437368,32.9225284 62.4794211,31.0340087 63.0806842,31.0340087 C63.6826842,31.0340087 64.9176316,32.9225284 65.6986842,33.884131 C66.4767895,34.8479476 68.1671053,37.4006594 73.8835263,37.4006594 C75.6806842,37.4006594 77.1396316,36.8626638 78.2920526,36.1254105 C78.5167895,35.2663886 78.7179474,34.3822751 78.8933158,33.4752838 C79.0067895,32.8871048 79.1099474,32.2871179 79.1991053,31.6790131 C79.6891053,28.3514105 80.0457368,25.1330306 80.1680526,22.1065284 C80.2903684,19.1051179 80.1857368,16.2926332 79.7568947,13.7517293" id="Fill-46" fill="#1F191A"></path>
                                <path d="M60.6907368,28.5930288 C60.6907368,30.5907712 56.7287368,35.2910376 52.5058947,35.2910376 C50.4198947,35.2910376 48.5873684,34.3869983 47.2684211,33.475579 C47.1549474,32.8874 47.0525263,32.2874131 46.9626316,31.6793083 C46.4726316,28.3517057 46.116,25.1333258 45.9936842,22.1060856 C46.228,21.1097974 46.5212632,20.4500332 46.8837895,20.4500332 C54.4216842,20.6743825 60.6907368,28.5930288 60.6907368,28.5930288" id="Fill-48" fill="#F1F2F2"></path>
                                <path d="M65.4712211,28.5930288 C65.4712211,30.5907712 69.4332211,35.2910376 73.6560632,35.2910376 C75.7420632,35.2910376 77.5745895,34.3869983 78.8935368,33.475579 C79.0070105,32.8874 79.1094316,32.2874131 79.1993263,31.6793083 C79.6893263,28.3517057 80.0459579,25.1333258 80.1682737,22.1060856 C79.9339579,21.1097974 79.6406947,20.4500332 79.2781684,20.4500332 C71.7402737,20.6743825 65.4712211,28.5930288 65.4712211,28.5930288" id="Fill-50" fill="#F1F2F2"></path>
                                <path d="M66.1066,38.2477996 C65.9761789,37.9024197 64.1348105,36.0854852 63.3390211,36.0854852 C62.5439684,36.0854852 60.1197579,38.0323061 59.9900737,38.377686 C59.8596526,38.7230659 62.4179684,38.716424 63.0811263,38.716424 C63.7442842,38.716424 66.2370211,38.5931795 66.1066,38.2477996" id="Fill-52" fill="#CA916B"></path>
                                <path d="M64.7689368,43.0959594 C64.3511474,43.0959594 63.3365158,44.0191865 63.0808316,44.0191865 C62.8258842,44.0191865 61.8112526,43.0959594 61.3927263,43.0959594 C60.9756737,43.0959594 57.7600947,44.4974048 55.4920947,43.8243568 C56.6850421,44.9431515 56.4183053,45.8671166 57.7527263,47.181479 C59.4820947,49.0633568 63.0808316,49.0294092 63.0808316,49.0294092 C63.0808316,49.0294092 66.6795684,49.0633568 68.4096737,47.181479 C69.7433579,45.8671166 69.4766211,44.9431515 70.6703053,43.8243568 C68.4015684,44.4974048 65.1867263,43.0959594 64.7689368,43.0959594" id="Fill-54" fill="#DE1829"></path>
                                <path d="M66.7679158,45.8104389 L63.0807579,45.8104389 L59.3943368,45.8104389 C59.1548632,45.8104389 59.3339158,46.2583996 60.3183368,46.5373603 C60.9667579,46.7218581 62.2709684,46.7594956 63.0807579,46.7639236 C63.8905474,46.7594956 65.1947579,46.7218581 65.8439158,46.5373603 C66.8283368,46.2583996 67.0073895,45.8104389 66.7679158,45.8104389" id="Fill-56" fill="#FBB4BA"></path>
                                <path d="M41.44,59.0650572 L35.5577895,56.1352319 C34.8415789,58.9248389 34.5615789,60.0296118 33.5675789,62.9269655 C33.5675789,62.9269655 35.5622105,62.71221 38.0011579,65.1350354 C38.7033684,65.8331751 40.4762105,68.1460397 41.44,67.872245 C42.4037895,67.5977122 41.44,59.0650572 41.44,59.0650572" id="Fill-58" fill="#6D6E72"></path>
                                <path d="M67.6810105,75.8172376 C65.2906947,80.6060629 64.3165895,86.2819537 64.1839579,88.7675083 C63.2098526,81.3211764 58.9597474,77.5463511 58.9597474,77.5463511 C59.7629053,80.2503511 60.1895368,82.6650585 60.3545895,84.817041 C62.8974316,91.0287135 63.4559579,96.0684559 63.4559579,96.0684559 C63.4559579,96.0684559 64.1161684,90.0973686 67.2816421,83.1410629 C67.2809053,81.1639843 67.3840632,78.738207 67.6810105,75.8172376" id="Fill-64" fill="#CA916B"></path>
                                <path d="M71.4825263,1.18750175 C71.4825263,1.18750175 65.7322105,-2.31352882 54.6103158,2.70850175 C43.4898947,7.73053231 40.1947368,23.6209603 39.5581053,29.1758205 C39.1358947,32.8643009 27.692,44.1452354 26.0628421,70.5572048 C26.6574737,69.4701437 27.2896842,68.3675847 27.9712632,67.2665017 C30.3998947,63.3359603 35.0508421,61.9935541 39.4210526,61.9994581 L42.0847368,60.0098336 C43.3587368,41.5246284 45.7306316,35.7815803 54.6103158,29.1772965 C64.6564211,21.7043969 70.5017895,12.4359646 70.5017895,12.4359646 C70.5017895,12.4359646 73.3894737,9.38510873 73.6414737,6.78442751 C73.8927368,4.18374629 71.4825263,1.18750175 71.4825263,1.18750175" id="Fill-66" fill="#6D6E72"></path>
                                <path d="M47.9870632,76.5963349 C42.8232737,75.3816013 36.8828526,82.6810729 34.7578,86.5570031 C36.6507474,90.6838502 44.6749579,91.2890031 44.6749579,91.2890031 C44.6749579,91.2890031 57.5652737,90.0779594 58.9601158,89.2757629 C55.7718,84.365907 53.3335895,77.85461 47.9870632,76.5963349" id="Fill-68" fill="#251F20"></path>
                                <path d="M78.8412211,76.5963349 C84.0809053,75.3816013 90.1075368,82.6810729 92.2635368,86.5570031 C90.3433263,90.6838502 82.2019579,91.2890031 82.2019579,91.2890031 C82.2019579,91.2890031 69.1237474,90.0779594 67.7090105,89.2757629 C70.9430105,84.365907 73.4165895,77.85461 78.8412211,76.5963349" id="Fill-70" fill="#251F20"></path>
                                <path d="M66.1066,18.2622581 C49.8231263,36.5570616 39.6186,28.6841707 39.9796526,60.0539655 C39.9796526,69.1681576 46.0121789,78.7303105 49.9233368,81.0992624 C46.5007053,76.1953105 43.8930211,71.2293672 43.8930211,68.9238825 C46.5007053,73.1806162 48.9706,73.1806162 48.9706,73.1806162 C48.9706,73.1806162 42.7914421,60.5521096 43.3669158,53.3161052 C45.0815474,31.7468345 59.1758632,28.0908258 66.1066,18.2622581" id="Fill-72" fill="#3F3E40"></path>
                                <path d="M77.3786632,32.6159668 C73.5596105,48.4960629 74.7267684,61.075124 77.2725579,68.6727441 C78.1619263,71.3280367 79.4071895,75.2888358 80.6502421,79.3219581 C81.2559263,77.133814 78.6327684,69.8896917 80.4336105,63.7532943 C81.9515053,63.7532943 83.3868737,74.5176349 84.3491895,74.5346087 C83.5806632,70.5295301 85.3137158,67.0078358 83.8496105,62.7001808 C86.3821368,62.7001808 89.8954,62.7193686 95.9470842,64.4720978 C94.8138211,61.6470672 87.8646632,52.5860105 86.4499263,43.1205345 C85.0344526,33.6550585 85.6010842,22.7254079 80.6502421,12.3448227 C75.6986632,1.96497555 71.4824526,1.18787074 71.4824526,1.18787074 C71.4824526,1.18787074 73.8926632,4.18337729 73.6414,6.78479651 C73.3894,9.38473974 70.5017158,12.4355956 70.5017158,12.4355956 C73.9501368,13.4318838 78.8641368,25.8906524 77.3786632,32.6159668" id="Fill-74" fill="#3F3E40"></path>
                                <path d="M88.3450105,62.8927227 C88.3450105,62.8927227 85.1191158,61.4779934 83.0353263,55.9275611 C80.9522737,50.3771288 81.8504842,38.8283035 81.8504842,38.8283035 C81.8504842,38.8283035 79.9464842,45.1388668 81.3118526,52.3313297 C82.6764842,59.5237926 83.8495368,62.700107 83.8495368,62.700107 C84.9975368,62.700107 86.5913263,62.5901463 88.3450105,62.8927227 Z" id="Fill-76" fill="#6D6E72"></path>
                                <path d="M48.3742,112.807279 C48.6291474,112.807279 49.6474632,112.239763 50.1595684,111.870768 C50.6716737,111.501772 52.6449368,109.870073 53.0384105,109.912877 C53.4318842,109.954942 57.7630421,110.915069 58.4018842,111.456755 C59.0422,111.99844 59.3509368,111.223549 58.6472526,110.858982 C57.9435684,110.494414 54.1340947,108.884117 52.1682,109.228021 C50.2015684,109.571925 47.8974632,112.083309 47.9873579,112.296589 C48.0765158,112.50913 48.3742,112.807279 48.3742,112.807279" id="Fill-78" fill="#251F20"></path>
                                <path d="M74.2021368,122.787061 C74.2021368,122.787061 74.7098211,121.950917 75.9012947,122.059401 C77.0927684,122.167886 80.1808737,122.418065 80.1808737,122.418065 C80.1808737,122.418065 83.9689789,123.769327 84.4471895,124.450493 C84.9261368,125.131659 86.5361368,128.885083 86.5361368,128.885083 C86.5361368,128.885083 85.3255053,129.209799 83.9719263,126.888078 L82.6190842,124.56562 C82.6190842,124.56562 77.3639263,123.366384 76.9844526,123.366384 C76.6057158,123.366384 73.6922421,122.956799 74.2021368,122.787061" id="Fill-80" fill="#251F20"></path>
                                <path d="M48.1485789,124.340901 C49.2000526,124.136478 50.7363684,122.760862 51.5137368,123.039823 C52.2918421,123.319521 52.7619474,122.734294 52.1120526,122.384486 C51.4628947,122.034679 49.5596316,121.503325 50.5175263,120.616259 C51.4754211,119.729194 52.7516316,119.73067 53.5172105,119.755762 C54.2820526,119.779377 53.5776316,118.496748 53.347,118.255425 C53.1156316,118.01484 52.9225789,116.455465 53.0780526,116.112299 C53.2335263,115.768395 52.8798421,114.82229 52.8798421,114.82229 C52.8798421,114.82229 53.305,114.194259 52.1599474,114.439272 C51.0148947,114.685024 47.9842632,116.241447 47.9842632,116.241447 C47.9842632,116.241447 47.5723684,113.83412 47.1634211,114.382447 C46.7544737,114.931513 45.1555263,116.713024 45.2719474,117.361718 C45.3883684,118.01115 45.0877368,118.867958 45.5011053,119.091569 C45.9144737,119.315181 45.9734211,120.55722 46.2092105,121.325469 C46.4457368,122.094456 47.4493158,122.44943 47.4493158,122.744626 C47.4493158,123.039823 47.6224737,124.443482 48.1485789,124.340901" id="Fill-84" fill="#251F20"></path>
                                <path d="M107.127263,117.364596 C105.533474,117.718832 103.939684,115.564635 103.939684,115.564635 C103.939684,115.564635 103.731158,115.03402 103.137263,115.00081 C101.018842,117.095967 96.6994737,126.545207 95.4409474,129.114155 C94.6768421,130.674269 93.1530526,133.268308 91.9195789,135.315496 C91.3558947,136.796644 91.0125263,137.736107 91.0125263,137.736107 C91.0125263,137.736107 101.106526,127.070657 103.939684,124.345993 C106.772842,121.62133 112.439895,118.251662 111.554211,117.364596 C110.669263,116.477531 108.721053,117.01036 107.127263,117.364596" id="Fill-90" fill="#251F20"></path>
                                <path d="M19.1652632,114.241122 L18.5146316,114.178393 C18.5146316,114.178393 16.4625263,116.715607 14.0051579,117.860969 C11.5485263,119.006331 12.0989474,119.089724 17.5633684,119.323668 C23.0285263,119.557611 39.8882105,126.133851 39.8882105,126.133851 L40.9890526,123.365646 C40.9890526,123.365646 30.338,119.266104 28.14,118.100078 C26.2124211,117.078698 21.1746316,114.684655 19.1652632,114.241122" id="Fill-92" fill="#251F20"></path>
                                <path d="M19.0012421,85.9429943 C18.4618737,86.7171472 11.1546105,99.1087585 10.7920842,99.8681515 C9.55271579,102.465881 16.3935579,94.1760249 17.9645053,92.6284572 C20.2354526,90.3893917 23.3434526,90.2580293 23.0221895,88.3252301 C22.7001895,86.391693 20.1684,84.2692301 19.0012421,85.9429943" id="Fill-94" fill="#251F20"></path>
                            </g>
                        </g>
                    </g>
                </g>
            </g>
        </g>
    </g>
</svg>