<?xml version="1.0" encoding="UTF-8"?>
<svg width="99px" height="170px" viewBox="0 0 99 170" version="1.1" xmlns="http://www.w3.org/2000/svg" xmlns:xlink="http://www.w3.org/1999/xlink">
    <!-- Generator: sketchtool 52.3 (67297) - http://www.bohemiancoding.com/sketch -->
    <title>395D53AD-C105-4192-AA5B-7EA9D53A1AA7</title>
    <desc>Created with sketchtool.</desc>
    <defs>
        <rect id="path-1" x="0" y="0" width="100" height="170"></rect>
        <polygon id="path-3" points="100.7484 0.465022926 100.7484 184.191917 0.29841884 184.191917 0.29841884 0.465022926"></polygon>
    </defs>
    <g id="Dashboard" stroke="none" stroke-width="1" fill="none" fill-rule="evenodd">
        <g id="Dashboard---New---Free" transform="translate(-726.000000, -2074.000000)">
            <g id="Dashboard-/-Advanced-Tools---Free" transform="translate(695.000000, 1413.000000)">
                <g id="Graphic-/-Dashboard---Advanced-Upsell" transform="translate(30.000000, 661.000000)">
                    <g id="graphic-dashboard-advanced-upsell">
                        <mask id="mask-2" fill="white">
                            <use xlink:href="#path-1"></use>
                        </mask>
                        <g id="Mask"></g>
                        <g id="graphic" mask="url(#mask-2)">
                            <g transform="translate(1.000000, 0.000000)">
                                <path d="M28.0722,59.6284716 C28.0722,59.6284716 23.7080632,78.3644214 24.9936421,86.0189738 C25.8121895,84.9903603 27.7995579,90.0170633 29.4360316,92.0736681 C31.0725053,94.1302729 33.4828105,95.9578821 33.4828105,95.9578821 C33.4828105,95.9578821 35.0907158,92.7855459 39.4803158,93.7369978 C43.8699158,94.6890721 66.5172211,93.2161572 67.9065158,92.5310371 C69.2964316,91.8452948 74.3306842,97.4432424 74.3306842,97.4432424 C74.3306842,97.4432424 74.0890947,95.3866376 75.4920526,94.815393 C76.8943895,94.2441485 78.6482421,95.0443886 78.6482421,95.0443886 C78.6482421,95.0443886 80.1803789,90.1352948 80.3555158,88.1894541 C80.5306526,86.2436135 80.3555158,82.6045742 80.3555158,82.6045742 L28.0722,59.6284716 Z" id="Fill-1" fill="#3F3E40"></path>
                                <path d="M69.1775,66.8836507 L33.3427632,66.8836507 C33.2260053,64.2645131 33.2396684,61.1139563 33.4396474,57.3268166 C34.5569211,36.2704192 36.3542474,29.7067074 45.5551421,23.4055939 C54.7560368,17.1044803 60.0604474,12.9564236 60.0604474,12.9564236 C63.2178789,13.7964891 67.5416474,21.8306266 66.1815421,27.5013799 C62.6837737,40.8914017 63.7526053,51.4980066 66.0840368,57.9042838 C66.8982368,60.143214 68.0391105,63.482941 69.1775,66.8836507" id="Fill-3" fill="#1F191A"></path>
                                <path d="M36.8181737,100.997591 C36.8181737,109.810811 27.9290474,125.833038 25.5361316,130.949348 C23.1425947,136.065658 18.8119947,146.298278 22.6867421,179.688704 C22.1172368,187.363791 22.4588158,191.133508 22.4588158,191.133508 C22.4588158,191.133508 19.7243211,197.191936 19.0405421,212.810309 C18.3561421,228.428682 23.1425947,259.260953 23.1425947,259.260953 C23.1425947,259.260953 21.5471105,259.79984 21.3191842,261.954141 C21.0912579,264.108442 20.8639526,266.127711 20.8639526,266.127711 C20.8639526,266.127711 17.6723632,272.455582 17.1028579,274.071619 C16.5327316,275.687034 22.9146684,278.784075 24.0543,278.784075 C25.1939316,278.784075 26.5614895,280.803344 29.0686789,280.534523 C31.5758684,280.264457 32.9434263,276.898595 33.1713526,275.821444 C33.3992789,274.744294 33.3992789,272.051728 33.9694053,269.897427 C34.5389105,267.743126 34.3109842,266.262121 33.3992789,264.108442 C32.4875737,261.954141 31.9180684,261.415254 31.6901421,260.607547 C31.4622158,259.79984 32.2596474,258.183802 31.9180684,256.568388 C31.5758684,254.95235 31.2342895,256.702798 30.7784368,252.529228 C30.3225842,248.355036 33.0577,228.024829 36.2486684,218.734326 C39.4396368,209.444447 42.4026789,200.962274 39.2117105,186.824905 C39.5532895,184.940047 39.3253632,182.516302 39.3253632,182.516302 C39.3253632,182.516302 48.7846158,165.147481 50.9496053,145.086717 C53.1152158,125.025331 52.5450895,100.997591 52.5450895,100.997591 L36.8181737,100.997591 Z" id="Fill-5" fill="#1F191A"></path>
                                <path d="M51.0511474,145.041789 L51.7218842,145.306254 C52.9677158,145.797226 54.3849579,145.290698 55.0389263,144.120206 L61.4221053,132.699671 L45.7001579,125.967947 L45.7001579,137.170687 C45.7001579,140.647313 47.8229158,143.769246 51.0511474,145.041789" id="Fill-7" fill="#1F191A"></path>
                                <g id="Group-11" stroke-width="1" fill="none" transform="translate(16.768421, 100.532817)">
                                    <mask id="mask-4" fill="white">
                                        <use xlink:href="#path-3"></use>
                                    </mask>
                                    <g id="Clip-10"></g>
                                    <path d="M100.620712,173.537807 C99.9369326,171.653571 93.3283116,165.593898 92.9848695,163.57463 C92.6445326,161.555984 93.5549958,160.748276 93.1010063,159.267894 C92.6445326,157.78689 90.5931958,156.438429 90.0236905,154.41916 C89.4535642,152.400514 79.6527326,107.026398 77.9423537,100.428462 C76.2319747,93.8330142 74.2942905,91.0035491 73.8409221,87.9077522 C73.50928,85.6644662 72.2827011,74.8643352 70.0705116,63.1930251 C69.6618589,61.0511692 69.2227747,58.8831779 68.75388,56.7294989 C68.7513958,56.7201648 68.7482905,56.7176758 68.7482905,56.7176758 C68.5358905,55.757512 68.3185221,54.7973483 68.0918379,53.8490076 C67.7813116,52.5273046 67.45588,51.2199138 67.1155432,49.9399028 C63.0134905,34.4553177 57.4283642,27.3184945 57.0880274,22.0696408 C56.7452063,16.8170535 54.8075221,3.48925873 54.8075221,3.48925873 L35.8225642,3.48925873 C35.8026905,1.56644214 35.7766063,0.465022926 35.7766063,0.465022926 L20.0496905,0.465022926 C20.0496905,9.27824345 11.1611853,25.3004705 8.76764842,30.4161583 C6.37473263,35.5330906 2.04351158,45.7650884 5.91888,79.1561365 C5.34875368,86.8306015 5.69033263,90.6003177 5.69033263,90.6003177 C5.69033263,90.6003177 2.95583789,96.6593679 2.27205895,112.277741 C1.58828,127.895492 6.37473263,158.728385 6.37473263,158.728385 C6.37473263,158.728385 4.77862737,159.26665 4.55132211,161.420951 C4.32277474,163.575252 4.09546947,165.594521 4.09546947,165.594521 C4.09546947,165.594521 0.90388,171.923014 0.334374737,173.538429 C-0.235751579,175.154466 6.14618526,178.250885 7.28581684,178.250885 C8.42544842,178.250885 9.79300632,180.270776 12.3008168,180.001333 C14.8073853,179.73189 16.1749432,176.366027 16.4034905,175.288877 C16.6307958,174.211726 16.6307958,171.51916 17.2009221,169.364859 C17.7704274,167.210558 17.5425011,165.729553 16.6307958,163.575252 C15.7190905,161.420951 15.1495853,160.882687 14.9216589,160.074357 C14.6937326,159.26665 15.4911642,157.651235 15.1495853,156.03582 C14.8073853,154.419783 14.4658063,156.17023 14.0099537,151.996038 C13.5541011,147.822468 16.2892168,127.491639 19.4801853,118.201759 C22.6711537,108.911879 25.6341958,100.429084 22.4432274,86.2917151 C22.7848063,84.406857 22.55688,81.9837347 22.55688,81.9837347 C22.55688,81.9837347 32.0161326,64.6149138 34.1811221,44.5535273 C34.1842274,44.5255251 34.1873326,44.4969007 34.1904379,44.4682762 C34.2214905,44.4813439 34.2513011,44.4962784 34.2829747,44.5087238 L34.9530905,44.7731889 C35.1543116,44.8528395 35.3605011,44.9032434 35.5666905,44.9318679 C35.5666905,44.9331124 35.5666905,44.934357 35.5673116,44.9349793 C35.7505221,46.0227085 35.9685116,47.1875993 36.2268695,48.430274 C36.2361853,48.4744552 36.2442589,48.5167697 36.2535747,48.5615731 C36.3013958,48.788702 36.3517011,49.0214312 36.4020063,49.2535382 C36.4262274,49.3667915 36.4498274,49.4775557 36.4746695,49.5914312 C36.5206274,49.7998919 36.5690695,50.0127085 36.6168905,50.2249028 C36.6498063,50.3680251 36.68148,50.5099028 36.7150168,50.6548919 C36.7615958,50.8565076 36.8100379,51.0612347 36.85848,51.2659618 C36.8969853,51.4283745 36.9354905,51.5901648 36.9752379,51.7544443 C37.0224379,51.9517041 37.0721221,52.1514531 37.1211853,52.351202 C37.1659011,52.5310382 37.2106168,52.7108745 37.2565747,52.8925775 C37.3062589,53.0879705 37.3565642,53.2846081 37.4074905,53.4831124 C37.4577958,53.6753941 37.5081011,53.8695426 37.5596484,54.0655579 C37.6111958,54.2603286 37.6633642,54.4557216 37.7167747,54.6536037 C37.7720484,54.8601976 37.8291853,55.0686583 37.8869432,55.2789858 C37.9403537,55.472512 37.9937642,55.6666605 38.0490379,55.863298 C38.1105221,56.0829596 38.1738695,56.3051103 38.2378379,56.5278832 C38.2931116,56.7220317 38.3483853,56.9161801 38.4061432,57.1128177 C38.4744589,57.3467915 38.5446379,57.5851212 38.6154379,57.8222063 C38.6719537,58.0138657 38.7284695,58.2036583 38.7868484,58.3978068 C38.86448,58.6529378 38.9445958,58.9130469 39.0247116,59.1731561 C39.0812274,59.3554814 39.1365011,59.53594 39.1936379,59.7207544 C39.2861747,60.0144662 39.3818168,60.3137784 39.47808,60.6130906 C39.5277642,60.7692806 39.5762063,60.9229814 39.6271326,61.0804159 C39.7761853,61.5408963 39.9289642,62.0063548 40.0873326,62.478036 C40.6425537,64.135143 41.2580168,65.8700338 41.9355853,67.6827085 C41.9709853,67.7810273 42.0070063,67.8799683 42.0461326,67.9820207 C42.5293116,69.2676321 43.0100063,70.4760819 43.4938063,71.6216823 L43.4938063,71.6247937 C44.4129642,73.8201648 45.3265326,75.7616496 46.21588,77.4809836 C46.2189853,77.484095 46.2189853,77.4872063 46.2189853,77.4903177 C51.7656063,88.2126648 56.4048695,90.2468679 56.4048695,90.2468679 C56.4048695,90.2468679 57.7718063,95.6637347 59.2523958,97.7750993 C60.1659642,103.796191 60.3926484,112.95166 62.3303326,118.335547 C64.2673958,123.722545 78.2857958,142.437337 80.4501642,149.573538 C82.6145326,156.70725 84.0982274,159.671126 83.2976905,162.094248 C82.50088,164.516748 82.0437853,165.862719 82.7306695,167.211802 C83.4144484,168.557774 83.1846589,169.769335 84.0982274,170.980274 C85.0080695,172.191835 84.3249116,177.761158 84.0982274,180.025602 C83.8678168,182.289422 89.1101221,183.904837 90.3634063,184.173658 C91.6173116,184.443102 94.1251221,181.667152 96.6329326,180.025602 C99.1401221,178.38654 101.304491,175.422043 100.620712,173.537807" id="Fill-9" fill="#1F191A" mask="url(#mask-4)"></path>
                                </g>
                                <path d="M72.7160716,89.8833373 C71.1224505,95.5391561 71.5758189,104.021951 71.5758189,104.021951 L48.3273347,116.138807 L36.8198505,100.998337 C36.8198505,100.998337 36.1360716,81.8050186 30.8912821,74.1324203 C26.1060716,65.919691 27.9655032,52.2770273 31.2732295,52.2770273 L40.9840084,52.2770273 L51.9244716,52.2770273 C51.9244716,52.2770273 60.1515558,52.6721692 66.4204611,52.8190251 C69.85364,52.896809 72.7011663,52.899298 73.2861979,52.7231954 C77.0118926,51.6043526 81.2629979,57.0330426 81.3791347,61.8786648 C81.4927874,66.7267762 74.3134189,84.2306299 72.7160716,89.8833373" id="Fill-12" fill="#1F191A"></path>
                                <path d="M47.9112916,88.0803079 C51.8897547,85.7573712 52.9629337,80.0212795 52.8039442,78.9696419 C46.5809968,83.2315742 35.3480179,86.9969345 35.3480179,86.9969345 L35.3784495,87.6571638 C35.5206705,88.4835393 35.6492284,89.3030699 35.7647442,90.1064214 C37.3235863,90.1711376 44.3340284,90.1692707 47.9112916,88.0803079" id="Fill-14" fill="#1B1416"></path>
                                <path d="M73.4994053,85.6247031 L55.2168579,80.4872358 C55.2168579,80.4872358 56.2279316,87.5879672 64.3755211,89.5879454 C68.4223,90.5810895 70.9388053,90.4958384 72.7143947,89.890369 C72.7150158,89.8885022 72.7156368,89.8860131 72.7162579,89.883524 C72.9783421,88.9557183 73.3919632,87.7061987 73.8981211,86.2475961 L73.4994053,85.6247031 Z" id="Fill-16" fill="#1B1416"></path>
                                <path d="M38.7507653,60.9556507 C34.1276495,60.9556507 28.6530705,62.894024 27.3147021,77.1110437 C25.9763337,91.327441 41.5486074,89.1302031 45.4419863,88.3548537 C49.3347442,87.5795044 55.0533968,83.961 53.3498495,71.165869 C51.6469232,58.370738 38.7507653,60.9556507 38.7507653,60.9556507" id="Fill-18" fill="#1F191A"></path>
                                <path d="M64.3079505,88.8517991 C60.9822137,88.0727162 54.2102558,86.9128035 52.8718874,72.6964061 C51.53414,58.4793865 67.1064137,60.6766245 70.9991716,61.4519738 C74.8925505,62.2273231 80.6105821,65.8464498 78.9070347,78.6415808 C77.2041084,91.4367118 67.6343084,89.6302598 64.3079505,88.8517991" id="Fill-20" fill="#1F191A"></path>
                                <path d="M60.8339063,123.431571 C60.9022221,123.831691 61.1096537,124.222477 61.8990116,124.182652 C62.6877484,124.143449 64.3055905,122.443405 64.7788326,121.969235 C65.2520747,121.495064 67.6195274,119.478907 67.9350221,119.439082 C68.2505168,119.399879 69.5131168,120.272302 70.0652326,121.812422 C70.6173484,123.352543 71.5644537,125.34132 73.4189168,125.967947 C75.2727589,126.593951 69.1578747,115.842357 69.1578747,115.842357 L60.8339063,123.431571 Z" id="Fill-22" fill="#1B1416"></path>
                                <path d="M62.7668084,104.444722 C63.0823032,105.248695 62.5699347,105.600278 63.3586716,105.800027 C64.1480295,105.999776 66.39624,107.343881 66.7123558,107.620791 C67.0278505,107.89708 68.6450716,113.905726 68.6450716,113.905726 L72.3142505,111.138488 C72.3142505,111.138488 69.4338084,105.366927 69.3158084,105.366927 C69.1971874,105.366927 62.7668084,104.444722 62.7668084,104.444722" id="Fill-24" fill="#1B1416"></path>
                                <path d="M69.3160568,52.723631 C69.3160568,52.723631 79.1380042,51.7808908 81.6923937,55.1473755 C84.2474042,58.513238 84.9640989,62.4179869 85.8000358,64.4372555 C86.6365937,66.4571463 91.5335937,78.8521572 93.4451937,85.714559 C95.3561726,92.5769607 97.9490674,97.1052249 98.0552674,98.3174083 C98.1620884,99.5289694 98.0888042,102.340389 97.3714884,103.344734 C96.6554147,104.348456 82.5879516,118.427954 81.6309095,120.178402 C80.6744884,121.928227 80.0739305,127.656229 74.9986884,127.149079 C69.9240674,126.640683 70.7600042,118.0241 68.8484042,118.293544 C66.9374253,118.562365 60.7256568,124.621415 60.3679305,123.948118 C60.0095832,123.274821 60.1288253,115.600356 59.88972,114.119352 C59.6506147,112.638347 66.3399726,109.945782 66.9374253,109.810749 C67.5348779,109.676338 68.9676463,110.484046 68.9676463,110.484046 C68.9676463,110.484046 68.6682989,107.536349 68.1317095,106.71433 C67.5957411,105.891688 64.1898884,105.233325 63.1148463,104.829472 C62.0398042,104.424996 61.6820779,102.944614 64.3091305,103.482878 C66.9374253,104.021764 68.7291621,104.829472 70.0426884,104.424996 C71.3568358,104.021764 72.4318779,107.252594 73.1485726,109.272485 C73.8652674,111.291753 75.8961095,116.677507 75.8961095,116.677507 C75.8961095,116.677507 79.2560042,111.291753 80.4434568,108.868631 C81.6296674,106.444886 86.0490779,96.7505306 87.4824674,96.6161201 C85.6907305,95.8084127 79.1199937,86.2490895 77.7983937,84.2291987 C76.4767937,82.2099301 74.4527832,75.208762 72.4219411,70.7657489 C70.3910989,66.3227358 69.3160568,52.723631 69.3160568,52.723631" id="Fill-26" fill="#1F191A"></path>
                                <path d="M69.1775,53.031095 C69.7041526,52.8991736 75.0824684,53.1723504 77.3443421,53.7653745 C79.6062158,54.3590207 81.2122579,54.5569028 80.8694368,55.0180055 C79.2161947,55.6769902 77.5002263,57.772798 77.2375211,59.4933766 C76.9741947,61.2145775 66.6448474,58.0260622 66.6448474,58.0260622 L66.4206474,52.8189007 L69.1775,53.031095 Z" id="Fill-28" fill="#251F20"></path>
                                <path d="M35.1384747,110.426797 C35.1384747,110.426797 35.9626116,114.315367 37.0575274,114.514493 C38.1518221,114.714242 38.8486432,114.813806 39.3461063,113.617179 C39.8435695,112.421175 41.5440116,107.998697 42.1321484,107.734854 C42.7202853,107.471011 45.9988221,106.239537 45.9988221,106.239537 C45.9988221,106.239537 48.7991484,107.435541 49.4953484,107.535727 C50.1921695,107.63529 49.9928116,105.840662 49.9928116,105.840662 L46.6099379,104.444908 L40.4199063,104.444908 L35.1384747,110.426797 Z" id="Fill-30" fill="#1B1416"></path>
                                <path d="M41.9943368,97.548095 C41.9943368,97.4634662 45.2393368,94.9090448 45.4498737,94.8878876 C45.6604105,94.8667303 47.2621053,95.3521015 47.5359895,95.3732587 C47.8098737,95.3944159 48.7308947,95.7901801 49.3028842,95.9830841 C49.8748737,96.1753657 50.7809895,95.5848308 50.5704526,95.2469378 C50.3599158,94.9090448 45.7237579,93.3253657 45.7237579,93.3253657 L42.5787474,94.8667303 L40.5826842,97.315988 L41.9943368,97.548095 Z" id="Fill-32" fill="#1B1416"></path>
                                <path d="M36.6465147,52.6021015 C32.2680937,51.7676365 26.2830095,52.3357697 23.5758411,56.7184225 C20.8680516,61.1010753 19.0154516,65.522309 17.5907568,68.305726 C16.1654411,71.089143 8.32837789,83.4760644 5.33552526,89.8910535 C2.34329368,96.3066648 0.917977895,100.07327 0.348472632,102.529372 C-0.221653684,104.985475 -0.221653684,106.786949 1.34588316,107.114263 C2.91342,107.441578 21.7232411,110.389274 24.1453463,110.716588 C26.5680726,111.043903 31.9780621,109.734023 32.9779568,110.716588 C33.9778516,111.699154 36.6856411,113.827942 38.1103358,112.518062 C39.5356516,111.208182 41.1460411,105.726599 42.4067779,105.765802 C43.6681358,105.804383 49.52342,106.786949 50.51462,106.131698 C51.5051989,105.476447 51.2337989,105.640104 50.51462,103.184001 C49.7954411,100.727898 50.3655674,95.9793504 48.7980305,95.652036 C47.2304937,95.3240993 42.24282,95.4877566 42.24282,95.4877566 C42.24282,95.4877566 45.3778937,93.1405513 45.94802,93.7410426 C46.5181463,94.3421561 49.6662621,95.3240993 50.51462,95.652036 C51.3629779,95.9793504 50.9381779,94.1946779 49.0843358,93.2855404 C47.2304937,92.3764028 44.9506095,91.721774 43.5252937,92.2133679 C42.1005989,92.7043395 39.8207147,95.1604421 39.1077463,96.1430076 C38.3953989,97.1255731 34.5479779,104.021578 34.5479779,104.021578 C34.5479779,104.021578 25.5706621,100.564241 23.7180621,99.5816758 C21.8654621,98.5991103 16.6026621,96.1106496 15.6052516,96.274929 C18.7397042,93.8182041 20.0221779,90.0522216 20.8773674,88.5786845 C21.7325568,87.1045251 25.1526937,79.7362172 25.5799779,77.7710862 C27.8598621,76.1332697 33.6673253,71.5863373 34.82062,72.8122107 C35.9732937,74.0368395 36.6465147,52.6021015 36.6465147,52.6021015" id="Fill-34" fill="#1F191A"></path>
                                <path d="M30.7234737,52.2766539 C26.5512421,53.8597107 24.6048632,55.6114028 25.0656842,56.3363483 C25.5258842,57.0612937 27.1710526,55.9412063 31.2501263,58.7096889 C35.3292,61.4781714 35.7894,62.0052347 35.7894,62.0052347 C35.7894,62.0052347 35.0000421,58.0681277 35.7894,58.0258133 C36.5787579,57.9841212 38.4214211,62.0052347 38.4214211,62.0052347 L37.8289368,56.600191 L30.7234737,52.2766539 Z" id="Fill-36" fill="#251F20"></path>
                                <path d="M58.4261474,47.058167 L58.4261474,58.0256889 L47.9111053,58.0256889 L47.9111053,47.058167 C50.4456211,49.6779269 52.6348316,51.0332325 53.1689368,51.0332325 C53.7030421,51.0332325 55.8916316,49.6779269 58.4261474,47.058167" id="Fill-38" fill="#FBC29C"></path>
                                <path d="M62.6324747,61.0526004 C54.7475905,69.5385066 53.4843695,81.0044672 53.4843695,81.0044672 C53.4843695,81.0044672 52.2230116,69.5385066 44.3356432,61.0526004 C43.1270747,59.6767598 43.1096853,55.9213559 44.3076958,52.2773384 C49.5450326,49.9046201 53.6588853,50.0489869 53.6588853,50.0489869 C53.6588853,50.0489869 58.0528326,50.6003188 62.8014011,52.7247511 C63.8565695,56.2225349 63.7913589,59.7333865 62.6324747,61.0526004" id="Fill-40" fill="#FBC29C"></path>
                                <path d="M58.4261474,37.0383635 L58.4261474,48.0874028 C55.8916316,50.7071627 53.7030421,52.0624683 53.1689368,52.0624683 C52.6348316,52.0624683 50.4456211,50.7071627 47.9111053,48.0874028 L47.9111053,37.0383635 L58.4261474,37.0383635 Z" id="Fill-42" fill="#CA916B"></path>
                                <path d="M67.2236684,11.595393 C66.0865211,4.82384279 62.2384789,3.3285262 53.1680053,3.3285262 C44.0981526,3.3285262 40.2501105,4.82384279 39.1129632,11.595393 C38.7515105,13.7378712 38.6633211,16.109345 38.7664158,18.6401201 C38.8695105,21.1920524 39.1701,23.9057751 39.5824789,26.7115939 C39.6582474,27.224345 39.7445737,27.7302511 39.8408368,28.2262009 C39.9880263,28.9909716 40.1575737,29.736452 40.3476158,30.4607751 C43.4882789,42.4332642 52.0681211,48.8669214 53.1680053,48.8669214 C54.2685105,48.8669214 62.8483526,42.4332642 65.9890158,30.4607751 C66.1784368,29.736452 66.3479842,28.9909716 66.4957947,28.2262009 C66.5914368,27.7302511 66.6783842,27.224345 66.7535316,26.7115939 C67.1665316,23.9057751 67.4671211,21.1920524 67.5702158,18.6401201 C67.6733105,16.109345 67.5851211,13.7378712 67.2236684,11.595393" id="Fill-44" fill="#FBC29C"></path>
                                <path d="M67.2236684,11.595393 L53.1680053,4.89478166 L39.1129632,11.595393 C38.7515105,13.7378712 38.6633211,16.109345 38.7664158,18.6401201 C38.8695105,21.1920524 39.1701,23.9057751 39.5824789,26.7115939 C39.6582474,27.224345 39.7445737,27.7302511 39.8408368,28.2262009 C39.9880263,28.9909716 40.1575737,29.736452 40.3476158,30.4607751 C41.3189421,31.0824236 42.5486263,31.536059 44.0633737,31.536059 C48.8808789,31.536059 50.3055737,29.3836245 50.9620263,28.5709389 C51.6197211,27.7601201 52.6612263,26.1677293 53.1680053,26.1677293 C53.6754053,26.1677293 54.7162895,27.7601201 55.3746053,28.5709389 C56.0304368,29.3836245 57.4551316,31.536059 62.2732579,31.536059 C63.7880053,31.536059 65.0176895,31.0824236 65.9890158,30.4607751 C66.1784368,29.736452 66.3479842,28.9909716 66.4957947,28.2262009 C66.5914368,27.7302511 66.6783842,27.224345 66.7535316,26.7115939 C67.1665316,23.9057751 67.4671211,21.1920524 67.5702158,18.6401201 C67.6733105,16.109345 67.5851211,13.7378712 67.2236684,11.595393" id="Fill-46" fill="#1F191A"></path>
                                <path d="M51.1536211,24.1095066 C51.1536211,25.7939934 47.8142211,29.7572358 44.2549684,29.7572358 C42.4967684,29.7572358 40.9522105,28.9949541 39.8405263,28.2264498 C39.7448842,27.7305 39.6585579,27.2245939 39.5827895,26.7118428 C39.1697895,23.906024 38.8692,21.1923013 38.7661053,18.6397467 C38.9636,17.7996812 39.2107789,17.2433712 39.5163368,17.2433712 C45.8697053,17.4325415 51.1536211,24.1095066 51.1536211,24.1095066" id="Fill-48" fill="#F1F2F2"></path>
                                <path d="M55.1828863,24.1095066 C55.1828863,25.7939934 58.5222863,29.7572358 62.0815389,29.7572358 C63.8397389,29.7572358 65.3842968,28.9949541 66.4959811,28.2264498 C66.5916232,27.7305 66.6779495,27.2245939 66.7537179,26.7118428 C67.1667179,23.906024 67.4673074,21.1923013 67.5704021,18.6397467 C67.3729074,17.7996812 67.1257284,17.2433712 66.8201705,17.2433712 C60.4668021,17.4325415 55.1828863,24.1095066 55.1828863,24.1095066" id="Fill-50" fill="#F1F2F2"></path>
                                <path d="M55.71842,32.2503635 C55.6084937,31.9591408 54.0564832,30.4271103 53.3857463,30.4271103 C52.7156305,30.4271103 50.6723674,32.0686605 50.5630621,32.3598832 C50.4531358,32.6511059 52.6094305,32.6455055 53.1683779,32.6455055 C53.7273253,32.6455055 55.8283463,32.5415862 55.71842,32.2503635" id="Fill-52" fill="#CA916B"></path>
                                <path d="M54.5909611,36.338309 C54.2388242,36.338309 53.3836347,37.1167697 53.1681295,37.1167697 C52.9532453,37.1167697 52.0980558,36.338309 51.7452979,36.338309 C51.3937821,36.338309 48.6835084,37.5200011 46.7719084,36.9524902 C47.7773926,37.8958526 47.5525716,38.6749356 48.6772979,39.7831998 C50.1349084,41.3699902 53.1681295,41.3413657 53.1681295,41.3413657 C53.1681295,41.3413657 56.2013505,41.3699902 57.6595821,39.7831998 C58.7836874,38.6749356 58.5588663,37.8958526 59.5649716,36.9524902 C57.6527505,37.5200011 54.9430979,36.338309 54.5909611,36.338309" id="Fill-54" fill="#DE1829"></path>
                                <path d="M56.2758147,38.6271452 L53.1680674,38.6271452 L50.0609411,38.6271452 C49.8590989,38.6271452 50.0100147,39.0048635 50.8397411,39.2400819 C51.3862674,39.3956496 52.4855305,39.4273854 53.1680674,39.431119 C53.8506042,39.4273854 54.9498674,39.3956496 55.4970147,39.2400819 C56.3267411,39.0048635 56.4776568,38.6271452 56.2758147,38.6271452" id="Fill-56" fill="#FBB4BA"></path>
                                <path d="M34.928,49.8033766 L29.9701368,47.3329618 C29.3664737,49.6851452 29.1304737,50.6166845 28.2926737,53.0597194 C28.2926737,53.0597194 29.9738632,52.8786386 32.0295474,54.9215535 C32.6214105,55.5102216 34.1156632,57.4604181 34.928,57.2295557 C35.7403368,56.998071 34.928,49.8033766 34.928,49.8033766" id="Fill-58" fill="#6D6E72"></path>
                                <path d="M57.0454232,63.9287358 C55.0307284,67.9666507 54.2096968,72.7525349 54.0979074,74.8483428 C53.2768758,68.569631 49.6946442,65.3867162 49.6946442,65.3867162 C50.3715916,67.6667162 50.7311811,69.702786 50.8702968,71.5173275 C53.0135495,76.7549803 53.4843074,81.0044672 53.4843074,81.0044672 C53.4843074,81.0044672 54.0407705,75.9696747 56.7088126,70.1041507 C56.7081916,68.4370873 56.7951389,66.3916834 57.0454232,63.9287358" id="Fill-60" fill="#CA916B"></path>
                                <path d="M60.2495579,1.00129585 C60.2495579,1.00129585 55.4028632,-1.95075655 46.0286947,2.28379585 C36.6557684,6.51834825 33.8784211,19.9170819 33.3418316,24.6009138 C32.9859684,27.7110229 23.3404,37.2230535 21.9672526,59.4935011 C22.4684421,58.5768963 23.0013053,57.6472238 23.5757789,56.7187959 C25.6227684,53.4045819 29.5428526,52.2726714 33.2263158,52.2776496 L35.4714211,50.6000076 C36.5452211,35.0133701 38.5443895,30.1708592 46.0286947,24.6021583 C54.4961263,18.3010448 59.4229368,10.4859465 59.4229368,10.4859465 C59.4229368,10.4859465 61.8568421,7.91347926 62.0692421,5.72059716 C62.2810211,3.52771507 60.2495579,1.00129585 60.2495579,1.00129585" id="Fill-62" fill="#6D6E72"></path>
                                <path d="M40.4462389,64.585667 C36.0939021,63.5614094 31.0869758,69.7162893 29.29586,72.9844552 C30.8913442,76.4641932 37.6546074,76.9744552 37.6546074,76.9744552 C37.6546074,76.9744552 48.5193021,75.953309 49.6949547,75.2769007 C47.00766,71.1369334 44.9525968,65.6466386 40.4462389,64.585667" id="Fill-64" fill="#251F20"></path>
                                <path d="M66.4518863,64.585667 C70.8681916,63.5614094 75.9477811,69.7162893 77.7649811,72.9844552 C76.1465179,76.4641932 69.2845074,76.9744552 69.2845074,76.9744552 C69.2845074,76.9744552 58.2614442,75.953309 57.0690232,75.2769007 C59.7948232,71.1369334 61.8796968,65.6466386 66.4518863,64.585667" id="Fill-66" fill="#251F20"></path>
                                <path d="M55.71842,15.3986496 C41.9937779,30.8247413 33.39282,24.186357 33.6971358,50.6372194 C33.6971358,58.3222631 38.7816937,66.3850251 42.0782411,68.3825142 C39.1934516,64.2475251 36.9955463,60.0602653 36.9955463,58.1162915 C39.1934516,61.7055491 41.27522,61.7055491 41.27522,61.7055491 C41.27522,61.7055491 36.0670726,51.0572522 36.5521147,44.9558876 C37.9973042,26.7687806 49.8767989,23.6860513 55.71842,15.3986496" id="Fill-68" fill="#3F3E40"></path>
                                <path d="M65.2191589,27.5016288 C62.0002432,40.8916507 62.9839905,51.4982555 65.1297274,57.9045328 C65.8793379,60.1434629 66.9289168,63.48319 67.9766326,66.8838996 C68.4871379,65.0388668 66.2761905,58.9306572 67.7940432,53.756476 C69.0734116,53.756476 70.2832221,62.832917 71.0943168,62.8472293 C70.4465589,59.4701659 71.9072747,56.50069 70.6732432,52.8684956 C72.8078011,52.8684956 75.76898,52.8846747 80.8696853,54.3625677 C79.9145063,51.9805153 74.0573589,44.3402751 72.8649379,36.3590306 C71.6718958,28.377786 72.1494853,19.1619563 67.9766326,10.4090961 C63.8031589,1.65685808 60.2494958,1.00160699 60.2494958,1.00160699 C60.2494958,1.00160699 62.2809589,3.52740393 62.06918,5.7209083 C61.85678,7.91316812 59.4228747,10.4856354 59.4228747,10.4856354 C62.3294011,11.3257009 66.4712011,21.8308755 65.2191589,27.5016288" id="Fill-70" fill="#3F3E40"></path>
                                <path d="M74.4622232,53.0308461 C74.4622232,53.0308461 71.7432547,51.8379531 69.9869179,47.1578548 C68.2312021,42.4777566 68.9882653,32.7398417 68.9882653,32.7398417 C68.9882653,32.7398417 67.3834653,38.0608788 68.5342758,44.1255295 C69.6844653,50.1901801 70.6731811,52.8684334 70.6731811,52.8684334 C71.6407811,52.8684334 72.9841179,52.7757151 74.4622232,53.0308461 Z" id="Fill-72" fill="#6D6E72"></path>
                                <path d="M40.77254,95.1185633 C40.9874242,95.1185633 41.8457189,94.6400371 42.2773505,94.3289017 C42.7089821,94.0177664 44.3721611,92.6419258 44.7038032,92.6780175 C45.0354453,92.7134869 48.6859926,93.5230611 49.2244453,93.9798079 C49.76414,94.4365546 50.0243611,93.7831703 49.4312558,93.4757686 C48.8381505,93.1683668 45.6273084,91.8105721 43.97034,92.1005502 C42.3127505,92.3905284 40.3707189,94.5081157 40.4464874,94.687952 C40.5216347,94.8671659 40.77254,95.1185633 40.77254,95.1185633" id="Fill-74" fill="#251F20"></path>
                                <path d="M62.5418011,103.533468 C62.5418011,103.533468 62.9697063,102.828436 63.9739484,102.919909 C64.9781905,103.011383 67.5810221,103.222333 67.5810221,103.222333 C67.5810221,103.222333 70.7738537,104.361711 71.1769168,104.936067 C71.5806011,105.510422 72.9376011,108.675291 72.9376011,108.675291 C72.9376011,108.675291 71.9172116,108.949091 70.7763379,106.991427 L69.6360853,105.033141 C69.6360853,105.033141 65.2067379,104.021951 64.8868958,104.021951 C64.5676747,104.021951 62.1120326,103.676591 62.5418011,103.533468" id="Fill-76" fill="#251F20"></path>
                                <path d="M71.8715642,112.932246 C71.6001642,113.303119 71.9641011,114.675848 71.7815116,114.951514 C71.6001642,115.226558 71.4622905,116.916023 71.1430695,117.329211 C70.8238484,117.741776 70.1369642,118.199145 70.1369642,118.199145 L68.91908,117.652169 C68.8681537,117.173643 68.6501642,116.713163 68.2595221,116.446831 C68.0713432,116.321132 67.8415537,116.231525 67.7428063,116.030532 C67.6266695,115.79158 67.7906274,115.462398 68.0502274,115.415106 C67.9191853,115.357857 67.8564589,115.205401 67.8477642,115.061656 C67.8353432,114.918534 67.8682589,114.774789 67.8651537,114.631045 C67.8595642,114.212257 67.5726379,113.856318 67.4266905,113.467398 C67.1875853,112.827704 67.3490589,112.056088 67.8266484,111.57134 C67.6173537,111.448752 67.4329011,111.27825 67.3310484,111.059833 C67.2291958,110.841416 67.2267116,110.569484 67.3552695,110.366001 C67.4266905,110.252126 67.5459326,110.16563 67.6744905,110.129538 C68.8352379,110.351067 71.6026484,111.425106 71.8715642,111.658457 C72.1907853,111.93039 72.1460695,112.561372 71.8715642,112.932246" id="Fill-78" fill="#251F20"></path>
                                <path d="M40.5823737,104.843659 C41.4686158,104.67129 42.7635105,103.511378 43.4187211,103.746596 C44.0745526,103.982437 44.4707842,103.488976 43.9230158,103.19402 C43.3758684,102.899063 41.7716895,102.451028 42.5790579,101.703059 C43.3864263,100.95509 44.4620895,100.956334 45.1073632,100.977491 C45.7520158,100.997404 45.1582895,99.9158974 44.9639,99.7124148 C44.7688895,99.5095546 44.6061737,98.1946965 44.7372158,97.9053406 C44.8682579,97.6153624 44.5701526,96.8176114 44.5701526,96.8176114 C44.5701526,96.8176114 44.9285,96.288059 43.9633842,96.4946528 C42.9982684,96.701869 40.4438789,98.014238 40.4438789,98.014238 C40.4438789,98.014238 40.0967105,95.9843908 39.7520263,96.446738 C39.4073421,96.9097074 38.0596579,98.411869 38.1577842,98.958845 C38.2559105,99.5064432 38.0025211,100.2289 38.3509316,100.417448 C38.6993421,100.605996 38.7490263,101.653277 38.9477632,102.301061 C39.1471211,102.949467 39.9929947,103.248779 39.9929947,103.497688 C39.9929947,103.746596 40.1389421,104.930155 40.5823737,104.843659" id="Fill-80" fill="#251F20"></path>
                                <path d="M60.9785495,112.712273 C60.8388126,113.279162 60.59536,114.08998 60.9785495,114.868441 C60.3916547,116.165253 60.1096968,116.925668 60.7729811,117.359391 C60.3171284,118.977917 60.0078442,120.199434 60.8338442,120.717164 C60.08796,122.827906 59.7196758,121.161465 59.5457811,120.347535 C59.3718863,119.532983 60.0432442,118.126651 60.0432442,118.126651 C60.0432442,118.126651 59.4880232,117.534871 59.5165916,116.942469 C59.5457811,116.35069 60.2469495,114.868441 60.2469495,114.868441 C60.2469495,114.868441 59.7836442,113.538648 60.8338442,112.872197" id="Fill-82" fill="#1B1416"></path>
                                <path d="M90.2929789,98.9612718 C88.9496421,99.2599618 87.6063053,97.4435535 87.6063053,97.4435535 C87.6063053,97.4435535 87.4305474,96.9961408 86.9299789,96.9681386 C85.1444526,98.7347653 81.5038421,106.70232 80.4430842,108.868444 C79.7990526,110.183925 78.5147158,112.371206 77.4750737,114.097385 C76.9999684,115.346283 76.7105579,116.138433 76.7105579,116.138433 C76.7105579,116.138433 85.2183579,107.145377 87.6063053,104.847953 C89.9942526,102.550529 94.7707684,99.7092413 94.0242632,98.9612718 C93.2783789,98.2133024 91.6363158,98.6625819 90.2929789,98.9612718" id="Fill-84" fill="#251F20"></path>
                                <path d="M16.1535789,96.3275731 L15.6051895,96.2746801 C15.6051895,96.2746801 13.8755579,98.4140469 11.8043474,99.3798111 C9.73375789,100.345575 10.1976842,100.415892 14.8034105,100.613152 C19.4097579,100.810412 33.6200632,106.355466 33.6200632,106.355466 L34.5479158,104.021329 C34.5479158,104.021329 25.5706,100.564615 23.718,99.5814269 C22.0933263,98.7202041 17.8471895,96.7015579 16.1535789,96.3275731" id="Fill-86" fill="#251F20"></path>
                                <path d="M16.0153326,72.466726 C15.5607221,73.119488 9.40174316,83.568036 9.09618526,84.2083526 C8.05157474,86.3987456 13.8174274,79.4087784 15.1415116,78.1038766 C17.0555958,76.2159072 19.6751958,76.105143 19.4044168,74.4754159 C19.1330168,72.8450666 16.99908,71.0554159 16.0153326,72.466726" id="Fill-88" fill="#251F20"></path>
                            </g>
                        </g>
                    </g>
                </g>
            </g>
        </g>
    </g>
</svg>