<?xml version="1.0" encoding="UTF-8"?>
<svg width="16px" height="17px" viewBox="0 0 16 17" version="1.1" xmlns="http://www.w3.org/2000/svg" xmlns:xlink="http://www.w3.org/1999/xlink">
    <title>Icons / 16px / Cart@3x</title>
    <g id="Symbols" stroke="none" stroke-width="1" fill="none" fill-rule="evenodd">
        <g id="Icons-/-Product" transform="translate(0.000000, 1.000000)" fill="#888888">
            <g id="Icons-/-16px-/-Cart" transform="translate(0.000000, -1.000000)">
                <path d="M1,2.16748047 C0.510172526,2.12833659 0.265258789,1.92397054 0.265258789,1.55438232 C0.265258789,1.18479411 0.510172526,1 1,1 L2.99639893,1 C3.36142985,0.937784831 3.59094238,1.21014404 3.68493652,1.81707764 C3.77893066,2.42401123 3.92167155,3.21856689 4.11315918,4.20074463 C11.2190348,4.20074463 14.8371582,4.20074463 14.9675293,4.20074463 C15.1630859,4.20074463 15.3854675,4.14328003 15.5733643,4.39562988 C15.761261,4.64797974 15.7330627,4.83435059 15.63974,5.03585815 C15.5464172,5.23736572 13.8984985,9.52886963 13.7612915,9.77191162 C13.6240845,10.0149536 13.4609985,10.1741333 13.2716064,10.1741333 C13.1453451,10.1741333 10.4215698,10.1741333 5.10028076,10.1741333 L5.29870605,11.3245239 L14.9675293,11.3245239 C15.4696045,11.2818807 15.7206421,11.4660238 15.7206421,11.8769531 C15.7206421,12.2878825 15.4696045,12.4714355 14.9675293,12.4276123 C8.43151855,12.4276123 5.07639567,12.4276123 4.90216064,12.4276123 C4.64080811,12.4276123 4.26824951,12.2606201 4.26824951,12.0687866 C4.26824951,11.9408976 4.00101725,10.3775024 3.46655273,7.37860107 L2.57446289,2.16748047 L1,2.16748047 Z" id="Path"></path>
                <circle id="Oval" cx="6.4" cy="15.1" r="1.9"></circle>
                <circle id="Oval" cx="11.9" cy="15.1" r="1.9"></circle>
            </g>
        </g>
    </g>
</svg>