<?xml version="1.0" encoding="UTF-8"?>
<svg width="128px" height="128px" viewBox="0 0 128 128" version="1.1" xmlns="http://www.w3.org/2000/svg" xmlns:xlink="http://www.w3.org/1999/xlink">
    <!-- Generator: sketchtool 52.5 (67469) - http://www.bohemiancoding.com/sketch -->
    <title>70B395B4-F8EE-47DE-9200-62AB5F1A4D09</title>
    <desc>Created with sketchtool.</desc>
    <defs>
        <circle id="path-1" cx="64" cy="64" r="64"></circle>
        <polygon id="path-3" points="102.4209 0.547 0.0609 0.547 0.0609 159.3003 102.4209 159.3003 102.4209 0.547"></polygon>
        <polygon id="path-5" points="0.9643 0.547 76.7703 0.547 76.7703 113.1813 0.9643 113.1813 0.9643 0.547"></polygon>
    </defs>
    <g id="SEO-Checkup" stroke="none" stroke-width="1" fill="none" fill-rule="evenodd">
        <g id="SEO-Checkup-/-Checkup---New" transform="translate(-616.000000, -253.000000)">
            <g id="Graphic-/-SEO-Checkup---Disabled" transform="translate(616.000000, 253.000000)">
                <g id="graphic-seocheckup-disabled">
                    <mask id="mask-2" fill="white">
                        <use xlink:href="#path-1"></use>
                    </mask>
                    <use id="Oval" fill="#DE1829" xlink:href="#path-1"></use>
                    <g id="graphic" mask="url(#mask-2)">
                        <g transform="translate(-8.000000, -9.000000)">
                            <path d="M27.142,165.4457 C27.142,165.4457 28.865,146.8637 22.49,136.0557 C18.248,128.8647 12.944,130.2237 16.964,113.6347 C20.985,97.0457 34.594,81.6497 34.594,81.6497 L49.331,54.8587 L52.773,50.2707 L69.994,80.7387 L71.643,96.8327 L32.944,134.8167 C32.944,134.8167 40.034,148.9127 27.142,165.4457" id="Fill-1" fill="#3F3E40"></path>
                            <g id="Group-5" stroke-width="1" fill="none" transform="translate(3.000000, 0.453000)">
                                <mask id="mask-4" fill="white">
                                    <use xlink:href="#path-3"></use>
                                </mask>
                                <g id="Clip-4"></g>
                                <path d="M89.7699,2.5063 C83.5409,2.0123 67.4999,-5.9947 51.3379,14.3853 C35.1759,34.7653 37.4509,59.5733 29.5379,69.9203 C21.6239,80.2663 9.5259,87.0703 9.3899,113.2993 C9.2969,131.1603 1.0409,146.5153 0.0609,159.3003 C1.8079,154.5403 42.1959,129.9733 30.4249,112.7583 C29.1729,110.9263 33.4409,157.4233 34.9229,155.6783 C47.4899,140.8823 102.4209,96.6283 102.4209,96.6283 L89.7699,2.5063 Z" id="Fill-3" fill="#3F3E40" mask="url(#mask-4)"></path>
                            </g>
                            <path d="M114.8138,108.7284 C114.8138,108.7284 116.7028,108.8414 128.5888,131.9654 C128.0358,151.3954 131.3058,163.8814 132.3508,200.5164 C137.4688,212.7764 137.9718,226.2514 136.1188,246.2184 C134.2658,266.1854 121.5178,309.4464 121.5178,309.4464 L114.8138,298.1824 C114.8138,298.1824 117.8418,240.4654 117.5858,229.7374 C117.3318,219.0094 117.5858,204.5754 117.5858,204.5754 C117.5858,204.5754 110.2518,169.0104 106.2158,140.2614 C102.1798,111.5124 114.8138,108.7284 114.8138,108.7284" id="Fill-6" fill="#171212"></path>
                            <path d="M79.2133,75.9262 C80.1793,82.0772 80.9293,88.2622 81.4623,94.4652 C85.2013,92.1722 88.8623,89.7512 92.4373,87.2092 C92.8183,86.9372 93.2183,86.6392 93.3843,86.2022 C93.5293,85.8162 101.6253,79.2682 101.5563,78.8612 C100.3853,71.9822 97.7973,65.0062 99.4123,58.2182 C97.4763,60.4592 86.5673,67.9072 84.0813,69.5162 C81.5943,71.1252 79.1733,73.2962 78.6093,76.2042" id="Fill-27" fill="#CA916B"></path>
                            <path d="M50.9086,153.7523 C50.9086,153.7523 50.8466,155.7013 50.1306,165.8133 C48.8616,183.7163 32.3816,209.1653 32.1266,209.5653 L48.8096,199.2533 L102.1086,217.5593 C98.7616,210.5543 95.9956,200.7593 97.9566,190.4513 C101.9756,169.3123 129.3666,148.6943 128.5896,131.9653 C127.8106,115.2363 114.5836,100.9713 110.3046,96.8213 C106.0236,92.6713 102.1356,68.7313 102.1356,68.7313 C102.1356,68.7313 76.4566,86.0573 75.0296,91.5043 C73.6026,96.9513 68.8946,102.2613 56.8346,110.4313 C44.7736,118.6013 35.4256,128.3353 37.4706,138.6083 C39.0496,146.5403 50.9086,153.7523 50.9086,153.7523" id="Fill-29" fill="#1F191A"></path>
                            <path d="M48.8236,132.7367 C48.8456,132.7937 48.8726,132.8487 48.8986,132.9037 C48.8046,132.9017 48.7116,132.9007 48.6166,132.8967 C48.6856,132.8437 48.7546,132.7897 48.8236,132.7367 M68.6896,107.8987 C67.1006,107.8747 65.6386,108.2837 64.2566,108.9117 C64.0866,108.7507 63.8046,108.6877 63.5616,108.8667 C62.7606,109.4537 61.9706,110.0527 61.1876,110.6587 C60.9996,110.7827 60.8116,110.9077 60.6246,111.0337 C58.1986,112.6687 55.8306,114.3957 53.5356,116.2097 C49.1456,119.6777 44.8206,123.4457 41.6096,128.0707 C40.1916,130.1137 38.1026,133.1667 40.6796,135.2087 C41.5786,135.9207 42.6796,136.1037 43.7796,136.2887 C45.1796,136.5247 46.5886,136.7137 48.0076,136.7857 C50.9616,136.9357 53.8766,136.5427 56.5276,135.5007 C58.2876,135.1527 60.0706,134.6177 61.5396,133.7147 C63.7736,132.3417 64.8606,129.8637 65.9226,127.5757 C68.4616,122.1007 70.3746,115.9627 70.5386,109.8827 C70.5656,108.8617 69.7346,107.9147 68.6896,107.8987" id="Fill-31" fill="#251F20"></path>
                            <path d="M126.7142,142.1884 C126.4012,137.3524 124.6992,132.4294 123.1282,127.8764 C120.8232,121.2024 117.8612,111.9754 110.6522,109.0914 C101.4222,105.3994 94.0112,114.0574 89.2212,120.8134 C88.8982,115.4784 84.4202,110.9124 79.0652,110.5284 C78.5462,110.3694 78.0262,110.4464 77.4912,110.5834 C77.4102,110.6034 77.3242,110.6264 77.2362,110.6514 C77.1772,110.4774 76.9882,110.3444 76.7842,110.4664 C71.7042,113.5124 67.2532,117.4994 63.6992,122.2424 C60.1412,126.9924 56.8872,132.8804 56.5182,138.9184 C56.2142,143.9034 58.6202,149.4364 63.6592,151.1174 C63.9462,151.2134 64.8812,151.2644 65.0222,151.4384 C64.9702,152.0624 64.9052,152.6844 64.8282,153.3034 L55.6912,188.5314 C55.6862,188.5424 55.6772,188.5504 55.6732,188.5624 C55.5332,188.9504 55.4092,189.3414 55.2932,189.7354 C54.8012,190.8874 54.2992,192.0354 53.7722,193.1734 C53.6962,193.3364 50.6162,205.1624 50.8392,205.1944 C65.2762,207.2634 82.5202,199.5874 95.9892,205.1764 C96.1592,205.2474 96.3282,205.0984 96.3832,204.9534 C99.8342,195.7274 103.9212,186.7484 108.6402,178.1014 C110.9592,173.8524 113.4262,169.6844 116.0372,165.6074 C118.5172,161.7354 121.3142,158.0374 123.5402,154.0084 C125.5452,150.3834 126.9852,146.3874 126.7142,142.1884" id="Fill-33" fill="#171212"></path>
                            <path d="M43.3519,188.7543 C44.1219,188.6163 44.9299,188.4683 45.7859,188.3063 C54.6069,167.3933 52.5309,158.0053 52.2929,154.4483 C38.5089,143.1673 39.5789,138.9933 39.3119,133.7653 C40.2899,126.1273 46.0209,119.2863 51.3609,114.4123 C42.1069,121.6873 35.7479,129.9563 37.4699,138.6083 C39.0489,146.5403 50.9089,153.7523 50.9089,153.7523 C50.9089,153.7523 50.8469,155.7013 50.1299,165.8133 C49.6239,172.9493 46.7019,181.2843 43.3519,188.7543" id="Fill-35" fill="#1F191A"></path>
                            <path d="M79.3402,106.81 C77.7252,110.656 78.2182,115.114 82.2062,125.777 C86.1952,136.441 88.0462,150.097 96.9222,160.109 C89.3002,161.626 82.6772,164.889 76.4872,170.614 C70.2992,176.338 91.3012,180.867 96.8682,177.945 C102.4352,175.024 116.0942,168.945 115.4372,165.12 C114.7792,161.294 110.3342,135.959 109.1612,121.79 C107.9892,107.621 104.5002,101.243 95.2972,99.929 C86.0942,98.614 80.0582,105.101 79.3402,106.81" id="Fill-45" fill="#171212"></path>
                            <path d="M115.4369,165.1195 C114.7789,161.2945 110.4799,137.5455 109.3069,123.3765 C109.2619,122.8365 109.2129,122.3095 109.1619,121.7895 C107.6289,131.3065 94.2969,145.6795 92.7209,154.3565 C93.9149,156.3445 95.2939,158.2725 96.9219,160.1085 C89.2999,161.6265 82.6769,164.8895 76.4879,170.6135 C70.2989,176.3385 60.8969,191.5845 54.6599,194.4705 C46.1609,198.4025 43.6359,198.5695 43.6359,198.5695 L31.4829,212.2715 C31.4829,212.2715 44.7249,215.0785 51.2219,213.9615 C57.7189,212.8435 99.4199,181.6675 104.4529,177.8995 C111.6629,172.5005 116.0939,168.9445 115.4369,165.1195" id="Fill-47" fill="#1F191A"></path>
                            <path d="M112.8939,37.6215 L112.8939,37.6495 L112.8939,37.6215 Z" id="Fill-53" fill="#022942"></path>
                            <path d="M47.5717,41.2689 C47.5717,41.2689 52.0227,61.1749 59.9737,72.5669 C67.9257,83.9589 70.4207,83.1289 71.4077,83.2129 C72.3937,83.2969 93.7737,72.3539 98.6677,62.7099 C103.5617,53.0659 101.8427,24.5559 101.8427,24.5559 L83.0267,16.0689 L47.5717,41.2689 Z" id="Fill-67" fill="#FBC29C"></path>
                            <path d="M89.6039,24.684 C85.9999,22.035 81.6419,20.726 77.1579,20.241 L48.9479,40.291 C48.6149,41.227 48.3099,42.175 48.0209,43.126 C49.2079,47.824 52.7099,60.466 58.1519,69.715 C58.9819,66.193 60.3499,62.897 62.8669,60.343 C63.7499,59.445 64.8479,58.431 64.6609,57.185 C64.5849,56.684 64.2999,56.237 64.2049,55.741 C63.9999,54.681 64.6719,53.668 65.3269,52.809 C72.5639,43.304 81.7229,35.468 89.9969,26.85 C90.1989,26.64 90.4079,26.414 90.4709,26.13 C90.6019,25.548 90.0839,25.038 89.6039,24.684" id="Fill-69" fill="#CA916B"></path>
                            <path d="M51.8441,53.6796 C51.8441,53.6796 54.4831,55.9806 60.0891,54.9936 C65.6961,54.0076 67.1001,49.2546 68.4321,49.8676 C69.7631,50.4816 72.8951,57.6116 81.7931,57.7516 C90.6931,57.8906 98.7111,52.4736 100.7991,45.6296 C102.8861,38.7856 95.4101,20.3456 95.4101,20.3456 L59.1551,26.8576 L51.8441,53.6796 Z" id="Fill-71" fill="#1F191A"></path>
                            <path d="M71.6488,48.0644 C71.6488,48.0644 74.6778,53.3024 80.9068,53.9844 C87.1348,54.6664 97.1888,46.4594 98.3968,42.2704 C99.6048,38.0814 95.7538,31.6534 95.7538,31.6534 C95.7538,31.6534 85.8698,34.1184 71.6488,48.0644" id="Fill-73" fill="#D2D4D5"></path>
                            <path d="M66.5658,46.7397 C66.5658,46.7397 64.1248,51.5107 59.0788,52.1157 C54.0328,52.7207 45.8638,45.2097 44.8738,41.3847 C43.8828,37.5607 46.9868,31.7077 46.9868,31.7077 C46.9868,31.7077 57.0198,31.7397 66.5658,46.7397" id="Fill-75" fill="#3F3E40"></path>
                            <g id="Group-79" stroke-width="1" fill="none" transform="translate(16.000000, 0.453000)">
                                <mask id="mask-6" fill="white">
                                    <use xlink:href="#path-5"></use>
                                </mask>
                                <g id="Clip-78"></g>
                                <path d="M38.3383,14.3853 C33.8413,20.0563 30.7743,26.0703 28.5153,32.0203 C28.0573,39.9983 29.5203,47.5813 28.9183,52.4813 C25.2273,82.5523 3.6293,81.5823 0.9643,113.1813 C3.5683,97.9553 20.6633,88.7653 29.3963,64.6253 C30.3363,62.0253 31.3363,59.3753 32.8763,57.0603 C34.4343,54.7183 36.5003,53.0303 38.6833,51.2983 C44.8223,46.4243 50.9633,41.5513 57.1033,36.6773 C59.3443,34.8983 62.3593,34.2493 64.7483,32.5433 C67.8513,30.3263 70.0463,27.1523 71.7083,23.7613 L76.7703,2.5063 C70.5403,2.0123 54.5003,-5.9947 38.3383,14.3853" id="Fill-77" fill="#6D6E72" mask="url(#mask-6)"></path>
                            </g>
                            <path d="M52.3353,39.2616 C52.3353,39.2616 44.9283,37.8646 37.6633,51.0866 C27.0693,70.3686 15.8383,76.4996 10.6073,77.3006 C23.1063,69.1506 41.4113,40.5016 46.1723,28.4456 C54.1333,8.2846 52.3353,39.2616 52.3353,39.2616" id="Fill-80" fill="#6D6E72"></path>
                            <path d="M65.0385,56.5307 C65.0385,56.5307 63.4105,54.8637 64.0245,54.7787 C64.6395,54.6917 69.8825,56.3547 70.1705,56.3987 C70.4585,56.4437 68.5085,57.2997 67.5345,57.7467 C66.5595,58.1947 65.0385,56.5307 65.0385,56.5307" id="Fill-82" fill="#CA916B"></path>
                            <path d="M60.7406,65.2948 C60.7406,65.2948 62.2306,66.5818 62.3826,67.3058 C62.5326,68.0308 61.9806,71.7798 66.3946,72.2038 C73.5436,72.8888 78.6646,67.6868 79.8796,66.6778 C80.7626,66.1258 82.3996,64.5258 83.0676,64.3148 C80.4816,65.8178 74.0376,65.3828 72.7496,64.9858 C71.7276,64.6708 70.4776,63.4578 69.0346,63.8768 C68.6526,63.9878 68.0746,64.7268 67.6436,65.0578 C66.9536,64.5868 66.7726,63.8288 65.3556,64.0218 C64.6106,64.1228 63.6146,65.1908 60.7406,65.2948" id="Fill-84" fill="#DE1829"></path>
                            <path d="M63.2914,67.4418 C63.1434,67.5068 62.5264,68.4818 63.8974,68.6338 C65.2694,68.7878 70.0744,68.8968 73.8074,67.8368 C75.8974,67.2948 77.0804,67.1088 76.3604,67.1058 C75.6414,67.1018 69.2034,67.2128 68.7204,67.3018 C68.2364,67.3928 67.6114,67.5528 67.3064,67.5708 C67.0014,67.5898 66.1684,67.3988 65.4654,67.3458 C64.7624,67.2938 63.6114,67.3008 63.2914,67.4418" id="Fill-86" fill="#FBB4BA"></path>
                            <path d="M40.224,131.8153 C53.579,123.7143 66.086,114.2153 77.473,103.5223 C79.005,102.0843 80.533,100.5883 82.005,99.0393 C89.672,91.6873 91.72,82.1483 91.33,72.3113 C91.233,69.8523 90.983,67.3753 90.63,64.9093 C89.18,57.8213 88.161,50.6833 86.023,43.8053 C85.434,41.1713 85.022,38.5073 84.903,35.7873 C84.785,33.0673 84.958,30.2923 85.542,27.4383 C85.728,24.8133 86.022,22.1953 86.424,19.5943 C87.203,14.5543 88.442,9.6353 90.262,4.8643 C90.55,4.1083 90.891,3.3083 91.573,2.8713 C92.845,2.0563 94.497,2.9093 95.738,3.7733 C97.914,5.2883 100.039,6.8903 102.095,8.5793 C116.66,22.3953 118.572,44.3773 115.108,63.1073 C113.331,72.7163 110.113,82.1453 105.458,90.7463 C100.14,100.5753 92.916,104.9803 81.599,106.4303 C78.812,108.1463 76.203,110.1783 73.823,112.4063 C67.473,118.3483 62.566,125.6453 57.958,133.0203 C58.968,130.1833 59.978,127.3453 60.989,124.5083 C54.351,127.9113 47.4,130.7023 40.252,132.8363" id="Fill-88" fill="#3F3E40"></path>
                            <path d="M126.4896,127.9418 C125.2016,124.7648 124.9036,121.3348 123.4426,118.2058 C121.9606,115.0318 120.5386,111.6708 118.5226,108.8008 C115.1436,103.9908 109.6906,100.7588 107.5206,95.0918 C107.2246,94.3178 106.1996,94.8838 106.2756,95.5668 C106.9516,101.6528 111.6016,105.8768 115.2856,110.3588 C117.5106,113.0648 119.6646,115.7058 121.5226,118.6848 C123.4636,121.7958 123.7616,125.3458 125.1156,128.6818 C125.4916,129.6108 126.8636,128.8658 126.4896,127.9418" id="Fill-98" fill="#251F20"></path>
                        </g>
                    </g>
                </g>
            </g>
        </g>
    </g>
</svg>