<?xml version="1.0" encoding="UTF-8"?>
<svg width="128px" height="128px" viewBox="0 0 128 128" version="1.1" xmlns="http://www.w3.org/2000/svg" xmlns:xlink="http://www.w3.org/1999/xlink">
    <!-- Generator: sketchtool 52.5 (67469) - http://www.bohemiancoding.com/sketch -->
    <title>9DE2C5C8-D3FC-4A41-AA36-EE2A08FF7AED</title>
    <desc>Created with sketchtool.</desc>
    <defs>
        <circle id="path-1" cx="64" cy="64" r="64"></circle>
    </defs>
    <g id="Sitemap" stroke="none" stroke-width="1" fill="none" fill-rule="evenodd">
        <g id="Sitemap-/-Crawler-/-New" transform="translate(-716.000000, -253.000000)">
            <g id="Body" transform="translate(390.000000, 132.000000)">
                <g id="Graphic-/-URL-Crawler-/-Disabled" transform="translate(326.000000, 121.000000)">
                    <g id="graphic-sc-crawler-disabled">
                        <mask id="mask-2" fill="white">
                            <use xlink:href="#path-1"></use>
                        </mask>
                        <use id="mask" fill="#2A2A2A" xlink:href="#path-1"></use>
                        <g id="graphic" mask="url(#mask-2)">
                            <g transform="translate(30.000000, 8.000000)">
                                <path d="M17.7782415,37.0134464 C17.7782415,37.0134464 15.0624928,48.6435322 15.8624928,53.3949914 C16.3718647,52.7564936 17.6085797,55.8767511 18.6269372,57.1533605 C19.6452947,58.42997 21.1451981,59.5644335 21.1451981,59.5644335 C21.1451981,59.5644335 22.1457778,57.5952489 24.877372,58.1858498 C27.6089662,58.7768369 41.7021063,57.8625451 42.5666473,57.4372661 C43.4315749,57.0116009 46.5643285,60.4864506 46.5643285,60.4864506 C46.5643285,60.4864506 46.4139903,59.2098412 47.2870338,58.8552489 C48.1596908,58.5006567 49.2510918,58.9973948 49.2510918,58.9973948 C49.2510918,58.9973948 50.2045217,55.9501416 50.3135072,54.7422876 C50.4224928,53.5344335 50.3135072,51.2755494 50.3135072,51.2755494 L17.7782415,37.0134464 Z" id="Fill-3" fill="#3F3E40"></path>
                                <path d="M43.3575652,41.517 L21.0580483,41.517 C20.9853913,39.891206 20.9938937,37.9355408 21.1183382,35.5847253 C21.8136039,22.5142532 22.932058,18.4399185 28.6576618,14.528588 C34.3832657,10.6172575 37.6841353,8.04240773 37.6841353,8.04240773 C39.6489662,8.56386695 42.3395942,13.5509485 41.4932174,17.0709914 C39.316599,25.3826652 39.9817198,31.9665708 41.4325411,35.9431803 C41.9392077,37.3329657 42.6491594,39.4060558 43.3575652,41.517" id="Fill-5" fill="#1F191A"></path>
                                <path d="M23.2207536,62.6928026 C23.2207536,68.1634893 17.6891594,78.1090687 16.2000773,81.2849485 C14.7106087,84.4608283 12.0157295,90.812588 14.4269372,111.53924 C14.0725411,116.303446 14.2851014,118.643446 14.2851014,118.643446 C14.2851014,118.643446 12.5834589,122.404133 12.1575652,132.099026 C11.732058,141.793918 14.7106087,160.932631 14.7106087,160.932631 C14.7106087,160.932631 13.7177585,161.267137 13.5759227,162.604391 C13.434087,163.941644 13.2926377,165.195077 13.2926377,165.195077 C13.2926377,165.195077 11.3065507,169.123017 10.9521546,170.12615 C10.597372,171.128897 14.5687729,173.051343 15.2779517,173.051343 C15.9871304,173.051343 16.8381449,174.304777 18.3983382,174.13791 C19.9585314,173.97027 20.8095459,171.880957 20.9513816,171.21233 C21.0932174,170.543704 21.0932174,168.87233 21.448,167.535077 C21.8023961,166.197824 21.6605604,165.278511 21.0932174,163.941644 C20.5258744,162.604391 20.1714783,162.269884 20.0296425,161.768511 C19.8878068,161.267137 20.3840386,160.264004 20.1714783,159.261258 C19.9585314,158.258124 19.745971,159.344691 19.4622995,156.754004 C19.178628,154.162931 20.880657,141.543232 22.8663575,135.776279 C24.852058,130.009712 26.6959227,124.744519 24.7102222,115.96894 C24.9227826,114.79894 24.7809469,113.294433 24.7809469,113.294433 C24.7809469,113.294433 30.6673237,102.512974 32.01457,90.0605279 C33.3622029,77.6076953 33.0074203,62.6928026 33.0074203,62.6928026 L23.2207536,62.6928026 Z" id="Fill-7" fill="#1F191A"></path>
                                <path d="M32.0777585,90.0326395 L32.4951498,90.1968026 C33.2704155,90.5015665 34.1523478,90.1871459 34.5593043,89.4605794 L38.5314783,82.3714378 L28.7479034,78.1928112 L28.7479034,85.1467597 C28.7479034,87.3048283 30.0688696,89.2427253 32.0777585,90.0326395" id="Fill-9" fill="#1F191A"></path>
                                <path d="M73.3590725,170.125494 C72.9335652,168.95588 68.8211014,165.194421 68.6073816,163.940987 C68.3955942,162.68794 68.9621643,162.186567 68.6796522,161.267639 C68.3955942,160.348326 67.1190725,159.511288 66.7646763,158.257854 C66.4098937,157.004807 60.3109565,128.839442 59.2466087,124.743863 C58.1822609,120.649828 56.9764638,118.893476 56.6943382,116.971803 C56.4879614,115.579313 55.7246763,108.875279 54.348058,101.630472 C54.0937585,100.300944 53.8205217,98.9551931 53.5287343,97.6183262 C53.5271884,97.6125322 53.525256,97.6109871 53.525256,97.6109871 C53.3930821,97.0149785 53.2578164,96.41897 53.1167536,95.8303004 C52.9235169,95.0098712 52.7210048,94.1983262 52.5092174,93.4037768 C49.9565604,83.7919313 46.4810048,79.3618455 46.2692174,76.103691 C46.0558841,72.8432189 44.850087,64.5701717 44.850087,64.5701717 L33.0359807,64.5701717 C33.0236135,63.3766094 33.0073816,62.6929185 33.0073816,62.6929185 L23.220715,62.6929185 C23.220715,68.1636052 17.6895072,78.1091845 16.2000386,81.2846781 C14.7109565,84.4609442 12.0156908,90.8123176 14.427285,111.539356 C14.0725024,116.303176 14.2850628,118.643176 14.2850628,118.643176 C14.2850628,118.643176 12.5834203,122.404249 12.157913,132.099142 C11.7324058,141.793648 14.7109565,160.932747 14.7109565,160.932747 C14.7109565,160.932747 13.7177198,161.266867 13.5762705,162.60412 C13.4340483,163.941373 13.292599,165.194807 13.292599,165.194807 C13.292599,165.194807 11.3065121,169.123133 10.9521159,170.12588 C10.5973333,171.129013 14.5687343,173.051073 15.277913,173.051073 C15.9870918,173.051073 16.8381063,174.304893 18.398686,174.137639 C19.9584928,173.970386 20.8095072,171.881073 20.9517295,171.212446 C21.0931787,170.54382 21.0931787,168.872446 21.4479614,167.535193 C21.8023575,166.19794 21.6605217,165.278627 21.0931787,163.941373 C20.5258357,162.60412 20.1714396,162.27 20.0296039,161.76824 C19.8877681,161.266867 20.384,160.26412 20.1714396,159.261373 C19.9584928,158.25824 19.7459324,159.344807 19.4622609,156.753734 C19.1785894,154.163047 20.8806184,141.542961 22.8663188,135.776395 C24.8520193,130.009828 26.6958841,124.744249 24.7101836,115.96867 C24.922744,114.79867 24.7809082,113.294549 24.7809082,113.294549 C24.7809082,113.294549 30.667285,102.51309 32.0145314,90.0602575 C32.0164638,90.0428755 32.0183961,90.0251073 32.0203285,90.0073391 C32.0396522,90.0154506 32.0582029,90.024721 32.077913,90.0324464 L32.4949179,90.1966094 C32.6201353,90.2460515 32.7484444,90.2773391 32.8767536,90.2951073 C32.8767536,90.2958798 32.8767536,90.2966524 32.8771401,90.2970386 C32.9911498,90.9722318 33.1268019,91.6953219 33.2875749,92.4666953 C33.293372,92.4941202 33.2983961,92.5203863 33.3041932,92.5481974 C33.3339517,92.6891845 33.365256,92.8336481 33.3965604,92.9777253 C33.4116329,93.0480258 33.4263188,93.1167811 33.4417778,93.1874678 C33.4703768,93.316867 33.5005217,93.44897 33.5302802,93.5806867 C33.5507633,93.6695279 33.5704734,93.7575966 33.591343,93.8475966 C33.6203285,93.9727468 33.6504734,94.0998283 33.6806184,94.2269099 C33.7045797,94.3277253 33.7285411,94.4281545 33.7532754,94.5301288 C33.7826473,94.6525751 33.8135652,94.7765665 33.8440966,94.9005579 C33.8719227,95.0121888 33.8997488,95.1238197 33.9283478,95.2366094 C33.9592657,95.357897 33.99057,95.4799571 34.0222609,95.603176 C34.0535652,95.7225322 34.0848696,95.8430472 34.1169469,95.964721 C34.1490242,96.0856223 34.1814879,96.2069099 34.2147246,96.3297425 C34.2491208,96.4579828 34.2846763,96.587382 34.3206184,96.7179399 C34.3538551,96.8380687 34.3870918,96.9585837 34.4214879,97.0806438 C34.4597488,97.2169957 34.4991691,97.3548927 34.5389758,97.493176 C34.573372,97.613691 34.6077681,97.734206 34.6437101,97.8562661 C34.6862222,98.0015021 34.7298937,98.1494421 34.7739517,98.2966094 C34.8091208,98.4155794 34.8442899,98.5333906 34.8806184,98.6539056 C34.9289275,98.8122747 34.9787826,98.9737339 35.0286377,99.1351931 C35.0638068,99.2483691 35.0982029,99.3603863 35.1337585,99.4751073 C35.191343,99.6574249 35.2508599,99.8432189 35.3107633,100.029013 C35.3416812,100.125966 35.3718261,100.221373 35.4035169,100.319099 C35.4962705,100.604936 35.591343,100.893863 35.6898937,101.186652 C36.035401,102.215279 36.4183961,103.292189 36.8400386,104.417382 C36.8620676,104.478412 36.8844831,104.539828 36.9088309,104.603176 C37.2095072,105.401202 37.5086377,106.15133 37.8097005,106.862446 L37.8097005,106.864378 C38.3816812,108.227124 38.9501836,109.432275 39.5036135,110.499528 C39.5055459,110.501459 39.5055459,110.503391 39.5055459,110.505322 C42.9571401,117.161073 45.8440966,118.423777 45.8440966,118.423777 C45.8440966,118.423777 46.6947246,121.786223 47.6160773,123.096824 C48.1845797,126.834335 48.3256425,132.517468 49.5314396,135.859442 C50.7368502,139.203348 59.4603285,150.8203 60.8071884,155.25 C62.1540483,159.678155 63.0773333,161.51794 62.5791691,163.02206 C62.0833237,164.525794 61.7988792,165.361288 62.2263188,166.198712 C62.6518261,167.034206 62.5088309,167.786266 63.0773333,168.53794 C63.6435169,169.29 63.2183961,172.747082 63.0773333,174.152704 C62.9339517,175.55794 66.1961739,176.560687 66.9760773,176.727554 C67.7563671,176.894807 69.3169469,175.171674 70.8775266,174.152704 C72.4377198,173.135279 73.7845797,171.295107 73.3590725,170.125494" id="Fill-11" fill="#1F191A"></path>
                                <path d="M45.5596135,55.7937425 C44.5679227,59.304515 44.8500483,64.5700944 44.8500483,64.5700944 L30.3828019,72.0914678 L23.2218357,62.6932275 C23.2218357,62.6932275 22.7963285,50.7792361 19.5325604,46.0165751 C16.5547826,40.9186352 17.7118841,32.4501373 19.7702415,32.4501373 L25.8131401,32.4501373 L32.621256,32.4501373 C32.621256,32.4501373 37.7408696,32.6954163 41.6419324,32.7865751 C43.7783575,32.8348584 45.5503382,32.8364034 45.9143961,32.7270901 C48.2328502,32.0325837 50.8782609,35.4023691 50.9505314,38.4102232 C51.021256,41.4196223 46.5536232,52.2849013 45.5596135,55.7937425" id="Fill-13" fill="#1F191A"></path>
                                <path d="M30.1238647,54.6745751 C32.5996135,53.2326438 33.2674396,49.6720429 33.1685024,49.0192532 C29.2960386,51.6647897 22.3058937,54.0020858 22.3058937,54.0020858 L22.3248309,54.4119142 C22.4133333,54.9248755 22.4933333,55.433588 22.5652174,55.9322575 C23.5352657,55.9724292 27.8977778,55.9712704 30.1238647,54.6745751" id="Fill-15" fill="#1B1416"></path>
                                <path d="M46.0470338,53.1502532 L34.670029,49.9612403 C34.670029,49.9612403 35.2992077,54.3689227 40.3693527,55.610382 C42.8876135,56.2268627 44.4536039,56.1739442 45.5585314,55.7981073 C45.5589179,55.7969485 45.5593043,55.7954034 45.5596908,55.7938584 C45.7227826,55.2179356 45.9801739,54.4423133 46.2951498,53.5369056 L46.0470338,53.1502532 Z" id="Fill-17" fill="#1B1416"></path>
                                <path d="M24.4233816,37.8372747 C21.5464734,37.8372747 18.1397101,39.0404936 17.3068599,47.865515 C16.4740097,56.6901502 26.1644444,55.3262446 28.5872464,54.8449571 C31.0096618,54.3636695 34.5683092,52.1175322 33.5082126,44.1751288 C32.4485024,36.2327253 24.4233816,37.8372747 24.4233816,37.8372747" id="Fill-19" fill="#1F191A"></path>
                                <path d="M40.3273043,55.1534292 C38.2577391,54.669824 34.0436329,53.949824 33.2107826,45.1251888 C32.3783188,36.3001674 42.0687536,37.664073 44.4911691,38.1453605 C46.913971,38.6266481 50.4722319,40.8731717 49.4121353,48.8155751 C48.3524251,56.7579785 42.397256,55.6366481 40.3273043,55.1534292" id="Fill-21" fill="#1F191A"></path>
                                <path d="M38.1654493,76.6183519 C38.2079614,76.866721 38.3370435,77.1092961 38.8282512,77.0845751 C39.3190725,77.0602403 40.3258357,76.0049614 40.6203285,75.7106266 C40.9148213,75.4162918 42.388058,74.1647897 42.5843865,74.1400687 C42.780715,74.1157339 43.5664155,74.657279 43.9099903,75.6132876 C44.2535652,76.5692961 44.8429372,77.8038026 45.9969469,78.1927725 C47.15057,78.5813562 43.3453527,71.9074506 43.3453527,71.9074506 L38.1654493,76.6183519 Z" id="Fill-23" fill="#1B1416"></path>
                                <path d="M39.3682705,64.8325236 C39.564599,65.3315794 39.2457585,65.5498197 39.7365797,65.6738112 C40.2277874,65.7978026 41.6268213,66.6321373 41.8235362,66.8040258 C42.0198647,66.9755279 43.0262415,70.7053133 43.0262415,70.7053133 L45.3095266,68.987588 C45.3095266,68.987588 43.5170628,65.40497 43.4436329,65.40497 C43.3698164,65.40497 39.3682705,64.8325236 39.3682705,64.8325236" id="Fill-25" fill="#1B1416"></path>
                                <path d="M43.4438261,32.7273605 C43.4438261,32.7273605 49.5559034,32.1421674 51.1454686,34.231867 C52.7354203,36.3211803 53.1814106,38.745 53.7016039,39.9984335 C54.2221836,41.2522532 57.2695266,48.9462876 58.4590918,53.20603 C59.6482705,57.4657725 61.2617971,60.2766309 61.3278841,61.0290773 C61.3943575,61.7811373 61.3487536,63.5262876 60.9023768,64.149721 C60.4563865,64.7727682 51.7027633,73.5124249 51.1072077,74.5989914 C50.5120386,75.6851717 50.1383188,79.2407511 46.980058,78.9259442 C43.8221836,78.6103648 44.3423768,73.2617382 43.1528116,73.4289914 C41.9636329,73.5958584 38.0981256,77.3569313 37.8755169,76.9389914 C37.6525217,76.5210515 37.7267246,71.7572318 37.5779324,70.8379185 C37.4291401,69.9186052 41.5918454,68.2472318 41.9636329,68.163412 C42.3354203,68.0799785 43.2270145,68.5813519 43.2270145,68.5813519 C43.2270145,68.5813519 43.0407343,66.7516094 42.7068213,66.2413519 C42.3732947,65.7307082 40.2538744,65.3220386 39.5848889,65.0713519 C38.9159034,64.820279 38.6932947,63.9013519 40.3280773,64.2354721 C41.9636329,64.5699785 43.0786087,65.0713519 43.896,64.820279 C44.7137778,64.5699785 45.3827633,66.5754721 45.8287536,67.8292918 C46.274744,69.0827253 47.5385121,72.4258584 47.5385121,72.4258584 C47.5385121,72.4258584 49.6293333,69.0827253 50.3678841,67.5786052 C51.1064348,66.0740987 53.8565797,60.0564592 54.7485604,59.9730258 C53.6335845,59.4716524 49.5446957,53.5378326 48.7222802,52.2840129 C47.8998647,51.0305794 46.6403478,46.6846996 45.3765797,43.9267597 C44.1128116,41.1688197 43.4438261,32.7273605 43.4438261,32.7273605" id="Fill-27" fill="#1F191A"></path>
                                <path d="M43.3575652,32.9182532 C43.6852947,32.8363648 47.0321546,33.0059356 48.4396908,33.3740472 C49.8468406,33.7425451 50.8466473,33.8653777 50.633314,34.1516009 C49.6045217,34.5606567 48.5366957,35.8616009 48.3732174,36.9296266 C48.2093527,37.9980386 41.7815266,36.0188112 41.7815266,36.0188112 L41.6420097,32.7865365 L43.3575652,32.9182532 Z" id="Fill-29" fill="#251F20"></path>
                                <path d="M22.1754976,68.5458155 C22.1754976,68.5458155 22.6883478,70.9595923 23.3697005,71.0831974 C24.0506667,71.2071888 24.4842899,71.2689914 24.7938551,70.5262017 C25.1034203,69.7837983 26.1615845,67.0386052 26.5275749,66.8748283 C26.8935652,66.7110515 28.9337585,65.9466309 28.9337585,65.9466309 C28.9337585,65.9466309 30.6763671,66.6890343 31.1096039,66.7512232 C31.5432271,66.8130258 31.4191691,65.6990343 31.4191691,65.6990343 L29.3140483,64.8326395 L25.4620676,64.8326395 L22.1754976,68.5458155 Z" id="Fill-31" fill="#1B1416"></path>
                                <path d="M26.4418164,60.5515365 C26.4418164,60.4990043 28.4611401,58.913382 28.5921546,58.9002489 C28.7231691,58.8871159 29.7198841,59.1884034 29.8903188,59.2015365 C30.0607536,59.2146695 30.6338937,59.4603348 30.9898357,59.5800773 C31.3457778,59.6994335 31.9096425,59.332867 31.778628,59.1231245 C31.6476135,58.913382 28.7625894,57.9303348 28.7625894,57.9303348 L26.8054879,58.8871159 L25.5633623,60.4074592 L26.4418164,60.5515365 Z" id="Fill-33" fill="#1B1416"></path>
                                <path d="M23.1139324,32.6519227 C20.3892947,32.1339399 16.6648502,32.4866009 14.9802126,35.207073 C13.2951884,37.9275451 12.1423382,40.6719657 11.2557681,42.3997339 C10.3688116,44.1275021 5.49190338,51.816515 3.62948792,55.7985322 C1.76745894,59.7809356 0.880502415,62.1190043 0.52610628,63.6435966 C0.171323671,65.1681888 0.171323671,66.2864292 1.14678261,66.4896052 C2.12224155,66.6927811 13.8273623,68.5225236 15.3346087,68.7256996 C16.8422415,68.9288755 20.2088116,68.1157854 20.8310338,68.7256996 C21.453256,69.3356137 23.1382802,70.65703 24.0248502,69.8439399 C24.9118068,69.0308498 25.9139324,65.6282318 26.6984734,65.6525665 C27.483401,65.676515 31.1270725,66.2864292 31.7438841,65.879691 C32.3603092,65.4729528 32.1914203,65.5745408 31.7438841,64.0499485 C31.2963478,62.5253562 31.6511304,59.5777597 30.6756715,59.3745837 C29.7002126,59.1710215 26.5964444,59.2726094 26.5964444,59.2726094 C26.5964444,59.2726094 28.5473623,57.8156137 28.9021449,58.1883605 C29.2569275,58.5614936 31.2159614,59.1710215 31.7438841,59.3745837 C32.2718068,59.5777597 32.0074589,58.4699485 30.8538357,57.9056137 C29.7002126,57.341279 28.2814686,56.934927 27.3945121,57.2400773 C26.507942,57.5448412 25.0891981,59.0694335 24.6455266,59.6793476 C24.2022415,60.2892618 21.8080386,64.5698627 21.8080386,64.5698627 C21.8080386,64.5698627 16.2215652,62.4237682 15.068715,61.8138541 C13.9158647,61.2039399 10.6408889,59.6592618 10.0202126,59.7612361 C11.970744,58.2362575 12.7688116,55.8985751 13.3009855,54.983897 C13.8331594,54.0688326 15.9614686,49.4950558 16.2273623,48.2752275 C17.6461063,47.2585751 21.2600193,44.4361288 21.9777005,45.197073 C22.6949952,45.9572446 23.1139324,32.6519227 23.1139324,32.6519227" id="Fill-35" fill="#1F191A"></path>
                                <path d="M19.4280966,32.4499442 C16.8317681,33.4326052 15.6205604,34.5199442 15.9073237,34.9699442 C16.1937005,35.4199442 17.2174686,34.7246652 19.7558261,36.4431631 C22.2941836,38.1616609 22.5805604,38.4888283 22.5805604,38.4888283 C22.5805604,38.4888283 22.0893527,36.0449227 22.5805604,36.0186567 C23.0717681,35.9927768 24.2184348,38.4888283 24.2184348,38.4888283 L23.8497391,35.133721 L19.4280966,32.4499442 Z" id="Fill-37" fill="#251F20"></path>
                                <path d="M36.6671304,29.2106009 L36.6671304,36.0185408 L30.1237488,36.0185408 L30.1237488,29.2106009 C31.7009469,30.8367811 33.0632657,31.6780687 33.3956329,31.6780687 C33.728,31.6780687 35.0899324,30.8367811 36.6671304,29.2106009" id="Fill-39" fill="#FBC29C"></path>
                                <path d="M39.2846763,37.8974549 C34.3780097,43.1649657 33.5919227,50.2823047 33.5919227,50.2823047 C33.5919227,50.2823047 32.8069952,43.1649657 27.8987826,37.8974549 C27.1467053,37.0434206 27.1358841,34.7123047 27.8813913,32.4503305 C31.1405217,30.9774979 33.7005217,31.0671116 33.7005217,31.0671116 C33.7005217,31.0671116 36.4348213,31.4093433 39.3897971,32.7280558 C40.0464155,34.8992575 40.0058357,37.0785708 39.2846763,37.8974549" id="Fill-41" fill="#FBC29C"></path>
                                <path d="M36.6671304,22.9909442 L36.6671304,29.849485 C35.0899324,31.4756652 33.728,32.3169528 33.3956329,32.3169528 C33.0632657,32.3169528 31.7009469,31.4756652 30.1237488,29.849485 L30.1237488,22.9909442 L36.6671304,22.9909442 Z" id="Fill-43" fill="#CA916B"></path>
                                <path d="M42.1417198,7.19760515 C41.434087,2.99425751 39.0394976,2.06606009 33.3950531,2.06606009 C27.7509952,2.06606009 25.3564058,2.99425751 24.6487729,7.19760515 C24.4238454,8.52751931 24.3689662,9.9995794 24.4331208,11.5705236 C24.4972754,13.1546009 24.6843285,14.8391073 24.9409469,16.5807811 C24.9880966,16.8990644 25.0418164,17.2130987 25.1017198,17.5209528 C25.193314,17.9956738 25.2988213,18.4584206 25.4170821,18.9080343 C27.3714783,26.339794 32.7106087,30.3333991 33.3950531,30.3333991 C34.0798841,30.3333991 39.4190145,26.339794 41.3734106,18.9080343 C41.491285,18.4584206 41.5967923,17.9956738 41.6887729,17.5209528 C41.7482899,17.2130987 41.8023961,16.8990644 41.8491594,16.5807811 C42.1061643,14.8391073 42.2932174,13.1546009 42.357372,11.5705236 C42.4215266,9.9995794 42.3666473,8.52751931 42.1417198,7.19760515" id="Fill-45" fill="#FBC29C"></path>
                                <path d="M42.1417198,7.19760515 L33.3950531,3.03829185 L24.6487729,7.19760515 C24.4238454,8.52751931 24.3689662,9.9995794 24.4331208,11.5705236 C24.4972754,13.1546009 24.6843285,14.8391073 24.9409469,16.5807811 C24.9880966,16.8990644 25.0418164,17.2130987 25.1017198,17.5209528 C25.193314,17.9956738 25.2988213,18.4584206 25.4170821,18.9080343 C26.0215266,19.2939142 26.786744,19.5755021 27.7293527,19.5755021 C30.7272271,19.5755021 31.6137971,18.2394077 32.0222995,17.7349442 C32.4315749,17.2316395 33.0796908,16.2431845 33.3950531,16.2431845 C33.7108019,16.2431845 34.3585314,17.2316395 34.7681932,17.7349442 C35.1763092,18.2394077 36.0628792,19.5755021 39.0611401,19.5755021 C40.0037488,19.5755021 40.7689662,19.2939142 41.3734106,18.9080343 C41.491285,18.4584206 41.5967923,17.9956738 41.6887729,17.5209528 C41.7482899,17.2130987 41.8023961,16.8990644 41.8491594,16.5807811 C42.1061643,14.8391073 42.2932174,13.1546009 42.357372,11.5705236 C42.4215266,9.9995794 42.3666473,8.52751931 42.1417198,7.19760515" id="Fill-47" fill="#1F191A"></path>
                                <path d="M32.1415266,14.9655322 C32.1415266,16.0111545 30.0634589,18.4712833 27.8485797,18.4712833 C26.7544734,18.4712833 25.793314,17.9981073 25.1015266,17.5210687 C25.0420097,17.2132146 24.9882899,16.8991803 24.9411401,16.580897 C24.6841353,14.8392232 24.4970821,13.1547167 24.4329275,11.5702532 C24.5558261,11.048794 24.7096425,10.7034721 24.8997874,10.7034721 C28.8534106,10.820897 32.1415266,14.9655322 32.1415266,14.9655322" id="Fill-49" fill="#F1F2F2"></path>
                                <path d="M34.6488889,14.9655322 C34.6488889,16.0111545 36.7269565,18.4712833 38.9418357,18.4712833 C40.035942,18.4712833 40.9971014,17.9981073 41.6888889,17.5210687 C41.7484058,17.2132146 41.8021256,16.8991803 41.8492754,16.580897 C42.1062802,14.8392232 42.2933333,13.1547167 42.3574879,11.5702532 C42.2345894,11.048794 42.0807729,10.7034721 41.890628,10.7034721 C37.9370048,10.820897 34.6488889,14.9655322 34.6488889,14.9655322" id="Fill-51" fill="#F1F2F2"></path>
                                <path d="M34.9821449,20.018897 C34.9137391,19.8381245 33.947942,18.8871373 33.5305507,18.8871373 C33.1135459,18.8871373 31.8420483,19.9061073 31.774029,20.0868798 C31.7056232,20.2676524 33.0474589,20.264176 33.395285,20.264176 C33.7431111,20.264176 35.0505507,20.1996695 34.9821449,20.018897" id="Fill-53" fill="#CA916B"></path>
                                <path d="M34.2805411,22.5563948 C34.0614106,22.5563948 33.5292367,23.0396137 33.3951304,23.0396137 C33.2614106,23.0396137 32.7292367,22.5563948 32.5097198,22.5563948 C32.2909758,22.5563948 30.6044058,23.2899142 29.4148406,22.9376395 C30.0405411,23.5232189 29.9006377,24.006824 30.6005411,24.6947639 C31.5075942,25.6797425 33.3951304,25.6619742 33.3951304,25.6619742 C33.3951304,25.6619742 35.2826667,25.6797425 36.1901063,24.6947639 C36.8896232,24.006824 36.7497198,23.5232189 37.3758068,22.9376395 C36.1858551,23.2899142 34.4996715,22.5563948 34.2805411,22.5563948" id="Fill-55" fill="#DE1829"></path>
                                <path d="M35.3290048,23.9771588 L33.3950918,23.9771588 L31.4615652,23.9771588 C31.3359614,23.9771588 31.4298744,24.2116223 31.9462029,24.3576309 C32.2862995,24.4541974 32.9703575,24.473897 33.3950918,24.4762146 C33.8198261,24.473897 34.5038841,24.4541974 34.8443671,24.3576309 C35.3606957,24.2116223 35.4546087,23.9771588 35.3290048,23.9771588" id="Fill-57" fill="#FBB4BA"></path>
                                <path d="M22.0445604,30.914691 L18.959343,29.3812146 C18.5836908,30.8413004 18.4368309,31.4195408 17.9154783,32.9360215 C17.9154783,32.9360215 18.9616618,32.823618 20.2408889,34.0917296 C20.6091981,34.4571373 21.5390531,35.6676953 22.0445604,35.5243906 C22.5500676,35.3806996 22.0445604,30.914691 22.0445604,30.914691" id="Fill-59" fill="#6D6E72"></path>
                                <path d="M54.3480966,101.630433 L54.3461643,101.630433 C53.9079034,99.2278584 48.5208502,99.4916781 44.6866473,101.810433 C40.7538937,104.18906 39.1488696,108.789876 39.5036522,110.499489 C38.9502222,109.432236 38.3817198,108.227086 37.8097391,106.864339 L37.8097391,106.862408 C38.2889662,104.771936 39.7343768,101.435755 44.0644251,99.1703047 C50.7979517,95.6502618 53.5252947,97.6109485 53.5252947,97.6109485 C53.5252947,97.6109485 53.5268406,97.6128798 53.5287729,97.6182876 C53.8205604,98.9551545 54.0937971,100.301292 54.3480966,101.630433" id="Fill-61" fill="#DE1829"></path>
                                <path d="M53.116599,95.8303777 C51.8999807,94.8017511 47.2835556,95.267588 43.5908019,97.3584464 C39.9591111,99.4137682 37.2615266,102.512395 36.8398841,104.417073 C36.4182415,103.292266 36.0356329,102.215356 35.6901256,101.18673 C36.7135072,99.3376738 38.7958261,96.7384893 42.9256812,94.7183176 C50.1218164,91.1978884 52.5090628,93.4038541 52.5090628,93.4038541 C52.7208502,94.1984034 52.9233623,95.0095622 53.116599,95.8303777" id="Fill-63" fill="#DE1829"></path>
                                <path d="M35.8079227,39.6828155 C34.5542029,42.1892961 34.043285,45.1600687 33.9737198,46.4610129 C33.4628019,42.563588 31.2336232,40.5878369 31.2336232,40.5878369 C31.6548792,42.0031159 31.8786473,43.2669785 31.9652174,44.3933305 C33.2989372,47.6445322 33.5918841,50.2823433 33.5918841,50.2823433 C33.5918841,50.2823433 33.9381643,47.1570644 35.5984541,43.5161202 C35.5980676,42.4813133 35.6521739,41.2116567 35.8079227,39.6828155" id="Fill-65" fill="#CA916B"></path>
                                <path d="M37.8018164,0.621463519 C37.8018164,0.621463519 34.7857778,-1.21098283 28.9523478,1.41755794 C23.1196908,4.04609871 21.3913816,12.3631803 21.0574686,15.2706052 C20.8360193,17.2011631 14.8337005,23.1056266 13.9792077,36.9297039 C14.2910918,36.3607339 14.622686,35.7836524 14.9801739,35.2073433 C16.2539903,33.1500901 18.6934106,32.4474721 20.9855845,32.4505622 L22.382686,31.4091888 C23.0508986,21.7339957 24.2949565,18.728073 28.9523478,15.2713777 C34.2215266,11.3600472 37.2874203,6.50893133 37.2874203,6.50893133 C37.2874203,6.50893133 38.8020097,4.9121073 38.9341836,3.55090558 C39.065971,2.18970386 37.8018164,0.621463519 37.8018164,0.621463519" id="Fill-67" fill="#6D6E72"></path>
                                <path d="M25.4784541,40.0905579 C22.7700483,39.4547639 19.6542995,43.2753219 18.5397101,45.3039914 C19.5325604,47.4639914 23.741256,47.7807296 23.741256,47.7807296 C23.741256,47.7807296 30.5022222,47.146867 31.2338164,46.7269957 C29.5615459,44.1571674 28.2827053,40.7491416 25.4784541,40.0905579" id="Fill-69" fill="#251F20"></path>
                                <path d="M41.6614493,40.0905579 C44.4096618,39.4547639 47.570628,43.2753219 48.7014493,45.3039914 C47.6942995,47.4639914 43.4241546,47.7807296 43.4241546,47.7807296 C43.4241546,47.7807296 36.5646377,47.146867 35.8226087,46.7269957 C37.5188406,44.1571674 38.8162319,40.7491416 41.6614493,40.0905579" id="Fill-71" fill="#251F20"></path>
                                <path d="M34.9821449,9.55838627 C26.4414686,19.1339227 21.0891981,15.0132361 21.27857,31.4322489 C21.27857,36.2026352 24.442628,41.207485 26.494029,42.4473991 C24.6988599,39.8806609 23.3311304,37.2814764 23.3311304,36.0747811 C24.6988599,38.3027639 25.9943188,38.3027639 25.9943188,38.3027639 C25.9943188,38.3027639 22.7533527,31.6929785 23.0551884,27.9056395 C23.9545121,16.6162403 31.3469758,14.7026781 34.9821449,9.55838627" id="Fill-73" fill="#3F3E40"></path>
                                <path d="M40.8943768,17.0711459 C38.891285,25.3828197 39.5034589,31.9667253 40.8387246,35.9433348 C41.3051981,37.3331202 41.9583382,39.4062103 42.6103188,41.5171545 C42.928,40.3718755 41.5521546,36.5802876 42.4966957,33.368485 C43.2928309,33.368485 44.0456812,39.0025622 44.5504155,39.0114464 C44.1473237,36.9151803 45.0563092,35.0719185 44.2883865,32.8172833 C45.6166957,32.8172833 47.459401,32.8273262 50.6335072,33.7447082 C50.0391111,32.2660815 46.3942802,27.5235064 45.6522512,22.5692575 C44.9098357,17.6150086 45.2070338,11.8944077 42.6103188,6.46118884 C40.0132174,1.02835622 37.8018164,0.621618026 37.8018164,0.621618026 C37.8018164,0.621618026 39.065971,2.1894721 38.9341836,3.55106009 C38.8020097,4.91187554 37.2874203,6.50869957 37.2874203,6.50869957 C39.0961159,7.0301588 41.6735072,13.551103 40.8943768,17.0711459" id="Fill-75" fill="#3F3E40"></path>
                                <path d="M46.6461836,32.9180601 C46.6461836,32.9180601 44.9542029,32.177588 43.861256,29.2724807 C42.7686957,26.3673734 43.2398068,20.3226953 43.2398068,20.3226953 C43.2398068,20.3226953 42.2411594,23.6256567 42.9572947,27.390206 C43.6730435,31.1547554 44.2883092,32.8172446 44.2883092,32.8172446 C44.8904348,32.8172446 45.7263768,32.759691 46.6461836,32.9180601 Z" id="Fill-77" fill="#6D6E72"></path>
                                <path d="M25.6815072,59.0434378 C25.8152271,59.0434378 26.3493333,58.7463991 26.6179324,58.5532661 C26.8865314,58.360133 27.9215072,57.5060987 28.1278841,57.5285021 C28.3342609,57.5505193 30.6059517,58.0530515 30.9410242,58.3365708 C31.2768696,58.6200901 31.4388019,58.2145107 31.0697198,58.0236953 C30.7006377,57.8328798 28.70257,56.9900472 27.6714589,57.1700472 C26.6399614,57.3500472 25.4314589,58.6645107 25.4786087,58.7761416 C25.525372,58.8873863 25.6815072,59.0434378 25.6815072,59.0434378" id="Fill-79" fill="#251F20"></path>
                                <path d="M39.2282512,64.2669142 C39.2282512,64.2669142 39.4945314,63.8292747 40.1194589,63.8860558 C40.7443865,63.9428369 42.3640966,64.0737811 42.3640966,64.0737811 C42.3640966,64.0737811 44.3509565,64.7810343 44.6017778,65.1375579 C44.8529855,65.4940815 45.69743,67.4586309 45.69743,67.4586309 C45.69743,67.4586309 45.0624541,67.628588 44.3525024,66.4133948 L43.6429372,65.1978155 C43.6429372,65.1978155 40.8866087,64.570133 40.6875749,64.570133 C40.4889275,64.570133 38.9608116,64.3557554 39.2282512,64.2669142" id="Fill-81" fill="#251F20"></path>
                                <path d="M45.0340483,70.1010773 C44.8651594,70.3312918 45.0916329,71.1833948 44.9780097,71.3545107 C44.8651594,71.5252403 44.7793623,72.5739528 44.580715,72.8304335 C44.3820676,73.0865279 43.954628,73.3704335 43.954628,73.3704335 L43.1967536,73.0309056 C43.1650628,72.733867 43.0294106,72.44803 42.7863188,72.2827082 C42.6692174,72.2046824 42.5262222,72.1490601 42.4647729,72.0242961 C42.3925024,71.87597 42.4945314,71.6716352 42.6560773,71.642279 C42.5745314,71.6067425 42.5354976,71.5121073 42.530087,71.4228798 C42.5223575,71.3340386 42.5428406,71.2448112 42.5409082,71.1555837 C42.53743,70.8956266 42.3588792,70.6746824 42.268058,70.4332661 C42.1192657,70.0361845 42.2197488,69.5572146 42.5169469,69.2563133 C42.3867053,69.1802189 42.2719227,69.074382 42.2085411,68.9388026 C42.1451594,68.8032232 42.1436135,68.6344249 42.2236135,68.5081159 C42.268058,68.4374292 42.3422609,68.3837382 42.4222609,68.3613348 C43.1445797,68.4988455 44.8667053,69.1655408 45.0340483,69.3103906 C45.2326957,69.4791888 45.2048696,69.8708627 45.0340483,70.1010773" id="Fill-83" fill="#251F20"></path>
                                <path d="M25.5631691,65.0801588 C26.1146667,64.9731631 26.9204638,64.2531631 27.3281932,64.3991717 C27.7363092,64.5455665 27.9828792,64.2392575 27.6420097,64.0561674 C27.3015266,63.8730773 26.3032657,63.5949657 26.8056812,63.1306738 C27.3080966,62.666382 27.9774686,62.6671545 28.3790145,62.6802876 C28.7801739,62.6926481 28.4107053,62.0213176 28.2897391,61.8950086 C28.1683865,61.7690858 28.0671304,60.9529056 28.1486763,60.7732918 C28.2302222,60.5932918 28.044715,60.0980987 28.044715,60.0980987 C28.044715,60.0980987 28.2677101,59.7693863 27.6671304,59.8976266 C27.0665507,60.0262532 25.4769855,60.8408884 25.4769855,60.8408884 C25.4769855,60.8408884 25.2609469,59.5808884 25.0464541,59.8678841 C24.8319614,60.1552661 23.993314,61.0877124 24.0543768,61.4272403 C24.1154396,61.7671545 23.9577585,62.2156094 24.17457,62.3326481 C24.3913816,62.4496867 24.4222995,63.0997725 24.545971,63.5018755 C24.670029,63.9043648 25.1964058,64.0901588 25.1964058,64.2446652 C25.1964058,64.3991717 25.2872271,65.1338498 25.5631691,65.0801588" id="Fill-85" fill="#251F20"></path>
                                <path d="M38.2554976,69.9645322 C38.1685411,70.3164206 38.0170435,70.8197253 38.2554976,71.3029442 C37.8902802,72.1079227 37.7148213,72.5799399 38.1275749,72.8491674 C37.8439034,73.8538455 37.6514396,74.6120858 38.1654493,74.9334592 C37.7012947,76.2436738 37.4721159,75.2092532 37.3639034,74.7040172 C37.2556908,74.1983948 37.6734686,73.3254335 37.6734686,73.3254335 C37.6734686,73.3254335 37.3279614,72.9580944 37.3457391,72.5903691 C37.3639034,72.22303 37.8002319,71.3029442 37.8002319,71.3029442 C37.8002319,71.3029442 37.5119227,70.4774936 38.1654493,70.0638026" id="Fill-87" fill="#1B1416"></path>
                                <path d="M36.6671304,86.679 C36.6671304,86.679 33.8342802,87.8860815 33.0385314,87.4217897 C32.2427826,86.9574979 29.3875169,83.4297296 29.3875169,83.4297296 C30.9763092,86.2456094 31.335343,91.5502017 31.41457,94.1204163 C31.6607536,92.7955236 31.8655845,91.4381845 32.0143768,90.0603734 C32.0166957,90.0426052 32.0182415,90.0252232 32.0201739,90.0074549 C32.0394976,90.0151803 32.0580483,90.0248369 32.0777585,90.0325622 L32.4951498,90.1967253 C32.6203671,90.2457811 32.7482899,90.2774549 32.876599,90.2952232 C33.0423961,91.274794 33.2534106,92.3563391 33.5212367,93.5394721 C34.1372754,89.4489142 36.6671304,86.679 36.6671304,86.679" id="Fill-89" fill="#1B1416"></path>
                                <path d="M56.4974686,61.4287468 C55.6615266,61.6141545 54.8255845,60.4866438 54.8255845,60.4866438 C54.8255845,60.4866438 54.7162126,60.2089185 54.404715,60.1915365 C53.2936039,61.2881459 51.0280966,66.233897 50.368,67.5784893 C49.9672271,68.3950558 49.168,69.7527811 48.5210435,70.8242833 C48.2253913,71.5995193 48.0452947,72.0912361 48.0452947,72.0912361 C48.0452947,72.0912361 53.3395942,66.5089185 54.8255845,65.082824 C56.3115749,63.6567296 59.283942,61.8930386 58.819401,61.4287468 C58.3552464,60.9644549 57.3334106,61.2433391 56.4974686,61.4287468" id="Fill-91" fill="#251F20"></path>
                                <path d="M10.3614686,59.7939142 L10.0202126,59.7610815 C10.0202126,59.7610815 8.94388406,61.0890644 7.65499517,61.6885494 C6.36649275,62.2880343 6.65518841,62.3316824 9.52127536,62.4541288 C12.3877488,62.5765751 21.2306473,66.0185923 21.2306473,66.0185923 L21.8080386,64.5697082 C21.8080386,64.5697082 16.2215652,62.424 15.068715,61.8136996 C14.0577005,61.2791073 11.4153816,60.0260601 10.3614686,59.7939142" id="Fill-93" fill="#251F20"></path>
                                <path d="M10.275401,44.9826567 C9.99250242,45.3878498 6.15984541,51.8736438 5.96970048,52.2711116 C5.31965217,53.6307682 8.9076715,49.2918412 9.73163285,48.4818412 C10.922744,47.3099099 12.5528889,47.2411545 12.3843865,46.2295236 C12.2154976,45.2175064 10.8875749,44.1066052 10.275401,44.9826567" id="Fill-95" fill="#251F20"></path>
                                <path d="M56.8201739,123.003888 C56.754087,122.592901 56.6791111,122.225176 56.4866473,121.854361 C56.4433623,121.770541 56.389256,121.706807 56.3301256,121.657751 C56.3293527,121.611785 56.3289662,121.566592 56.3285797,121.521785 C56.5129275,121.216249 56.6961159,120.135863 56.7278068,119.268309 C56.746744,119.221571 56.7652947,119.17406 56.7850048,119.126163 C56.8677101,118.923373 56.8244251,118.761528 56.7185314,118.650283 C56.7142802,118.596979 56.7088696,118.545991 56.701913,118.499253 C56.563942,117.54788 56.3710918,116.141871 56.2331208,117.024103 C56.1469372,117.575691 55.8903188,118.121485 55.7596908,118.746464 C55.5494493,118.996378 55.0679034,119.35097 55.0188213,119.666549 C55.0149565,119.692815 55.0095459,119.718695 55.0056812,119.744961 C54.7022995,119.790927 54.4101256,119.880541 54.1090628,119.952386 C53.6317681,120.066335 53.0454879,120.128137 52.6377585,120.408953 C52.5840386,120.446034 52.5376618,120.487365 52.4951498,120.530627 C51.9525411,119.804833 51.4091594,119.232 51.0195942,118.9817 C50.2474203,118.485348 46.4599807,118.345906 46.3301256,118.540584 C45.9993043,119.036549 47.5714783,121.793717 47.7921546,122.042086 C48.0128309,122.290069 48.8402705,120.55303 49.3921546,120.654618 C49.9440386,120.756206 52.1782415,123.337622 52.5368889,123.558567 C52.8820097,123.770627 54.578628,124.592987 54.0170821,123.13097 C54.0816232,123.138309 54.1508019,123.135991 54.2261643,123.117064 C54.4074203,123.071485 55.2584348,122.712258 55.4331208,122.648524 C55.5544734,123.16612 55.6974686,124.773373 56.3158261,124.909339 C56.9851981,125.05612 56.9229758,123.642 56.8201739,123.003888" id="Fill-97" fill="#1B1416"></path>
                                <path d="M16.4774879,111.597142 C16.5686957,111.823494 16.7279227,111.851305 16.8075362,111.984567 C16.8879227,112.12594 16.9864734,112.252249 17.1101449,112.161863 C17.1696618,111.94903 17.2299517,111.753966 17.2863768,111.580532 C16.5482126,110.238644 16.4272464,108.621734 16.3592271,107.063536 C16.3399034,106.624352 15.6875362,106.622034 15.6755556,107.063536 C15.6450242,108.203794 15.7203865,109.408558 16.0477295,110.511348 C16.0852174,110.763193 16.4322705,111.508687 16.4774879,111.597142" id="Fill-99" fill="#1B1416"></path>
                                <path d="M15.2582415,111.991133 C15.2180483,112.055253 15.1643285,112.171906 15.1616232,112.257657 C15.1446184,112.757099 15.2451014,113.209803 15.3015266,113.704996 C15.3757295,113.796155 15.4051014,112.935554 15.4820097,112.538086 C15.60143,111.97182 15.4290628,111.503279 15.4820097,110.664309 C15.354087,110.320918 15.2775652,109.945082 15.1743768,109.623322 C15.1593043,109.576197 14.8852947,108.936927 14.7728309,108.613622 C14.7090628,108.430532 14.4149565,108.450232 14.421913,108.660747 C14.4524444,109.539888 14.7063575,110.533365 15.0213333,111.352249 C15.1021063,111.561605 15.1732174,111.780618 15.2582415,111.991133" id="Fill-101" fill="#1B1416"></path>
                                <path d="M15.3538937,114.855335 C15.3457778,115.021043 15.3287729,115.186751 15.3063575,115.352073 C15.3415266,115.207609 15.3724444,115.063532 15.3929275,114.918296 C15.3778551,114.898983 15.3651014,114.877738 15.3538937,114.855335" id="Fill-103" fill="#1B1416"></path>
                                <path d="M26.8735845,106.371425 C26.9493333,106.22812 27.0246957,106.085974 27.0996715,105.945373 C27.1456618,105.859622 27.0335845,105.767305 26.9628599,105.840309 C26.0909758,106.739536 25.3752271,107.795974 24.6737778,108.829236 C24.5412174,109.0243 24.4044058,109.212798 24.2687536,109.403614 C24.1783188,109.404773 24.0878841,109.434901 24.0132947,109.505588 C23.4664348,110.020094 22.9265314,110.557391 22.3483671,111.043313 C22.0979324,111.496017 21.6434396,111.860266 21.2221836,112.138378 C21.1046957,112.216017 20.9887536,112.296361 20.8743575,112.377863 C20.8546473,112.470567 20.8071111,112.556704 20.7228599,112.616189 C20.5350338,112.748678 20.3375459,112.863013 20.1412174,112.976961 C19.8482705,113.257391 19.5901063,113.571811 19.3933913,113.941468 C19.0587053,114.569923 18.8936812,115.254386 18.4956135,115.850781 C17.9445024,116.675845 16.539285,116.522498 15.7072077,116.019193 C15.6855652,116.019579 15.6639227,116.019193 15.6418937,116.019579 C15.4355169,116.024601 15.2770628,115.856575 15.2561932,115.66576 C15.1568696,116.193013 14.9902995,116.709451 14.7634396,117.186876 C14.5709758,117.549193 14.9396715,117.874815 15.2415072,117.795245 C15.2967729,117.891039 15.3937778,117.961725 15.5170628,117.958635 C15.7636329,117.951682 16.00943,117.952069 16.2548406,117.955545 C16.1806377,118.288893 16.1087536,118.623013 16.0515556,118.959451 C16.0245024,119.112412 16.001314,119.266146 15.9827633,119.421811 C15.971942,119.511425 15.9622802,119.601039 15.9541643,119.691425 C15.9259517,120.014343 16.4202512,120.061082 16.5045024,119.765974 C16.6849855,119.136747 16.8925217,118.560052 17.1340676,117.983742 C17.6488502,118.00885 18.1632464,118.044773 18.6795749,118.078378 C19.4138744,118.125888 20.3692367,118.2437 21.0776425,117.997262 C21.3999614,117.885245 21.4359034,117.548807 21.3149372,117.272627 C21.2268213,117.070996 21.128657,116.873614 21.0324251,116.676232 C20.8759034,116.464558 20.7765797,116.220052 20.7155169,115.960094 C20.5300097,115.443657 20.5875942,114.851511 20.6417005,114.306103 C20.6436329,114.290652 20.6451787,114.275202 20.6467246,114.259751 C20.6679807,114.236575 20.6911691,114.214944 20.7128116,114.192155 C20.88943,113.730953 21.4691401,113.330781 21.9514589,113.012112 C22.1110725,112.840609 22.2181256,112.676833 22.4778357,112.659451 C22.5640193,112.653657 22.6664348,112.727433 22.6811208,112.814343 C22.6977391,112.909365 22.7101063,113.005159 22.7197681,113.100953 C22.7642126,113.274773 22.794744,113.455545 22.8098164,113.641339 C22.7912657,113.783485 22.7711691,113.925631 22.7502995,114.067391 C22.7456618,115.040781 22.7383188,115.962412 23.6546473,116.604 C23.6554203,116.602455 23.6565797,116.601296 23.6573527,116.599365 C23.7446957,116.434043 23.8227633,116.268335 23.8931014,116.101854 C24.2691401,115.457176 24.3618937,114.77194 24.3742609,114.053099 C24.4214106,113.674558 24.4434396,113.288678 24.4469179,112.889665 C24.626628,112.553614 24.7846957,112.207133 24.9338744,111.855631 C25.2175459,111.360438 25.4988986,110.862541 25.7416039,110.347648 C26.0055652,109.787948 26.2950338,109.242155 26.5454686,108.675502 C26.8206377,108.052841 26.9188019,107.352927 27.1031498,106.699365 C27.157256,106.507391 27.0227633,106.384558 26.8735845,106.371425" id="Fill-105" fill="#1B1416"></path>
                            </g>
                        </g>
                    </g>
                </g>
            </g>
        </g>
    </g>
</svg>